<svg width="750" height="500" viewBox="0 0 750 500" fill="none" xmlns="http://www.w3.org/2000/svg">
<g clip-path="url(#clip0_2126_15950)">
<path d="M183.379 438.976L193.109 444.332C194.14 444.9 194.765 446.2 194.445 447.432C194.192 448.406 193.361 449.149 191.197 449.192C186.387 449.288 165.101 445.74 165.101 445.74V448.475L155.154 448.5C155.154 448.5 154.532 434.384 157.54 432.539L183.379 438.976Z" fill="#262722"/>
<path d="M170.344 430.241L183.379 438.977C183.379 438.977 181.702 443.788 174.274 440.581C166.846 437.373 157.54 432.542 157.54 432.542L158.897 428.879L170.344 430.241Z" fill="#E8AF94"/>
<path d="M158.896 428.878L157.54 388.348L170.459 389.202V434.445L158.896 428.878Z" fill="#E8AF94"/>
<path d="M72.7058 438.976L62.9758 444.332C61.9448 444.9 61.3198 446.2 61.6398 447.432C61.8928 448.406 62.7238 449.149 64.8878 449.192C69.6978 449.288 90.9838 445.74 90.9838 445.74V448.599L100.79 448.475C100.79 448.475 101.553 434.383 98.5448 432.539L72.7058 438.976Z" fill="#262722"/>
<path d="M85.7411 430.241L72.7061 438.977C72.7061 438.977 74.3831 443.788 81.8111 440.581C89.2391 437.373 98.5451 432.542 98.5451 432.542L97.1881 428.879L85.7411 430.241Z" fill="#E8AF94"/>
<path d="M97.188 428.878L107.391 388.348L94.471 389.202L84.502 435.371L97.188 428.878Z" fill="#E8AF94"/>
<path d="M163.424 204.947C163.424 204.947 181.068 230.226 180.59 257.862C180.112 285.498 174.341 416.603 174.341 416.603H153.339L146.691 245.287L143.918 245.118L105.978 416.672L86.377 414.596L109.155 259.465C110.714 249.499 113.386 239.729 117.266 230.418C120.582 222.46 125.131 213.402 130.815 206.38L163.424 204.947Z" fill="#E180A0"/>
<path d="M137.659 246.582L151.089 244.242" stroke="black" stroke-width="0.9147" stroke-miterlimit="10" stroke-linecap="round" stroke-linejoin="round"/>
<path d="M127.007 221.582L120.532 240.218" stroke="#D4688F" stroke-width="0.9519" stroke-miterlimit="10" stroke-linecap="round" stroke-linejoin="round"/>
<path d="M117.166 98.5919C117.166 98.5919 115.696 113.31 98.9962 125.153C81.1892 137.781 94.4592 172.733 127.155 171.103C162.673 169.333 177.411 123.704 154.24 89.0469L117.166 98.5919Z" fill="#A74B22"/>
<path d="M142.076 142.006L120.549 148.055C114.336 149.801 109.357 156.393 111.234 162.568L130.618 206.433L163.423 204.946L174.954 157.421C175.943 150.964 169.246 145.101 162.755 144.361L142.076 142.006Z" fill="#7B97FB"/>
<path d="M120.549 148.057L142.076 142.008L162.756 144.363L162.328 144.722C150.531 154.612 133.766 155.95 120.549 148.057Z" fill="#E0A78F"/>
<path d="M190.415 200.779L165.905 222.532L170.192 229.936L198.496 212.686C203.075 209.766 205.165 203.989 203.129 198.954C203.029 198.705 202.92 198.459 202.803 198.216L199.518 191.381L190.415 200.779Z" fill="#E0A78F"/>
<path d="M182.861 157.782L203.255 192.66C204.252 195.156 202.94 197.976 200.389 198.821L190.558 202.077C189.059 202.574 187.409 202.168 186.327 201.017C182.709 197.17 166.815 185.047 167.318 170.234L161.669 160.118L162.756 144.361C173.293 145.632 180.903 152.979 182.861 157.782Z" fill="#7B97FB"/>
<path d="M169.535 180.676L174.093 165.688" stroke="black" stroke-width="0.865" stroke-miterlimit="10" stroke-linecap="round" stroke-linejoin="round"/>
<path d="M174.093 223.592C173.554 224.072 170.355 238.311 170.355 238.311L165.906 222.531L174.093 223.592Z" fill="#E0A78F"/>
<path d="M165.345 220.695L170.922 240.308" stroke="#D4688F" stroke-width="0.9519" stroke-miterlimit="10" stroke-linecap="round" stroke-linejoin="round"/>
<path d="M103.904 162.32L87.64 199.304C86.936 201.898 88.562 204.549 91.193 205.096L98.861 206.824C100.407 207.146 101.365 210.82 102.308 209.553C105.462 205.316 122.969 187.568 120.772 172.909L125.225 162.212L120.55 148.055C110.227 150.525 105.3 157.324 103.904 162.32Z" fill="#7B97FB"/>
<path d="M119.765 183.537L113.521 169.168" stroke="black" stroke-width="0.865" stroke-miterlimit="10" stroke-linecap="round" stroke-linejoin="round"/>
<path d="M66.141 159.613L58.502 162.743L89.282 206.773C91.72 211.672 98.082 213.029 102.307 209.552C105.82 206.661 106.438 201.519 103.709 197.878L66.141 159.613Z" fill="#E0A78F"/>
<path d="M66.4888 161.829L68.0408 159.515C69.1788 157.819 69.6678 155.77 69.4188 153.743L68.7258 148.093C68.7258 148.093 68.4128 145.107 62.7668 147.095C57.1208 149.083 56.7868 149.193 57.2268 150.902C57.2268 150.902 58.8048 153.063 62.6528 152.738L66.4888 161.829Z" fill="#E0A78F"/>
<path d="M59.3265 164.266C59.3265 164.266 52.9085 162.33 50.4705 152.349C50.1895 151.199 50.5255 149.978 51.3545 149.134C52.6305 147.834 56.3825 144.446 59.0215 145.522L64.1685 149.846L66.4895 161.83L59.3265 164.266Z" fill="#E0A78F"/>
<path d="M64.6271 147.912L64.3291 131.048C64.3111 130.043 63.4901 129.239 62.4851 129.242C61.4821 129.245 60.6661 130.052 60.6521 131.055L60.4731 143.897L59.1731 144.45L51.8091 133.088C51.2911 132.29 50.2131 132.083 49.4371 132.634C48.7581 133.116 48.5371 134.024 48.9181 134.764L57.2261 150.902L64.6271 147.912Z" fill="#E0A78F"/>
<path d="M64.6033 146.576C64.6033 146.576 56.5633 147.527 57.2253 150.902C57.2253 150.902 57.6003 153.453 62.6513 152.738C62.6513 152.738 59.7373 154.28 60.3613 157.774" stroke="#B9635E" stroke-width="0.6407" stroke-miterlimit="10" stroke-linecap="round" stroke-linejoin="round"/>
<path d="M128.036 114.993C128.403 118.239 126.069 121.168 122.823 121.535C119.577 121.902 116.648 119.568 116.281 116.322C115.914 113.076 118.248 110.147 121.495 109.78C124.741 109.413 127.669 111.747 128.036 114.993Z" fill="#E0A78F"/>
<path d="M118.743 115.112C118.743 115.112 120.99 113.773 123.568 117.656" stroke="#B9635E" stroke-width="0.6612" stroke-miterlimit="10" stroke-linecap="round" stroke-linejoin="round"/>
<path d="M149.569 113.345C149.844 116.6 152.706 119.016 155.961 118.741C159.216 118.466 161.632 115.605 161.357 112.349C161.082 109.094 158.221 106.678 154.965 106.953C151.711 107.228 149.295 110.09 149.569 113.345Z" fill="#E0A78F"/>
<path d="M158.707 111.643C158.707 111.643 156.241 110.769 154.473 115.081" stroke="#B9635E" stroke-width="0.6612" stroke-miterlimit="10" stroke-linecap="round" stroke-linejoin="round"/>
<path d="M139.035 118.863C150.232 117.918 158.594 108.679 157.712 98.2281C156.83 87.7769 147.038 80.0706 135.841 81.0155C124.644 81.9605 116.282 91.1989 117.164 101.65C118.046 112.101 127.838 119.808 139.035 118.863Z" fill="#A74B22"/>
<path d="M145.49 125.537C145.49 125.537 143.138 128.093 140.862 128.865C138.586 129.636 136.174 128.067 136.143 128.048C136.112 128.029 133.253 126.239 133.253 126.239L133.801 145.729L134.13 146.027C138.436 149.935 144.126 149.514 147.757 145.018L148.288 144.36L145.49 125.537Z" fill="#E0A78F"/>
<path d="M131.201 123.83C131.201 123.83 135.428 134.889 141.256 134.285C146.046 133.788 146.485 123.107 146.485 123.107L131.201 123.83Z" fill="#1E0B02"/>
<path d="M153.791 101.888C154.362 108.262 153.903 113.847 153.303 117.836C152.715 121.741 150.339 124.646 146.834 127.127L146.196 127.579C142.488 130.204 137.439 130.709 133.271 128.873C129.067 127.021 126.002 124.357 124.771 120.333C122.533 113.014 121.622 104.769 121.622 104.769C121.622 104.769 118.822 87.6349 136.199 86.3939C153.575 85.1529 153.791 101.888 153.791 101.888Z" fill="#E0A78F"/>
<path d="M137.048 112.182L137.258 114.674L138.962 114.53" stroke="#B9635E" stroke-width="0.6612" stroke-miterlimit="10" stroke-linecap="round" stroke-linejoin="round"/>
<path d="M124.502 104.219L133.61 102.617C133.61 102.617 132.587 100.308 128.909 101.007C125.146 101.722 124.502 104.219 124.502 104.219Z" fill="black"/>
<path d="M149.73 102.088L140.483 102.035C140.483 102.035 141.104 99.5878 144.847 99.6598C148.677 99.7348 149.73 102.088 149.73 102.088Z" fill="black"/>
<path d="M132.101 109.199C132.167 109.975 131.591 110.657 130.815 110.722C130.039 110.787 129.357 110.212 129.292 109.436C129.226 108.66 129.802 107.978 130.578 107.913C131.354 107.848 132.036 108.424 132.101 109.199Z" fill="#1E0B02"/>
<path d="M145.883 108.035C145.949 108.811 145.373 109.493 144.597 109.558C143.821 109.623 143.139 109.048 143.074 108.272C143.008 107.496 143.584 106.814 144.36 106.749C145.136 106.683 145.818 107.259 145.883 108.035Z" fill="#1E0B02"/>
<path d="M133.26 118.573C133.26 118.573 137.34 120.369 143.45 117.713" stroke="black" stroke-width="0.6612" stroke-miterlimit="10" stroke-linecap="round" stroke-linejoin="round"/>
<path d="M153.461 97.9678C153.461 97.9678 127.995 101.083 127.808 86.0098C127.808 86.0098 149.537 77.8208 153.461 97.9678Z" fill="#A74B22"/>
<path d="M120.898 100.73C120.898 100.73 129.556 96.2156 128.779 87.0176C128.779 87.0176 119.669 88.8556 120.898 100.73Z" fill="#A74B22"/>
<path d="M231.849 407.529L229.911 434.213L218.401 434.598L217.628 401.725L231.849 407.529Z" fill="#E8B499"/>
<path d="M230.441 431.178C230.441 431.178 222.397 436.229 218.159 428.469L187.084 444.962L235.483 444.666L230.441 431.178Z" fill="#DA4412"/>
<path d="M235.482 444.679L187.082 444.975L187.108 449.207L235.508 448.911L235.482 444.679Z" fill="white"/>
<path d="M214.477 436.538C214.348 436.485 214.231 436.399 214.141 436.283C212.26 433.818 210.372 432.602 210.353 432.589C209.981 432.352 209.88 431.873 210.129 431.518C210.377 431.163 210.887 431.076 211.253 431.303C211.34 431.357 213.391 432.67 215.457 435.375C215.72 435.721 215.64 436.204 215.277 436.455C215.036 436.62 214.732 436.642 214.477 436.538Z" fill="white"/>
<path d="M210.522 438.518C210.393 438.465 210.276 438.379 210.186 438.263C208.305 435.798 206.417 434.582 206.398 434.569C206.026 434.332 205.925 433.853 206.174 433.498C206.422 433.144 206.934 433.052 207.298 433.283C207.385 433.337 209.436 434.65 211.502 437.355C211.765 437.701 211.685 438.184 211.322 438.435C211.081 438.599 210.777 438.622 210.522 438.518Z" fill="white"/>
<path d="M206.568 440.496C206.439 440.443 206.322 440.357 206.232 440.241C204.351 437.777 202.462 436.561 202.443 436.548C202.071 436.311 201.97 435.832 202.219 435.477C202.467 435.123 202.978 435.031 203.343 435.262C203.43 435.316 205.481 436.629 207.547 439.333C207.811 439.678 207.73 440.162 207.367 440.413C207.127 440.578 206.823 440.6 206.568 440.496Z" fill="white"/>
<path d="M263.521 407.529L265.46 434.213L276.969 434.598L277.742 401.725L263.521 407.529Z" fill="#E8B499"/>
<path d="M264.93 431.178C264.93 431.178 272.973 436.229 277.212 428.469L308.287 444.962L259.888 444.666L264.93 431.178Z" fill="#DA4412"/>
<path d="M259.888 444.655L259.862 448.887L308.262 449.182L308.288 444.95L259.888 444.655Z" fill="white"/>
<path d="M280.894 436.538C281.023 436.485 281.14 436.399 281.23 436.283C283.111 433.818 284.999 432.602 285.018 432.589C285.39 432.352 285.491 431.873 285.242 431.518C284.994 431.163 284.484 431.076 284.118 431.303C284.031 431.357 281.98 432.67 279.914 435.375C279.651 435.721 279.732 436.204 280.094 436.455C280.335 436.62 280.639 436.642 280.894 436.538Z" fill="white"/>
<path d="M284.849 438.518C284.978 438.465 285.095 438.379 285.185 438.263C287.066 435.798 288.954 434.582 288.973 434.569C289.345 434.332 289.446 433.853 289.197 433.498C288.949 433.144 288.437 433.052 288.073 433.283C287.986 433.337 285.935 434.65 283.87 437.355C283.607 437.701 283.687 438.184 284.05 438.435C284.29 438.599 284.594 438.622 284.849 438.518Z" fill="white"/>
<path d="M288.803 440.496C288.932 440.443 289.049 440.357 289.139 440.241C291.02 437.777 292.909 436.561 292.928 436.548C293.3 436.311 293.401 435.832 293.152 435.477C292.904 435.123 292.393 435.031 292.028 435.262C291.941 435.316 289.89 436.629 287.824 439.333C287.56 439.678 287.641 440.162 288.004 440.413C288.244 440.578 288.549 440.6 288.803 440.496Z" fill="white"/>
<path d="M277.668 233.74C277.668 233.74 281.362 256.972 281.245 337.838L283.866 421.57H258.579L254.726 338.691L249.38 264.682H239.404V233.74H277.668Z" fill="#262722"/>
<path d="M218.67 233.74C218.67 233.74 214.976 257.903 215.093 338.769L212.472 421.57H237.759L240.643 338.691L246.959 264.682H256.935V233.74H218.67Z" fill="#262722"/>
<path d="M236.61 264.682H256.002" stroke="#494949" stroke-width="0.9528" stroke-miterlimit="10" stroke-linecap="round" stroke-linejoin="round"/>
<path d="M214.729 220.894L203.775 271.82L196.542 271.446C196.542 271.446 198.858 239.941 201.543 218.875C201.969 215.533 206.276 212.806 209.573 213.499C212.663 214.149 215.375 217.805 214.729 220.894Z" fill="#E8B499"/>
<path d="M202.938 268.458C202.938 268.458 206.503 274.039 204.302 281.146L205.929 288.091C206.182 289.169 205.657 290.298 204.699 290.737C203.662 291.212 202.478 290.718 202.024 289.622L200.401 285.698L200.23 287.199C199.958 289.583 200.437 291.982 201.59 294.008L204.871 299.773C205.244 300.429 205.254 301.259 204.895 301.939C204.202 303.253 202.514 303.424 201.648 302.267L196.449 295.321C194.434 292.629 193.607 289.108 194.181 285.66L197.261 267.129L202.938 268.458Z" fill="#E8B499"/>
<path d="M201.544 218.876L207.968 175.348L222.895 180.206L214.576 221.501L201.544 218.876Z" fill="#E8B499"/>
<path d="M224.053 157.277C224.053 157.277 213.971 158.479 208.791 171.836C203.583 185.265 197.218 199.276 197.218 199.276L219.783 211.851L224.053 157.277Z" fill="#4E8985"/>
<path d="M290.68 228.222L339.968 201.378L336.984 190.902C336.984 190.902 302.632 205.532 283.994 215.71C281.037 217.325 280.067 223.299 281.915 226.117C283.646 228.756 288.038 229.95 290.68 228.222Z" fill="#E8B499"/>
<path d="M294.75 219.076L284.545 175.35L269.618 180.208L281.348 224.956L294.75 219.076Z" fill="#E8B499"/>
<path d="M270.383 156.936C270.383 156.936 281.288 158.228 286.834 171.838C292.269 185.177 297.672 197.488 297.672 197.488L275.927 210.961L270.383 156.936Z" fill="#4E8985"/>
<path d="M275.444 158.974C271.574 156.578 265.287 155.979 265.287 155.979L247.808 157.743L230.329 155.979C230.329 155.979 224.041 156.579 220.171 158.974L220.029 199.235L212.22 254.579L283.868 254.966L275.648 199.958L275.444 158.974Z" fill="#4E8985"/>
<path d="M224.053 157.278L244.653 151.865H251.756L270.384 156.934C260.858 165.864 237.213 173.184 225.118 157.693L224.053 157.278Z" fill="#E8B499"/>
<path d="M218.531 210.96L219.783 198.071L218.302 178.713" stroke="black" stroke-width="0.9528" stroke-miterlimit="10" stroke-linecap="round" stroke-linejoin="round"/>
<path d="M276.922 209.965L275.767 198.069L277.683 178.527" stroke="black" stroke-width="0.9528" stroke-miterlimit="10" stroke-linecap="round" stroke-linejoin="round"/>
<path d="M278.408 138.734C278.209 137.078 278.34 135.379 278.757 133.782C280.874 125.669 278.452 118.759 274.177 113.596C270.309 108.925 269.345 102.015 269.345 102.015C266.504 92.6551 256.88 86.1621 248.121 86.1621C239.361 86.1621 229.767 92.2811 226.927 101.641C226.927 101.641 225.645 109.051 222.065 113.596C217.92 118.859 215.368 125.67 217.485 133.782C217.902 135.378 218.033 137.077 217.834 138.734C217.687 139.957 217.353 141.227 216.654 142.106H279.589C278.889 141.227 278.555 139.958 278.408 138.734Z" fill="#DA4412"/>
<path d="M237.21 120.926C237.306 124.327 234.627 127.162 231.225 127.259C227.824 127.355 224.988 124.676 224.892 121.275C224.796 117.874 227.475 115.038 230.876 114.942C234.278 114.845 237.114 117.525 237.21 120.926Z" fill="#E8B499"/>
<path d="M227.553 120.234C227.553 120.234 230.003 119.041 232.338 123.297" stroke="#C47268" stroke-width="0.6887" stroke-miterlimit="10" stroke-linecap="round" stroke-linejoin="round"/>
<path d="M265.865 127.261C269.268 127.261 272.026 124.503 272.026 121.1C272.026 117.698 269.268 114.939 265.865 114.939C262.462 114.939 259.704 117.698 259.704 121.1C259.704 124.503 262.462 127.261 265.865 127.261Z" fill="#E8B499"/>
<path d="M269.337 120.136C269.337 120.136 266.855 119.012 264.641 123.333" stroke="#C47268" stroke-width="0.6887" stroke-miterlimit="10" stroke-linecap="round" stroke-linejoin="round"/>
<path d="M267.117 113.854C269.593 103.458 263.173 93.0231 252.777 90.547C242.381 88.0708 231.946 94.4912 229.47 104.887C226.994 115.283 233.414 125.718 243.81 128.194C254.206 130.67 264.641 124.25 267.117 113.854Z" fill="#DA4412"/>
<path d="M254.409 133.399C254.409 133.399 251.743 135.846 249.312 136.447C246.881 137.048 244.514 135.207 244.484 135.185C244.454 135.163 241.641 133.055 241.641 133.055L240.501 153.332L240.816 153.67C244.945 158.104 250.89 158.165 255.054 153.817L255.663 153.181L254.409 133.399Z" fill="#E8B499"/>
<path d="M239.722 130.375C239.722 130.375 243.142 142.224 249.245 142.108C254.262 142.012 255.655 130.964 255.655 130.964L239.722 130.375Z" fill="#1E0B02"/>
<path d="M265.09 109.58C265.124 116.245 264.158 122.002 263.186 126.089C262.234 130.091 259.512 132.897 255.657 135.165L254.955 135.578C250.876 137.977 245.591 138.06 241.426 135.788C237.225 133.497 234.277 130.464 233.353 126.18C231.672 118.388 231.449 109.749 231.449 109.749C231.449 109.749 230.044 91.7204 248.189 91.9554C266.332 92.1924 265.09 109.58 265.09 109.58Z" fill="#E8B499"/>
<path d="M246.811 119.455V122.095H248.591" stroke="#C47268" stroke-width="0.6887" stroke-miterlimit="10" stroke-linecap="round" stroke-linejoin="round"/>
<path d="M234.486 109.432L244.079 108.567C244.079 108.567 243.22 106.081 239.341 106.484C235.373 106.897 234.486 109.432 234.486 109.432Z" fill="black"/>
<path d="M260.858 109.432L251.265 108.567C251.265 108.567 252.124 106.081 256.003 106.484C259.972 106.897 260.858 109.432 260.858 109.432Z" fill="black"/>
<path d="M242.462 124.529H252.937C252.937 124.529 252.535 127.261 247.512 127.261C243.389 127.261 242.462 124.529 242.462 124.529Z" fill="white"/>
<path d="M242.95 115.9C242.95 115.9 240.468 113.87 238.29 115.9" stroke="#1E0B02" stroke-width="0.9565" stroke-miterlimit="10" stroke-linecap="round" stroke-linejoin="round"/>
<path d="M256.972 115.9C256.972 115.9 255.028 113.818 252.43 115.9" stroke="#1E0B02" stroke-width="0.9565" stroke-miterlimit="10" stroke-linecap="round" stroke-linejoin="round"/>
<path opacity="0.23" d="M238.3 109.268L245.331 118.814C245.331 118.814 243.21 122.868 239.832 122.417L232.735 113.104C232.735 113.104 234.655 109.01 238.3 109.268Z" fill="white"/>
<path opacity="0.23" d="M255.595 109.268L262.626 118.814C262.626 118.814 260.505 122.868 257.127 122.417L250.03 113.104C250.03 113.104 251.949 109.01 255.595 109.268Z" fill="white"/>
<path d="M245.891 115.9C245.891 119.697 242.813 122.775 239.016 122.775C235.219 122.775 232.141 119.697 232.141 115.9C232.141 112.103 235.219 109.025 239.016 109.025C242.813 109.025 245.891 112.103 245.891 115.9Z" stroke="white" stroke-width="0.4927" stroke-miterlimit="10"/>
<path d="M263.205 115.9C263.205 119.697 260.127 122.775 256.33 122.775C252.533 122.775 249.455 119.697 249.455 115.9C249.455 112.103 252.533 109.025 256.33 109.025C260.127 109.025 263.205 112.103 263.205 115.9Z" stroke="white" stroke-width="0.4927" stroke-miterlimit="10"/>
<path d="M245.891 115.899C245.891 115.899 247.855 115.176 249.454 115.899" stroke="white" stroke-width="0.4927" stroke-miterlimit="10"/>
<path d="M229.701 105.483C229.701 105.483 245.875 102.404 249.214 90.3322C249.214 90.3322 232.007 84.2272 229.701 105.483Z" fill="#DA4412"/>
<path d="M265.09 105.483C265.09 105.483 248.917 102.404 245.577 90.3322C245.577 90.3322 262.783 84.2272 265.09 105.483Z" fill="#DA4412"/>
<path d="M471.875 425.459H453.855L424.054 441.401L475.296 440.79L471.875 425.459Z" fill="#A74B22"/>
<path d="M462.728 444.467C464.42 444.467 465.789 445.882 465.824 447.639L475.474 447.534L475.296 440.791L424.055 441.402L424.233 448.145L459.626 447.715V447.705C459.626 445.917 461.015 444.467 462.728 444.467Z" fill="#1E0B02"/>
<path d="M441.4 431.33L447.303 432.943" stroke="#4E8985" stroke-width="1.9384" stroke-miterlimit="10" stroke-linecap="round" stroke-linejoin="round"/>
<path d="M447.172 428.369L453.076 429.983" stroke="#4E8985" stroke-width="1.9384" stroke-miterlimit="10" stroke-linecap="round" stroke-linejoin="round"/>
<path d="M471.875 400.055H453.508V425.461H471.875V400.055Z" fill="#E6A9A0"/>
<path d="M504.337 425.459H522.357L552.158 441.401L500.917 440.79L504.337 425.459Z" fill="#A74B22"/>
<path d="M513.485 444.467C511.793 444.467 510.424 445.882 510.389 447.639L500.739 447.534L500.917 440.791L552.158 441.402L551.98 448.145L516.587 447.715V447.705C516.587 445.917 515.198 444.467 513.485 444.467Z" fill="#1E0B02"/>
<path d="M534.812 431.33L529.825 433.86" stroke="#4E8985" stroke-width="1.9384" stroke-miterlimit="10" stroke-linecap="round" stroke-linejoin="round"/>
<path d="M529.042 428.369L524.972 429.983" stroke="#4E8985" stroke-width="1.9384" stroke-miterlimit="10" stroke-linecap="round" stroke-linejoin="round"/>
<path d="M520.74 400.055H502.373L504.337 425.46H522.705L520.74 400.055Z" fill="#E6A9A0"/>
<path d="M514.252 208.357C515.632 223.091 526.675 418.131 526.675 418.131H498.001L485.435 244.888L480.27 244.986L476.928 418.131H449.532C449.532 418.131 447.969 237.165 449.64 208.817L514.252 208.357Z" fill="#4E8985"/>
<path d="M473.028 245.018H494.039" stroke="black" stroke-width="0.9528" stroke-miterlimit="10" stroke-linecap="round" stroke-linejoin="round"/>
<path d="M470.792 48.8335C470.792 48.8335 478.734 38.0865 492.806 45.2575C508.234 53.1195 499.897 70.0665 499.897 70.0665L466.742 63.7855L470.792 48.8335Z" fill="#A74B22"/>
<path d="M464.161 70.15C464.161 70.15 455.488 53.12 470.793 48.834L473.544 57.969L464.161 70.15Z" fill="#A74B22"/>
<path d="M471.514 78.0089C471.61 81.4099 468.931 84.2459 465.529 84.3419C462.128 84.4379 459.292 81.7589 459.196 78.3569C459.1 74.9559 461.779 72.1199 465.18 72.0239C468.583 71.9289 471.418 74.6079 471.514 78.0089Z" fill="#E8B499"/>
<path d="M461.857 77.3161C461.857 77.3161 464.307 76.1231 466.642 80.3791" stroke="#C47268" stroke-width="0.6887" stroke-miterlimit="10" stroke-linecap="round" stroke-linejoin="round"/>
<path d="M494.008 78.1825C494.008 81.5855 496.766 84.3435 500.169 84.3435C503.572 84.3435 506.33 81.5855 506.33 78.1825C506.33 74.7795 503.572 72.0215 500.169 72.0215C496.767 72.0215 494.008 74.7805 494.008 78.1825Z" fill="#E8B499"/>
<path d="M503.641 77.2176C503.641 77.2176 501.158 76.0936 498.945 80.4146" stroke="#C47268" stroke-width="0.6887" stroke-miterlimit="10" stroke-linecap="round" stroke-linejoin="round"/>
<path d="M490.666 92.3797C490.666 92.3797 487.192 94.8307 484.027 95.4357C480.862 96.0407 477.784 94.2037 477.745 94.1807C477.706 94.1587 474.049 92.0547 474.049 92.0547L472.535 112.334L472.945 112.672C478.312 117.099 486.049 117.152 491.476 112.798L492.27 112.161L490.666 92.3797Z" fill="#E8B499"/>
<path d="M472.535 89.9219C472.535 89.9219 475.987 101.222 483.931 101.097C490.461 100.994 491.514 89.9219 491.514 89.9219H472.535Z" fill="#1E0B02"/>
<path d="M499.397 67.4566C499.432 74.4206 498.468 80.4356 497.496 84.7056C496.545 88.8866 492.867 91.8186 489.013 94.1866L488.311 94.6176C484.233 97.1236 480.861 97.2086 476.695 94.8346C472.494 92.4406 468.588 89.2706 467.663 84.7936C465.98 76.6516 465.755 67.6256 465.755 67.6256C465.755 67.6256 463.39 48.7876 481.534 49.0376C499.68 49.2886 499.397 67.4566 499.397 67.4566Z" fill="#E8B499"/>
<path d="M476.219 72.9836C476.219 73.7946 475.562 74.4516 474.751 74.4516C473.94 74.4516 473.283 73.7946 473.283 72.9836C473.283 72.1726 473.941 71.5156 474.751 71.5156C475.561 71.5156 476.219 72.1726 476.219 72.9836Z" fill="#1E0B02"/>
<path d="M490.625 72.9836C490.625 73.7946 489.968 74.4516 489.157 74.4516C488.346 74.4516 487.689 73.7946 487.689 72.9836C487.689 72.1726 488.347 71.5156 489.157 71.5156C489.968 71.5156 490.625 72.1726 490.625 72.9836Z" fill="#1E0B02"/>
<path d="M480.622 76.8242V79.1772H482.527" stroke="#C47268" stroke-width="0.6887" stroke-miterlimit="10" stroke-linecap="round" stroke-linejoin="round"/>
<path d="M469.28 66.7773L478.873 65.9124C478.873 65.9124 478.014 63.4263 474.135 63.8293C470.167 64.2433 469.28 66.7773 469.28 66.7773Z" fill="black"/>
<path d="M494.008 66.7773L484.414 65.9124C484.414 65.9124 485.273 63.4263 489.152 63.8293C493.121 64.2433 494.008 66.7773 494.008 66.7773Z" fill="black"/>
<path d="M477.338 82.5312H486.802C486.802 82.5312 486.357 85.4303 481.93 85.4303C477.502 85.4303 477.338 82.5312 477.338 82.5312Z" fill="white"/>
<path d="M466.374 76.5415C466.374 76.5415 467.085 53.4675 466.79 52.8105C466.79 52.8105 458.609 60.3695 466.374 76.5415Z" fill="#A74B22"/>
<path d="M498.713 76.3782L497.485 51.3242C497.485 51.3242 505.352 59.1402 498.713 76.3782Z" fill="#A74B22"/>
<path d="M473.966 50.7656C473.966 50.7656 468.337 52.2906 468.529 57.8176C468.721 63.3446 464.983 68.7766 464.983 68.7766L463.276 63.2536C463.276 63.2536 461.958 52.9606 473.966 50.7656Z" fill="#A74B22"/>
<path d="M472.546 51.2236C472.546 51.2236 476.761 48.8326 480.945 54.0936C484.518 58.5866 493.94 63.2136 499.518 58.8096C499.518 58.8096 495.965 46.0926 482.102 46.3516C468.239 46.6106 472.546 51.2236 472.546 51.2236Z" fill="#A74B22"/>
<path d="M452.911 120.033C424.966 134.025 401.945 160.073 401.945 160.073L416.945 178.142L459.194 151.301L452.911 120.033Z" fill="#EEC86A"/>
<path d="M528.88 227.871L537.289 249.305L543.787 248.615L538.858 220.889L528.88 227.871Z" fill="#E8B499"/>
<path d="M536.973 245.929C536.973 245.929 533.639 251.936 536.373 259.155L535.133 266.451C534.94 267.584 535.556 268.719 536.576 269.112C537.68 269.538 538.875 268.951 539.275 267.786L540.705 263.619L540.978 265.163C541.412 267.614 541.069 270.129 540.005 272.301L536.976 278.481C536.631 279.184 536.675 280.044 537.089 280.725C537.891 282.042 539.65 282.111 540.473 280.857L545.412 273.331C547.326 270.415 547.957 266.716 547.143 263.181L542.768 244.189L536.973 245.929Z" fill="#E8B499"/>
<path d="M509.535 119.199C509.535 119.199 519.376 121.675 524.617 136.453C535.117 166.058 546.005 245.38 546.005 245.38L527.208 248.923L500.854 147.303L509.535 119.199Z" fill="#EEC86A"/>
<path d="M503.398 116.468L511.827 120.218C515.241 121.737 517.445 125.118 517.457 128.854L517.756 220.305H447.096V128.782C447.096 124.961 449.389 121.513 452.913 120.035L461.516 116.426L503.398 116.468Z" fill="#EEC86A"/>
<path d="M482.958 107.607L503.397 116.467C503.397 116.467 482.397 135.445 461.515 116.425L482.958 107.607Z" fill="#E8B499"/>
<path d="M461.515 116.426C461.515 116.426 468.791 125.035 482.403 125.035C496.015 125.035 503.397 116.469 503.397 116.469" stroke="white" stroke-width="1.9384" stroke-miterlimit="10"/>
<path d="M517.72 209.886L517.521 149.088" stroke="black" stroke-width="0.9528" stroke-miterlimit="10" stroke-linecap="round" stroke-linejoin="round"/>
<path d="M447.095 158.988V148.787" stroke="black" stroke-width="0.9528" stroke-miterlimit="10" stroke-linecap="round" stroke-linejoin="round"/>
<path d="M370.979 74.8328C370.979 74.8328 380.058 70.7868 383.277 78.4368C386.375 85.8018 374.07 92.8198 374.07 92.8198L370.979 74.8328Z" fill="#1E0B02"/>
<path d="M353.997 105.367C354.093 108.768 351.414 111.604 348.013 111.7C344.612 111.796 341.776 109.117 341.68 105.716C341.584 102.315 344.263 99.4794 347.664 99.3834C351.065 99.2874 353.901 101.966 353.997 105.367Z" fill="#C67D69"/>
<path d="M344.341 104.675C344.341 104.675 346.791 103.482 349.126 107.738" stroke="#A8523F" stroke-width="0.7482" stroke-miterlimit="10" stroke-linecap="round" stroke-linejoin="round"/>
<path d="M382.653 111.701C386.056 111.701 388.814 108.943 388.814 105.54C388.814 102.137 386.056 99.3789 382.653 99.3789C379.251 99.3789 376.492 102.137 376.492 105.54C376.492 108.943 379.251 111.701 382.653 111.701Z" fill="#C67D69"/>
<path d="M386.125 104.577C386.125 104.577 383.642 103.454 381.429 107.774" stroke="#A8523F" stroke-width="0.7482" stroke-miterlimit="10" stroke-linecap="round" stroke-linejoin="round"/>
<path d="M373.151 119.737C373.151 119.737 369.677 122.188 366.512 122.793C363.347 123.398 360.269 121.561 360.23 121.538C360.191 121.515 356.534 119.412 356.534 119.412L355.02 139.691L355.43 140.029C360.797 144.456 368.534 144.509 373.961 140.155L374.755 139.518L373.151 119.737Z" fill="#C67D69"/>
<path d="M355.019 117.281C355.019 117.281 358.471 128.581 366.415 128.456C372.945 128.353 373.998 117.281 373.998 117.281H355.019Z" fill="#1E0B02"/>
<path d="M381.882 94.815C381.917 101.779 380.953 107.794 379.981 112.064C379.03 116.245 376.309 119.177 372.454 121.546L371.752 121.977C367.674 124.483 362.389 124.568 358.223 122.194C354.022 119.8 351.073 116.63 350.147 112.153C348.464 104.011 348.239 94.985 348.239 94.985C348.239 94.985 345.874 76.147 364.018 76.397C382.164 76.647 381.882 94.815 381.882 94.815Z" fill="#C67D69"/>
<path d="M357.235 101.809C358.045 101.809 358.703 101.152 358.703 100.341C358.703 99.5303 358.045 98.873 357.235 98.873C356.424 98.873 355.767 99.5303 355.767 100.341C355.767 101.152 356.424 101.809 357.235 101.809Z" fill="#1E0B02"/>
<path d="M371.641 101.809C372.452 101.809 373.109 101.152 373.109 100.341C373.109 99.5303 372.452 98.873 371.641 98.873C370.83 98.873 370.173 99.5303 370.173 100.341C370.173 101.152 370.83 101.809 371.641 101.809Z" fill="#1E0B02"/>
<path d="M363.105 102.484V106.534H365.721" stroke="#A8523F" stroke-width="0.7482" stroke-miterlimit="10" stroke-linecap="round" stroke-linejoin="round"/>
<path d="M351.764 94.1348L361.358 93.2698C361.358 93.2698 360.499 90.7838 356.62 91.1868C352.651 91.5998 351.764 94.1348 351.764 94.1348Z" fill="black"/>
<path d="M376.492 94.1348L366.899 93.2698C366.899 93.2698 367.758 90.7838 371.637 91.1868C375.605 91.5998 376.492 94.1348 376.492 94.1348Z" fill="black"/>
<path d="M359.822 109.889H369.286C369.286 109.889 368.841 112.788 364.414 112.788C359.986 112.788 359.822 109.889 359.822 109.889Z" fill="white"/>
<path d="M348.857 103.899C348.857 103.899 351.543 83.525 350.229 80.168C350.229 80.168 341.092 87.727 348.857 103.899Z" fill="#1E0B02"/>
<path d="M381.197 103.736C381.197 103.736 378.174 84.2796 379.012 78.6816C379.012 78.6816 387.836 86.4976 381.197 103.736Z" fill="#1E0B02"/>
<path d="M378.382 77.296L370.016 76.031L369.279 74.584L364.863 75.252L360.448 74.584L359.711 76.031L351.345 77.296L350.229 81.772L350.504 86.932C350.504 86.932 351.828 81.079 356.438 82.245C357.525 82.52 358.826 82.975 360.348 83.282C361.769 83.592 363.124 83.732 364.401 83.754C364.552 83.758 364.709 83.754 364.862 83.755C365.016 83.754 365.172 83.758 365.323 83.754C366.601 83.732 367.955 83.592 369.376 83.282C370.897 82.975 372.227 82.613 373.286 82.245C377.559 80.758 379.133 86.665 379.133 86.665L379.495 81.772L378.382 77.296Z" fill="#1E0B02"/>
<path d="M378.214 82.3875C378.214 82.3875 372.773 87.2425 365.802 83.5125C365.802 83.5125 348.068 94.4375 343.062 82.5445C338.889 72.6295 356.212 59.1745 374.085 74.3365L378.214 82.3875Z" fill="#1E0B02"/>
<path d="M386.404 393.643L389.273 429.317L405.042 429.813L405.081 387.504L386.404 393.643Z" fill="#C67D69"/>
<path d="M388.97 425.541C388.97 425.541 399.899 431.914 405.354 421.928L445.348 443.155L383.058 442.774L388.97 425.541Z" fill="#101010"/>
<mask id="mask0_2126_15950" style="mask-type:luminance" maskUnits="userSpaceOnUse" x="383" y="421" width="63" height="23">
<path d="M388.97 425.541C388.97 425.541 399.899 431.914 405.354 421.928L445.348 443.155L383.058 442.774L388.97 425.541Z" fill="white"/>
</mask>
<g mask="url(#mask0_2126_15950)">
<path d="M438.223 430.504C438.223 430.504 422.847 432.804 424.03 451.925L450.642 444.631L438.223 430.504Z" fill="white"/>
</g>
<path d="M383.056 442.758L383.022 448.205L445.314 448.585L445.348 443.138L383.056 442.758Z" fill="white"/>
<path d="M410.093 432.313C410.26 432.245 410.41 432.134 410.525 431.984C412.945 428.812 415.376 427.246 415.4 427.23C415.879 426.925 416.009 426.308 415.688 425.851C415.369 425.393 414.713 425.282 414.242 425.574C414.13 425.644 411.49 427.333 408.832 430.814C408.493 431.259 408.597 431.881 409.064 432.204C409.373 432.418 409.765 432.447 410.093 432.313Z" fill="white"/>
<path d="M415.183 434.859C415.349 434.791 415.5 434.68 415.615 434.53C418.035 431.358 420.466 429.792 420.49 429.776C420.969 429.471 421.099 428.854 420.778 428.397C420.459 427.941 419.8 427.823 419.332 428.12C419.22 428.19 416.58 429.879 413.922 433.36C413.583 433.805 413.687 434.427 414.154 434.75C414.463 434.964 414.855 434.992 415.183 434.859Z" fill="white"/>
<path d="M420.272 437.404C420.439 437.336 420.589 437.225 420.704 437.075C423.125 433.904 425.556 432.338 425.58 432.323C426.059 432.018 426.189 431.401 425.868 430.944C425.549 430.488 424.892 430.37 424.422 430.667C424.31 430.737 421.67 432.426 419.011 435.906C418.672 436.35 418.776 436.973 419.243 437.296C419.553 437.509 419.945 437.538 420.272 437.404Z" fill="white"/>
<path d="M350.304 393.643L351.26 429.317L335.491 429.813L331.627 387.504L350.304 393.643Z" fill="#C67D69"/>
<path d="M351.291 425.541C351.291 425.541 340.361 431.914 334.906 421.928L294.913 443.155L357.203 442.774L351.291 425.541Z" fill="#101010"/>
<mask id="mask1_2126_15950" style="mask-type:luminance" maskUnits="userSpaceOnUse" x="294" y="421" width="64" height="23">
<path d="M351.291 425.541C351.291 425.541 340.361 431.914 334.906 421.928L294.913 443.155L357.203 442.774L351.291 425.541Z" fill="white"/>
</mask>
<g mask="url(#mask1_2126_15950)">
<path d="M302.037 430.504C302.037 430.504 317.413 432.804 316.23 451.925L289.618 444.631L302.037 430.504Z" fill="white"/>
</g>
<path d="M357.205 442.788L294.913 443.168L294.946 448.615L357.238 448.235L357.205 442.788Z" fill="white"/>
<path d="M330.168 432.313C330.001 432.245 329.851 432.134 329.736 431.984C327.316 428.812 324.885 427.246 324.861 427.23C324.382 426.925 324.252 426.308 324.573 425.851C324.892 425.393 325.548 425.282 326.019 425.574C326.132 425.644 328.771 427.333 331.429 430.814C331.768 431.259 331.664 431.881 331.197 432.204C330.887 432.418 330.495 432.447 330.168 432.313Z" fill="white"/>
<path d="M325.078 434.859C324.912 434.791 324.761 434.68 324.646 434.53C322.226 431.358 319.795 429.792 319.771 429.776C319.292 429.471 319.162 428.854 319.483 428.397C319.802 427.941 320.461 427.823 320.929 428.12C321.041 428.19 323.681 429.879 326.339 433.36C326.678 433.805 326.574 434.427 326.107 434.75C325.797 434.964 325.405 434.992 325.078 434.859Z" fill="white"/>
<path d="M319.988 437.404C319.821 437.336 319.671 437.225 319.556 437.075C317.135 433.904 314.704 432.338 314.68 432.323C314.201 432.018 314.071 431.401 314.392 430.944C314.711 430.488 315.368 430.37 315.838 430.667C315.95 430.737 318.59 432.426 321.249 435.906C321.588 436.35 321.484 436.973 321.017 437.296C320.708 437.509 320.316 437.538 319.988 437.404Z" fill="white"/>
<path d="M367.578 256.093L381.58 411.045H409.416L398.921 225.806L364.391 222.753L335.817 221.34L324.27 319.459C323.335 328.429 330.475 336.189 339.492 336C346.574 335.852 352.586 330.767 353.906 323.808L367.578 256.093Z" fill="#7B97FB"/>
<path d="M355.135 254.578L373.062 256.858" stroke="black" stroke-width="0.9528" stroke-miterlimit="10" stroke-linecap="round" stroke-linejoin="round"/>
<path d="M415.017 413.758H378.322L376.552 397.131H413.247L415.017 413.758Z" fill="#A1B9FC"/>
<path d="M353.906 323.808L355.615 408.658H326.241L324.27 319.459L353.906 323.808Z" fill="#7B97FB"/>
<path d="M359.174 397.131H322.479V413.758H359.174V397.131Z" fill="#A1B9FC"/>
<path d="M395.555 147.724L374.754 139.52L355.02 139.693L329.001 151.867C326.962 153.088 327.346 155.558 328.086 157.817L333.97 227.358L399.224 226.46L403.476 155.804C404.034 153.48 397.705 148.767 395.555 147.724Z" fill="#E180A0"/>
<path d="M355.018 139.694L349.205 142.365C349.205 142.365 349.142 152.11 364.938 151.605C381.135 151.087 381.099 141.908 381.099 141.908L374.752 139.52L355.018 139.694Z" fill="#C67D69"/>
<path d="M429.879 191.168L386.01 170.222L407.761 157.279L427.242 169.344L429.879 191.168Z" fill="#C67D69"/>
<path d="M421.739 122.889L430.227 119.836L445.261 179.077C447.372 185.42 443.033 192.078 436.378 192.709C430.845 193.234 425.877 189.313 425.102 183.809L421.739 122.889Z" fill="#C67D69"/>
<path d="M421.739 122.888L417.691 118.419C415.578 116.087 414.044 113.29 413.21 110.256L411.743 104.914C411.394 103.644 412.27 102.366 413.58 102.233C414.686 102.121 415.749 102.692 416.266 103.676L419.001 108.882L419.763 85.869C419.775 84.876 420.656 84.119 421.64 84.257L422.3 84.349C423.077 84.458 423.669 85.099 423.716 85.882L423.692 99.5241L425.887 83.8571C425.964 82.8701 426.886 82.173 427.857 82.369L428.337 82.466C429.153 82.631 429.718 83.3781 429.654 84.2081L427.853 100.576L431.702 87.7641C431.981 86.7491 433.128 86.252 434.059 86.743L434.247 86.8421C434.886 87.1781 435.231 87.891 435.099 88.601L432.536 102.405L435.162 94.271C435.535 93.115 436.989 92.746 437.868 93.585C438.286 93.984 438.465 94.5731 438.339 95.1371L431.522 125.648L421.739 122.888Z" fill="#C67D69"/>
<path d="M419.002 108.883C419.002 108.883 423.447 109.912 425.769 115.128" stroke="#A8523F" stroke-width="0.7482" stroke-miterlimit="10" stroke-linecap="round" stroke-linejoin="round"/>
<path d="M424.121 168.33L425.023 179.614" stroke="#A8523F" stroke-width="0.7482" stroke-miterlimit="10" stroke-linecap="round" stroke-linejoin="round"/>
<path d="M392.652 146.736C408.927 151.674 420.187 164.973 420.187 164.973L407.945 189.266L379.847 176.228L392.652 146.736Z" fill="#E180A0"/>
<path d="M401.638 186.341L393.653 182.637" stroke="black" stroke-width="0.9528" stroke-miterlimit="10" stroke-linecap="round" stroke-linejoin="round"/>
<path d="M316.213 174.398L306.317 210.04C305.192 215.707 311.893 222.134 317.33 223.576C322.7 225 321.565 220.791 322.972 215.276L336.457 181.557L316.213 174.398Z" fill="#C67D69"/>
<path d="M307.275 214.17C309.029 221.447 332.025 237.509 332.025 237.509L345.207 237.625L321.288 204.578L307.275 214.17Z" fill="#C67D69"/>
<path d="M349.295 241.119C349.295 241.119 352.655 242.807 355.959 242.135C357.782 241.764 358.108 239.287 356.454 238.436C352.147 236.221 343.081 231.042 339.507 229.75L333.285 228.016L327.424 233.84L332.025 237.509C332.025 237.509 333.131 243.334 335.379 245.316C335.379 245.316 345.116 246.83 349.295 241.119Z" fill="#C67D69"/>
<path d="M325.128 209.886L321.287 204.578" stroke="#A8523F" stroke-width="0.7482" stroke-miterlimit="10" stroke-linecap="round" stroke-linejoin="round"/>
<path d="M329 151.865C329 151.865 312.595 157.344 309.215 186.473L341.678 196.139L350.71 167.974L329 151.865Z" fill="#E180A0"/>
<path d="M331.422 193.71L329.962 177.527" stroke="black" stroke-width="0.9528" stroke-miterlimit="10" stroke-linecap="round" stroke-linejoin="round"/>
<path d="M341.564 146.004C341.564 146.004 338.255 147.774 340.85 152.914C342.325 155.835 341.354 159.397 338.602 161.166L332.879 164.844C329.686 166.896 325.382 165.746 323.712 162.337C322.587 160.042 321.876 157.425 322.729 155.183C324.786 149.78 336.86 143.578 341.564 146.004Z" fill="#E8B499"/>
<path d="M609.856 408.847V433.593L621.365 433.977L622.138 401.104L609.856 408.847Z" fill="#CF7C6C"/>
<path d="M609.325 430.559C609.325 430.559 617.369 435.61 621.607 427.85L652.682 444.343L604.283 444.047L609.325 430.559Z" fill="#101010"/>
<mask id="mask2_2126_15950" style="mask-type:luminance" maskUnits="userSpaceOnUse" x="604" y="427" width="49" height="18">
<path d="M609.325 430.559C609.325 430.559 617.369 435.61 621.607 427.85L652.682 444.343L604.283 444.047L609.325 430.559Z" fill="white"/>
</mask>
<g mask="url(#mask2_2126_15950)">
<path d="M647.146 434.514C647.146 434.514 635.199 436.301 636.118 451.158L656.795 445.491L647.146 434.514Z" fill="white"/>
</g>
<path d="M604.278 444.028L604.252 448.26L652.652 448.555L652.678 444.323L604.278 444.028Z" fill="white"/>
<path d="M625.29 435.919C625.419 435.866 625.536 435.78 625.626 435.664C627.507 433.199 629.395 431.983 629.414 431.97C629.786 431.733 629.887 431.254 629.638 430.899C629.39 430.544 628.88 430.457 628.514 430.684C628.427 430.738 626.376 432.051 624.31 434.756C624.047 435.102 624.128 435.585 624.49 435.836C624.731 436.001 625.036 436.024 625.29 435.919Z" fill="white"/>
<path d="M629.244 437.898C629.373 437.845 629.49 437.759 629.58 437.643C631.461 435.178 633.349 433.962 633.368 433.95C633.74 433.713 633.841 433.234 633.592 432.879C633.344 432.525 632.832 432.433 632.468 432.664C632.381 432.718 630.33 434.031 628.264 436.736C628.001 437.082 628.082 437.565 628.444 437.816C628.685 437.98 628.99 438.002 629.244 437.898Z" fill="white"/>
<path d="M633.199 439.875C633.328 439.822 633.445 439.736 633.535 439.62C635.416 437.156 637.305 435.94 637.324 435.928C637.696 435.691 637.797 435.212 637.548 434.857C637.3 434.503 636.789 434.411 636.424 434.642C636.337 434.696 634.286 436.009 632.22 438.713C631.956 439.058 632.038 439.542 632.4 439.793C632.64 439.956 632.944 439.979 633.199 439.875Z" fill="white"/>
<path d="M615.972 221.34C615.972 221.34 636.526 245.702 629.907 310.819L624.615 419.443H607.914L596.95 221.34H615.972Z" fill="#DA4412"/>
<path d="M586.748 408.847V433.593L575.239 433.977L574.466 401.104L586.748 408.847Z" fill="#CF7C6C"/>
<path d="M587.279 430.559C587.279 430.559 579.235 435.61 574.997 427.85L543.922 444.343L592.321 444.047L587.279 430.559Z" fill="#101010"/>
<mask id="mask3_2126_15950" style="mask-type:luminance" maskUnits="userSpaceOnUse" x="543" y="427" width="50" height="18">
<path d="M587.279 430.559C587.279 430.559 579.235 435.61 574.997 427.85L543.922 444.343L592.321 444.047L587.279 430.559Z" fill="white"/>
</mask>
<g mask="url(#mask3_2126_15950)">
<path d="M549.458 434.514C549.458 434.514 561.405 436.301 560.486 451.158L539.809 445.491L549.458 434.514Z" fill="white"/>
</g>
<path d="M592.326 444.066L543.926 444.361L543.952 448.593L592.352 448.298L592.326 444.066Z" fill="white"/>
<path d="M571.315 435.919C571.186 435.866 571.069 435.78 570.979 435.664C569.098 433.199 567.21 431.983 567.191 431.97C566.819 431.733 566.718 431.254 566.967 430.899C567.215 430.544 567.725 430.457 568.091 430.684C568.178 430.738 570.229 432.051 572.294 434.756C572.557 435.102 572.476 435.585 572.114 435.836C571.873 436.001 571.569 436.024 571.315 435.919Z" fill="white"/>
<path d="M567.36 437.898C567.231 437.845 567.114 437.759 567.024 437.643C565.143 435.178 563.255 433.962 563.236 433.95C562.864 433.713 562.763 433.234 563.012 432.879C563.26 432.525 563.772 432.433 564.136 432.664C564.223 432.718 566.274 434.031 568.34 436.736C568.603 437.082 568.522 437.565 568.16 437.816C567.919 437.98 567.614 438.002 567.36 437.898Z" fill="white"/>
<path d="M563.405 439.875C563.276 439.822 563.159 439.736 563.069 439.62C561.188 437.156 559.299 435.94 559.28 435.928C558.908 435.691 558.807 435.212 559.056 434.857C559.304 434.503 559.815 434.411 560.18 434.642C560.267 434.696 562.318 436.009 564.384 438.713C564.648 439.058 564.566 439.542 564.204 439.793C563.964 439.956 563.66 439.979 563.405 439.875Z" fill="white"/>
<path d="M579.479 221.34C579.479 221.34 558.925 245.702 565.544 310.819L570.836 419.443H589.367L598.501 221.341L579.479 221.34Z" fill="#DA4412"/>
<path d="M613.068 234.645H580.953V266.76H613.068V234.645Z" fill="#DA4412"/>
<path d="M601.705 266.76L586.889 265.846" stroke="black" stroke-width="0.9528" stroke-miterlimit="10" stroke-linecap="round" stroke-linejoin="round"/>
<path d="M677.018 148.422L684.276 150.703L668.914 198.542C667.095 203.879 660.783 206.137 655.991 203.164C652.007 200.693 650.672 195.525 652.96 191.433L677.018 148.422Z" fill="#DE9A8C"/>
<path d="M677.315 146.829L677.893 144.938C678.67 142.397 680.033 140.074 681.873 138.157L685.112 134.782C685.882 133.98 687.188 134.062 687.851 134.954C688.411 135.707 688.457 136.725 687.967 137.526L685.376 141.761L700.391 133.55C701.116 133.129 702.046 133.44 702.372 134.213L702.591 134.731C702.848 135.341 702.64 136.048 702.092 136.421L692.19 142.306L704.499 137.119C705.248 136.748 706.152 137.115 706.43 137.903L706.567 138.293C706.8 138.956 706.503 139.689 705.874 140.001L695.251 145.199L704.182 143.025C705.039 142.788 705.895 143.405 705.942 144.292L705.951 144.471C705.983 145.08 705.616 145.638 705.044 145.85L695.928 148.77L700.962 148.349C701.962 148.119 702.858 149.014 702.63 150.014C702.522 150.49 702.172 150.874 701.709 151.027L678.638 158.092L677.215 152.811C676.685 150.849 676.72 148.775 677.315 146.829Z" fill="#DE9A8C"/>
<path d="M685.376 141.762C685.376 141.762 686.553 145.43 683.776 149.37" stroke="#C47268" stroke-width="0.7519" stroke-miterlimit="10" stroke-linecap="round" stroke-linejoin="round"/>
<path d="M624.393 150.896C624.393 150.896 636.836 154.051 655.727 183.065L664.5 157.998L684.554 166.98L670.989 203.385C667.444 212.9 655.353 215.807 647.929 208.88C641.97 203.32 622.905 182.231 619.074 175.092L624.393 150.896Z" fill="#262722"/>
<path d="M562.781 217.068C562.781 217.068 572.29 219.752 567.237 230.043C562.682 239.319 554.783 241.26 548.22 239.7C547.105 239.435 546.546 238.174 547.037 237.139C547.347 236.486 548.006 236.077 548.728 236.092C551.102 236.142 555.335 235.754 556.511 232.565C558.042 228.416 555.873 223.86 558.278 219.579L562.781 217.068Z" fill="#DE9A8C"/>
<path d="M562.781 217.068L557.062 207.602L548.642 212.335L558.918 223.543L562.781 217.068Z" fill="#DE9A8C"/>
<path d="M562.705 155.104C562.705 155.104 546.567 163.067 526.557 183.447C524.522 185.52 523.709 188.551 524.546 191.333C526.081 196.435 531.288 204.947 547.583 216.068L561.741 208.862L549.367 192.385L573.026 182.578L562.705 155.104Z" fill="#262722"/>
<path d="M626.578 236.972L570.784 237.625L577.212 151.662H620.281L626.578 236.972Z" fill="white"/>
<path d="M570.136 151.662L562.706 155.104C562.706 155.104 573.701 195.099 557.787 256.728L571.539 259.911C571.539 259.911 586.413 215.279 585.062 155.104L570.136 151.662Z" fill="#262722"/>
<path d="M625.964 151.797L629.426 153.401C631.702 154.455 632.955 156.913 632.478 159.375C630.207 171.077 625.398 206.845 638.314 256.863L624.562 260.046C624.562 260.046 609.688 215.414 611.039 155.239L625.964 151.797Z" fill="#262722"/>
<path d="M605.28 136.209C605.28 136.209 602.342 138.68 599.663 139.288C596.985 139.896 594.378 138.039 594.345 138.016C594.312 137.994 591.215 135.867 591.215 135.867L589.95 151.366L590.297 151.707C594.843 156.18 601.392 156.24 605.981 151.849L606.652 151.207L605.28 136.209Z" fill="#DE9A8C"/>
<path d="M615.459 112.171C615.493 118.899 614.519 124.71 613.537 128.836C612.576 132.875 609.829 135.708 605.937 137.998L605.228 138.415C601.111 140.837 595.776 140.92 591.572 138.627C587.332 136.315 584.356 133.253 583.423 128.929C581.726 121.063 581.501 112.344 581.501 112.344C581.501 112.344 580.083 94.1452 598.398 94.3832C616.714 94.6192 615.459 112.171 615.459 112.171Z" fill="#DE9A8C"/>
<path d="M590.585 119.075C591.403 119.075 592.067 118.412 592.067 117.593C592.067 116.775 591.403 116.111 590.585 116.111C589.766 116.111 589.103 116.775 589.103 117.593C589.103 118.412 589.766 119.075 590.585 119.075Z" fill="#1E0B02"/>
<path d="M605.127 119.075C605.945 119.075 606.609 118.412 606.609 117.593C606.609 116.775 605.945 116.111 605.127 116.111C604.308 116.111 603.645 116.775 603.645 117.593C603.645 118.412 604.308 119.075 605.127 119.075Z" fill="#1E0B02"/>
<path d="M596.512 121.182V123.847H598.309" stroke="#C47268" stroke-width="0.6951" stroke-miterlimit="10" stroke-linecap="round" stroke-linejoin="round"/>
<path d="M585.062 111.33L594.746 110.457C594.746 110.457 593.879 107.948 589.964 108.355C585.958 108.771 585.062 111.33 585.062 111.33Z" fill="black"/>
<path d="M610.024 111.33L600.34 110.457C600.34 110.457 601.207 107.948 605.122 108.355C609.129 108.771 610.024 111.33 610.024 111.33Z" fill="black"/>
<path d="M592.066 126.002C592.066 126.002 594.665 128.153 598.476 127.379" stroke="black" stroke-width="0.6951" stroke-miterlimit="10" stroke-linecap="round" stroke-linejoin="round"/>
<path d="M581.996 105.637C581.996 105.637 593.923 96.4007 615.478 105.637C615.478 105.637 613.579 92.2207 598.737 92.2207C583.895 92.2207 581.996 105.637 581.996 105.637Z" fill="white"/>
<path d="M621.84 110.777C620.55 98.6274 612.16 92.2364 606.185 89.8184C601.25 87.8214 595.702 87.8244 590.755 89.7914C584.71 92.1954 576.195 98.5814 574.9 110.777C573.182 126.959 585.931 143.379 585.931 143.379L598.277 140.348L610.971 143.379C610.971 143.379 623.559 126.959 621.84 110.777ZM601.599 137.92C599.392 139.005 596.779 138.998 594.586 137.885C586.217 133.64 581.911 123.461 582.429 112.287C582.72 106.007 586.479 101.609 590.273 98.7454C595.074 95.1214 601.666 95.1214 606.467 98.7454C610.262 101.609 614.02 106.007 614.311 112.287C614.832 123.512 610.135 133.722 601.599 137.92Z" fill="#7B97FB"/>
<path d="M587.245 140.291L570.136 151.661C570.136 151.661 592.066 169.931 627.73 152.619L609.838 140.291H587.245Z" fill="#7B97FB"/>
<path d="M585.932 141.545C585.932 141.545 590.41 146.28 598.302 145.485" stroke="#6081EA" stroke-width="0.6735" stroke-miterlimit="10" stroke-linecap="round" stroke-linejoin="round"/>
<path d="M585.062 151.175C585.062 151.175 602.115 158.077 620.281 148.26" stroke="#6081EA" stroke-width="0.6735" stroke-miterlimit="10" stroke-linecap="round" stroke-linejoin="round"/>
<path d="M591.125 140.91C591.125 140.91 597.124 142.38 602.964 137.6" stroke="#6081EA" stroke-width="0.6735" stroke-miterlimit="10" stroke-linecap="round" stroke-linejoin="round"/>
<path d="M610.972 141.545C610.972 141.545 610.022 143.56 606.652 144.008" stroke="#6081EA" stroke-width="0.6735" stroke-miterlimit="10" stroke-linecap="round" stroke-linejoin="round"/>
<path d="M28.8047 448.941H700.268" stroke="#D6B997" stroke-width="0.9916" stroke-miterlimit="10" stroke-linecap="round" stroke-linejoin="round"/>
</g>
<defs>
<clipPath id="clip0_2126_15950">
<rect width="750" height="500" fill="white"/>
</clipPath>
</defs>
</svg>
