<svg width="492" height="213" viewBox="0 0 492 213" fill="none" xmlns="http://www.w3.org/2000/svg">
<path d="M91.286 164.723L69 136.376L86.72 115.531L123.02 164.722L91.286 164.723ZM0 164.723L36.3 115.532L54.021 136.377L31.731 164.723H0ZM4.42 53.164H34.911L60.921 86.5L160.722 0L60.922 126.5L4.42 53.164Z" fill="#FACC48"/>
<path d="M163.311 100.955H135.591C135.706 99.5708 135.967 98.2031 136.371 96.8747C136.84 95.299 137.615 93.8311 138.651 92.5547C139.828 91.117 141.302 89.9505 142.971 89.1347C145.091 88.1463 147.414 87.6734 149.751 87.7547C153.911 87.7547 157.011 88.8747 159.051 91.1147C161.091 93.3547 162.511 96.6347 163.311 100.955ZM135.591 111.755H180.351C180.686 107.12 180.281 102.462 179.151 97.9547C178.108 93.7189 176.253 89.7253 173.691 86.1947C171.154 82.7404 167.847 79.9258 164.031 77.9747C159.747 75.8514 155.011 74.8013 150.231 74.9147C145.803 74.8568 141.412 75.7148 137.331 77.4347C133.562 79.0384 130.154 81.3851 127.311 84.3347C124.47 87.3199 122.266 90.8514 120.831 94.7147C119.285 98.859 118.513 103.252 118.551 107.675C118.499 112.172 119.251 116.642 120.771 120.875C122.148 124.707 124.292 128.218 127.071 131.195C129.86 134.121 133.261 136.395 137.031 137.855C141.242 139.467 145.722 140.262 150.231 140.195C157.271 140.195 163.271 138.595 168.231 135.395C173.191 132.195 176.871 126.875 179.271 119.435H164.271C163.711 121.355 162.191 123.175 159.711 124.895C157.091 126.657 153.987 127.558 150.831 127.475C146.031 127.475 142.351 126.235 139.791 123.755C137.231 121.275 135.831 117.275 135.591 111.755ZM198.951 76.5947V138.635H215.991V106.115C215.991 99.7947 217.031 95.2547 219.111 92.4947C221.191 89.7347 224.551 88.3547 229.191 88.3547C233.271 88.3547 236.111 89.6147 237.711 92.1347C239.311 94.6547 240.111 98.4747 240.111 103.595V138.635H257.151V100.475C257.182 96.9485 256.84 93.4289 256.131 89.9747C255.562 87.0651 254.353 84.3187 252.591 81.9347C250.784 79.6386 248.404 77.8589 245.691 76.7747C242.111 75.4187 238.297 74.7864 234.471 74.9147C230.811 74.9286 227.201 75.7695 223.911 77.3747C220.386 79.093 217.46 81.8316 215.511 85.2347H215.151V76.5947H198.951ZM320.871 98.4347H337.551C337.413 94.7975 336.427 91.2428 334.671 88.0547C333.032 85.1805 330.803 82.6858 328.131 80.7347C325.378 78.7396 322.289 77.256 319.011 76.3547C315.554 75.387 311.981 74.9024 308.391 74.9147C303.786 74.8313 299.213 75.6888 294.951 77.4347C291.16 79.0233 287.762 81.4188 284.991 84.4547C282.216 87.5497 280.111 91.1861 278.811 95.1347C277.38 99.4489 276.671 103.97 276.711 108.515C276.661 112.88 277.435 117.216 278.991 121.295C280.417 125.028 282.58 128.435 285.351 131.315C288.153 134.169 291.527 136.398 295.251 137.855C299.321 139.45 303.66 140.245 308.031 140.195C316.271 140.195 323.031 138.035 328.311 133.715C333.591 129.395 336.791 123.115 337.911 114.875H321.471C321.103 118.297 319.653 121.513 317.331 124.055C315.131 126.335 311.991 127.475 307.911 127.475C305.543 127.549 303.205 126.923 301.191 125.675C299.382 124.508 297.88 122.923 296.811 121.055C295.7 119.093 294.91 116.966 294.471 114.755C293.998 112.505 293.757 110.213 293.751 107.915C293.755 105.556 293.996 103.205 294.471 100.895C294.922 98.6119 295.753 96.4213 296.931 94.4147C298.051 92.4969 299.59 90.8563 301.431 89.6147C303.471 88.3181 305.856 87.6696 308.271 87.7547C315.551 87.7547 319.751 91.3147 320.871 98.4347ZM414.231 138.635V76.5947H397.191V109.115C397.191 115.435 396.151 119.975 394.071 122.735C391.991 125.495 388.631 126.875 383.991 126.875C379.911 126.875 377.071 125.615 375.471 123.095C373.871 120.575 373.071 116.755 373.071 111.635V76.5947H356.031V114.755C356 118.281 356.342 121.8 357.051 125.255C357.62 128.164 358.829 130.911 360.591 133.295C362.391 135.584 364.774 137.346 367.491 138.395C371.081 139.709 374.89 140.32 378.711 140.195C382.365 140.183 385.971 139.363 389.271 137.795C392.801 136.112 395.732 133.391 397.671 129.995H398.031V138.635H414.231ZM448.911 118.475H432.711C432.728 122.122 433.7 125.701 435.531 128.855C437.19 131.553 439.448 133.832 442.131 135.515C444.953 137.251 448.061 138.47 451.311 139.115C454.784 139.838 458.323 140.2 461.871 140.195C465.356 140.198 468.833 139.856 472.251 139.175C475.465 138.568 478.537 137.367 481.311 135.635C483.95 133.956 486.15 131.673 487.731 128.975C489.465 125.84 490.315 122.294 490.191 118.715C490.276 116.189 489.697 113.686 488.511 111.455C487.406 109.511 485.891 107.832 484.071 106.535C482.14 105.169 480.017 104.097 477.771 103.355C475.388 102.548 472.965 101.867 470.511 101.315C468.111 100.755 465.751 100.235 463.431 99.7547C461.341 99.3354 459.278 98.7945 457.251 98.1347C455.654 97.6445 454.166 96.8499 452.871 95.7947C452.328 95.3421 451.894 94.7722 451.603 94.1278C451.312 93.4834 451.171 92.7814 451.191 92.0747C451.134 90.9725 451.474 89.8865 452.151 89.0147C452.784 88.2597 453.586 87.6637 454.491 87.2747C455.466 86.8607 456.497 86.5976 457.551 86.4947C458.587 86.3794 459.629 86.3193 460.671 86.3147C463.413 86.2473 466.13 86.8443 468.591 88.0547C470.831 89.2147 472.071 91.4347 472.311 94.7147H488.511C488.338 91.3399 487.328 88.0614 485.571 85.1747C483.993 82.7155 481.881 80.644 479.391 79.1147C476.784 77.5455 473.92 76.4487 470.931 75.8747C467.711 75.2288 464.435 74.9072 461.151 74.9147C457.85 74.9092 454.556 75.2105 451.311 75.8147C448.275 76.3554 445.353 77.4106 442.671 78.9347C440.13 80.3966 438.003 82.4823 436.491 84.9947C434.82 87.9968 434.011 91.4018 434.151 94.8347C434.073 97.2446 434.654 99.6302 435.831 101.735C436.943 103.606 438.46 105.206 440.271 106.415C442.219 107.706 444.34 108.716 446.571 109.415C448.931 110.175 451.351 110.835 453.831 111.395C458.658 112.33 463.41 113.613 468.051 115.235C471.451 116.515 473.151 118.435 473.151 120.995C473.203 122.338 472.825 123.662 472.071 124.775C471.361 125.766 470.439 126.586 469.371 127.175C468.244 127.792 467.03 128.237 465.771 128.495C464.529 128.766 463.262 128.907 461.991 128.915C460.352 128.92 458.719 128.718 457.131 128.315C455.65 127.95 454.247 127.32 452.991 126.455C451.783 125.606 450.779 124.499 450.051 123.215C449.258 121.763 448.865 120.128 448.911 118.475Z" fill="#FACC48"/>
</svg>
