<?xml version="1.0" encoding="utf-8"?>
<!-- Generator: Adobe Illustrator 27.5.0, SVG Export Plug-In . SVG Version: 6.00 Build 0)  -->
<svg version="1.1" xmlns="http://www.w3.org/2000/svg" xmlns:xlink="http://www.w3.org/1999/xlink" x="0px" y="0px"
	 viewBox="0 0 500 500" style="enable-background:new 0 0 500 500;" xml:space="preserve">
<g id="Layer_2">
	<rect style="fill:#FFF2E9;" width="500" height="500"/>
</g>
<g id="Layer_3">
	<g>
		<path style="fill:#FFEADC;" d="M11.653,236.525c1.943-23.418,7.995-48.39,23.824-62.103c11.265-9.76,25.606-12.202,38.763-17.471
			c18.621-7.457,35.514-21.114,48.325-39.068c20.785-29.128,31.261-69.384,57.416-91.3c31.138-26.091,75.434-16.551,106.365,9.897
			c16.255,13.899,30.381,32.128,48.852,41.117c13.429,6.535,28.199,7.679,42.162,12.304c38.358,12.704,68.175,51.557,83.732,95.79
			c15.557,44.233,18.512,93.463,17.385,141.506c-0.279,11.88-0.854,24.07-4.849,34.93c-4.816,13.092-14.175,22.991-24.215,30.613
			c-25.356,19.252-55.771,26.177-85.601,29.363c-64.564,6.896-129.475-1.958-194.271-3.924c-23.032-0.699-46.238-0.544-68.861-5.816
			c-22.143-5.16-46.36-16.611-62.096-37.026c-15.575-20.204-22.348-56.241-25.687-82.678
			C10.555,274.11,10.104,255.203,11.653,236.525z"/>
		<g>
			<rect y="393.808" style="fill:#FCDFDE;" width="500" height="105.469"/>
			<g>
				<g>
					<path style="opacity:0.3;fill:#FCDFDE;" d="M29.009,472.163c0,0.94-2.368,1.702-5.289,1.702s-5.289-0.762-5.289-1.702
						c0-0.94,2.368-1.702,5.289-1.702S29.009,471.223,29.009,472.163z"/>
					<path style="opacity:0.3;fill:#FCDFDE;" d="M35.372,478.525c0,0.94-2.368,1.702-5.289,1.702c-2.921,0-5.289-0.762-5.289-1.702
						c0-0.94,2.368-1.702,5.289-1.702C33.004,476.823,35.372,477.585,35.372,478.525z"/>
					<path style="opacity:0.3;fill:#FCDFDE;" d="M45.132,473.804c0,0.761-1.917,1.378-4.282,1.378c-2.365,0-4.282-0.617-4.282-1.378
						c0-0.761,1.917-1.378,4.282-1.378C43.215,472.426,45.132,473.043,45.132,473.804z"/>
				</g>
				<g>
					<path style="opacity:0.3;fill:#FCDFDE;" d="M339.593,417.849c0,0.47-1.184,0.851-2.644,0.851c-1.461,0-2.644-0.381-2.644-0.851
						s1.184-0.851,2.644-0.851C338.409,416.998,339.593,417.379,339.593,417.849z"/>
					<ellipse style="opacity:0.3;fill:#FCDFDE;" cx="340.13" cy="421.03" rx="2.644" ry="0.851"/>
					<path style="opacity:0.3;fill:#FCDFDE;" d="M347.654,418.67c0,0.381-0.959,0.689-2.141,0.689c-1.182,0-2.141-0.309-2.141-0.689
						c0-0.381,0.959-0.689,2.141-0.689C346.696,417.981,347.654,418.289,347.654,418.67z"/>
				</g>
				<g>
					<path style="opacity:0.3;fill:#FCDFDE;" d="M261.106,479.867c0,0.741,1.867,1.342,4.169,1.342s4.169-0.601,4.169-1.342
						c0-0.741-1.867-1.342-4.169-1.342S261.106,479.126,261.106,479.867z"/>
					<path style="opacity:0.3;fill:#FCDFDE;" d="M256.09,484.883c0,0.741,1.867,1.342,4.169,1.342c2.303,0,4.169-0.601,4.169-1.342
						c0-0.741-1.867-1.342-4.169-1.342C257.957,483.541,256.09,484.142,256.09,484.883z"/>
					<path style="opacity:0.3;fill:#FCDFDE;" d="M248.397,481.161c0,0.6,1.511,1.086,3.376,1.086c1.864,0,3.376-0.486,3.376-1.086
						s-1.511-1.086-3.376-1.086C249.908,480.075,248.397,480.561,248.397,481.161z"/>
				</g>
				<g>
					<path style="opacity:0.3;fill:#FCDFDE;" d="M462.991,469.533c0,0.741,1.867,1.342,4.169,1.342c2.302,0,4.169-0.601,4.169-1.342
						c0-0.741-1.867-1.342-4.169-1.342C464.857,468.191,462.991,468.792,462.991,469.533z"/>
					<path style="opacity:0.3;fill:#FCDFDE;" d="M457.975,474.549c0,0.741,1.866,1.342,4.169,1.342c2.303,0,4.169-0.601,4.169-1.342
						c0-0.741-1.867-1.342-4.169-1.342C459.841,473.207,457.975,473.808,457.975,474.549z"/>
					<path style="opacity:0.3;fill:#FCDFDE;" d="M450.281,470.827c0,0.6,1.511,1.086,3.376,1.086c1.864,0,3.376-0.486,3.376-1.086
						c0-0.6-1.511-1.086-3.376-1.086C451.792,469.741,450.281,470.227,450.281,470.827z"/>
				</g>
			</g>
		</g>
	</g>
	<g>
		<g>
			<g>
				
					<path style="fill:#241A14;stroke:#FAF4E8;stroke-width:0.25;stroke-linecap:round;stroke-linejoin:round;stroke-miterlimit:10;" d="
					M201.109,396.839c-3.727-0.051-5.666-4.411-3.252-7.252c4.507-5.304,12.322-11.623,23.977-11.623
					c13.514,0,22.636,8.862,27.158,14.66c1.546,1.982,0.09,4.871-2.424,4.836L201.109,396.839z"/>
				<g>
					<path style="fill:#EDBAAE;" d="M322.507,332.241c0,0-2.716,15.653-3.91,31.328l-62.628,8.258c0,0-24.551-5.396-34.816-2.553
						c-10.265,2.843-26.854,15.177-27.234,19.174c-0.626,6.584,18.684,8.363,23.404,5.18c4.954-3.341,9.141-5.915,13.721-5.915
						c4.58,0,15.792,6.513,25.821,1.143l75.432,7.816c1.55,0.275,3.154,0.437,4.779,0.495l0.328,0.034l-0.005-0.024
						c8.664,0.24,17.745-2.372,21.246-5.873c7.264-7.264,8.487-59.063,8.487-59.063H322.507z"/>
					<path style="fill:#EDBAAE;" d="M241.885,379.718c0,0-17.366,11.553-15.827,14.212c1.538,2.659,1.623,3.811,5.738,2.983
						c4.115-0.828,19.571-6.269,19.586-6.973c0.015-0.704-8.746-10.066-8.746-10.066"/>
					
						<path style="fill:none;stroke:#241A14;stroke-width:0.5;stroke-linecap:round;stroke-linejoin:round;stroke-miterlimit:10;" d="
						M204.706,394.613c0,0,10.662-8.518,16.107-11.496c6.213-3.398,10.383-3.83,10.383-3.83"/>
					
						<path style="fill:none;stroke:#241A14;stroke-width:0.5;stroke-linecap:round;stroke-linejoin:round;stroke-miterlimit:10;" d="
						M198.757,393.552c0,0,11.502-10.52,15.757-13.158c4.255-2.638,12-5.957,12-5.957"/>
					
						<path style="fill:none;stroke:#241A14;stroke-width:0.5;stroke-linecap:round;stroke-linejoin:round;stroke-miterlimit:10;" d="
						M194.445,390.52c0,0,11.218-11.403,16.75-14.382c5.532-2.979,10.383-4.851,10.383-4.851"/>
					
						<path style="fill:none;stroke:#241A14;stroke-width:0.5;stroke-linecap:round;stroke-linejoin:round;stroke-miterlimit:10;" d="
						M229.153,388.448c0,0,12.674-4.6,16.422-5.391"/>
				</g>
			</g>
			<path style="fill:none;stroke:#241A14;stroke-width:0.5;stroke-linecap:round;stroke-linejoin:round;stroke-miterlimit:10;" d="
				M318.597,363.568c0,0,5.963,0.712,8.832,4.209"/>
		</g>
		<g>
			<path style="fill:#739299;" d="M355.405,257.465c0,0-16.975,13.743-26.507,43.02c-9.532,29.277-10.894,43.234-10.894,43.234
				h25.872L355.405,257.465z"/>
			
				<line style="fill:none;stroke:#241A14;stroke-width:0.5;stroke-linecap:round;stroke-linejoin:round;stroke-miterlimit:10;" x1="318.805" y1="338.488" x2="330.911" y2="338.488"/>
		</g>
		<g>
			<g>
				<path style="fill:#241A14;" d="M423.616,213.84c0,0,15.188-35.968,17.375-44.297c2.187-8.329-12.294-4.5-12.294-4.5
					l-7.483,19.746L423.616,213.84z"/>
				<path style="fill:#241A14;" d="M360.701,147c0,0-2.369,15.98,0.403,22.543L367.132,147H360.701z"/>
				<path style="fill:#F1C3B5;" d="M421.193,206.72c-4.34,7.71-10.07,14.93-17.82,19.22c-7.74,4.29-17.76,5.17-25.33,0.6
					c-4.38-2.64-7.52-6.75-9.84-11.37c-0.22-0.44-0.44-0.88-0.64-1.33c-1.02-2.18-1.86-4.46-2.58-6.73
					c-1.95-6.16-3.21-12.51-3.83-18.94c0-0.05-0.01-0.1-0.01-0.15c-0.36-3.82-0.5-7.67-0.42-11.51c0.04-1.68,0.11-3.36,0.23-5.03
					c0.04-0.65,0.09-1.29,0.15-1.94c0.76-8.56,2.62-17.22,7.17-24.51c5.26-8.46,15.53-14.78,25.74-14.26
					c18-0.17,32.06,16.11,35.46,32.71C432.483,178.17,428.553,193.66,421.193,206.72z"/>
				<path style="fill:#241A14;" d="M423.815,125.553c0,0-13.215,13.277-11.172,22.723c2.042,9.447,11.172,12.766,11.172,12.766
					s-1.961,15.578,3.391,22.087l11.561-7.091c0,0,9.351-23.549,4.514-35.805c-4.837-12.255-16.276-16.698-16.276-16.698
					L423.815,125.553z"/>
				<path style="fill:#241A14;" d="M346.257,136.297c0.102,0.641,0.249,1.286,0.441,1.932c2.276,7.633,11.235,13.27,19.108,11.438
					c13.645-3.177,18.241-10.326,18.241-10.326s10.527,13.284,28.753,3.833l14.206-19.638c0,0-7.98-13.429-21.512-10.876
					c-13.532,2.553-17.106,6.255-27.829,4.979c-6.727-0.801-14.201-1.591-20.635,1.072
					C349.979,121.629,345.046,128.715,346.257,136.297z"/>
				<g>
					<path style="fill:#F1C3B5;" d="M424.573,200.25l-1.86,39.81c-11.16,15.53-29.79,24.2-37.94,23.46
						c-8.16-0.74-5.59-10.12-5.59-10.12c1.4-2.61,2.95-8.74,4.2-14.49c0.82-3.76,1.51-7.36,1.94-9.69c0.3-1.67,0.48-2.7,0.48-2.7
						L424.573,200.25z"/>
					<path style="fill:#FF7171;" d="M412.413,218.86c-0.25,0.8-6.026,20.055-16.817,22.991c-5.511,1.5-10.813,1.169-12.213-2.941
						c0.82-3.76,1.51-7.36,1.94-9.69C385.323,229.22,398.163,233.62,412.413,218.86z"/>
				</g>
				<g>
					<g>
						<g>
							<path style="fill:#241A14;" d="M393.336,171.082c1.788-1.3,3.685-2.045,5.755-2.522c2.053-0.46,4.233-0.556,6.384-0.226
								c1.082,0.128,2.132,0.469,3.175,0.791c0.999,0.455,2.034,0.835,2.917,1.489c1.875,1.121,3.352,2.754,4.474,4.504
								c0.487,0.76,0.266,1.77-0.494,2.257c-0.518,0.332-1.152,0.335-1.658,0.063l-0.182-0.099c-1.598-0.865-2.979-1.78-4.502-2.366
								c-0.729-0.352-1.512-0.549-2.253-0.834c-0.782-0.174-1.536-0.426-2.338-0.531c-1.581-0.282-3.224-0.413-4.924-0.389
								c-1.677,0.025-3.488,0.201-5.186,0.376l-0.2,0.021c-0.771,0.079-1.461-0.482-1.54-1.253
								C392.712,171.847,392.946,171.367,393.336,171.082z"/>
							<path style="fill:#241A14;" d="M378.143,172.58c-0.26,0.38-0.69,0.57-1.11,0.54l-0.18-0.01c-1.51-0.11-3.11-0.21-4.6-0.19
								c-1.5,0.03-2.95,0.19-4.34,0.48c-0.7,0.12-1.36,0.36-2.05,0.54c-0.64,0.27-1.33,0.46-1.96,0.8c-1.09,0.46-2.09,1.1-3.18,1.77
								c0.04-1.68,0.11-3.36,0.23-5.03c0.24-0.19,0.48-0.37,0.74-0.53c0.76-0.6,1.66-0.97,2.53-1.4c0.92-0.31,1.83-0.64,2.79-0.78
								c1.89-0.36,3.82-0.33,5.65,0.02c1.84,0.36,3.53,0.97,5.15,2.07C378.383,171.24,378.533,172.01,378.143,172.58z"/>
						</g>
						<g>
							<path style="fill:#241A14;" d="M401.772,181.356c0,1.264-1.025,2.288-2.288,2.288c-1.264,0-2.288-1.025-2.288-2.288
								c0-1.264,1.024-2.288,2.288-2.288C400.747,179.068,401.772,180.092,401.772,181.356z"/>
							<path style="fill:#241A14;" d="M374.109,182.501c0,1.264-1.025,2.288-2.288,2.288c-1.264,0-2.288-1.024-2.288-2.288
								c0-1.264,1.025-2.288,2.288-2.288C373.084,180.212,374.109,181.237,374.109,182.501z"/>
						</g>
					</g>
					<linearGradient id="SVGID_1_" gradientUnits="userSpaceOnUse" x1="433.23" y1="229.5396" x2="401.4428" y2="188.1779">
						<stop  offset="0" style="stop-color:#F1C3B5;stop-opacity:0"/>
						<stop  offset="1" style="stop-color:#FF7171;stop-opacity:0.3"/>
					</linearGradient>
					<circle style="fill:url(#SVGID_1_);" cx="409.606" cy="198.799" r="14.01"/>
					
						<linearGradient id="SVGID_00000151506836725456109400000002417350827345965207_" gradientUnits="userSpaceOnUse" x1="386.8354" y1="226.3476" x2="359.1044" y2="190.2638">
						<stop  offset="0" style="stop-color:#F1C3B5;stop-opacity:0"/>
						<stop  offset="1" style="stop-color:#FF7171;stop-opacity:0.3"/>
					</linearGradient>
					<path style="fill:url(#SVGID_00000151506836725456109400000002417350827345965207_);" d="M374.113,201.99
						c0,5-2.62,9.38-6.55,11.85c-1.02-2.18-1.86-4.46-2.58-6.73c-1.95-6.16-3.21-12.51-3.83-18.94c0-0.05-0.01-0.1-0.01-0.15
						C368.403,188.55,374.113,194.6,374.113,201.99z"/>
					<g>
						
							<path style="fill:none;stroke:#241A14;stroke-width:0.5;stroke-linecap:round;stroke-linejoin:round;stroke-miterlimit:10;" d="
							M382.228,178.664c0.362,2.7,0.722,5.423,0.533,8.141c-0.19,2.718-0.971,5.464-2.673,7.592
							c-0.945,1.181-2.221,2.297-2.313,3.807c-0.072,1.191,0.663,2.316,1.621,3.028c0.958,0.712,2.118,1.087,3.255,1.45"/>
						
							<path style="fill:none;stroke:#241A14;stroke-width:0.5;stroke-linecap:round;stroke-linejoin:round;stroke-miterlimit:10;" d="
							M378.797,208.404c0,0,10.407,4.468,22.509-3.319"/>
						
							<path style="fill:none;stroke:#241A14;stroke-width:0.25;stroke-linecap:round;stroke-linejoin:round;stroke-miterlimit:10;" d="
							M386.855,213.043c0,0,5.565,0.34,8.74-1.787"/>
					</g>
				</g>
				<g>
					<path style="fill:#F1C3B5;" d="M426.52,184.7c0,0,4.334-11.884,12.247-8.661c7.913,3.222,3.216,28.101-6.752,26.822
						c-9.968-1.279-8.399-5.818-8.399-5.818L426.52,184.7z"/>
					<g>
						
							<path style="fill:none;stroke:#241A14;stroke-width:0.456;stroke-linecap:round;stroke-linejoin:round;stroke-miterlimit:10;" d="
							M428.994,187.127c0,0,3.869-8.725,9.249-6.51c5.38,2.215,0.96,22.171-9.529,16.471"/>
						
							<path style="fill:none;stroke:#241A14;stroke-width:0.456;stroke-linecap:round;stroke-linejoin:round;stroke-miterlimit:10;" d="
							M431.626,183.013c0,0-3.903,7.95,1.027,15.083"/>
					</g>
				</g>
				<path style="fill:#241A14;" d="M423.596,188.177c0.094,0.692,0.539,1.606,1.194,1.364c0.196-0.073,0.339-0.242,0.461-0.412
					c0.813-1.126,1.154-2.513,1.655-3.808c0.765-1.975,1.922-3.768,2.944-5.623c1.021-1.855,1.925-3.833,2.107-5.943
					c0.182-2.11-0.466-4.387-2.101-5.734c-1.352-1.113-3.57-1.417-5.11-0.482c-1.654,1.005-1.468,2.895-1.606,4.673
					C422.726,177.53,422.878,182.892,423.596,188.177z"/>
			</g>
			<g>
				<path style="fill:#739299;" d="M381.834,245.487c0,0-5.446,16.169,2.978,16.407c8.424,0.238,38.101-24.511,38.101-24.511
					s39.261,19.149,48.963,36.511c9.702,17.362,12.511,66.638,9.958,84.766c-2.553,18.128-7.575,35.871-7.575,35.871l-149.655-1.339
					c0,0,9.801-124.154,32.011-136.523C377.493,245.043,381.834,245.487,381.834,245.487z"/>
				<g>
					
						<path style="fill:none;stroke:#241A14;stroke-width:0.5;stroke-linecap:round;stroke-linejoin:round;stroke-miterlimit:10;" d="
						M344.009,279.936c0,0-13.786,52.732-15.111,74.553c-1.325,21.822-4.293,33.702-4.293,33.702"/>
					
						<path style="fill:none;stroke:#241A14;stroke-width:0.5;stroke-linecap:round;stroke-linejoin:round;stroke-miterlimit:10;" d="
						M333.947,322.818c0,0,3.802-25.52,4.993-30.797"/>
					
						<path style="fill:none;stroke:#241A14;stroke-width:0.5;stroke-linecap:round;stroke-linejoin:round;stroke-miterlimit:10;" d="
						M347.025,272.106c0,0,5.337-13.467,14.118-17.91"/>
				</g>
				<path style="opacity:0.42;fill:#739299;" d="M430.491,309.733c0,0-18.87,56.075-19.636,71.139h27.319L430.491,309.733z"/>
				<path style="fill:none;stroke:#241A14;stroke-width:0.5;stroke-linecap:round;stroke-linejoin:round;stroke-miterlimit:10;" d="
					M378.36,247.547c0,0-8.461,17.519,1.932,20.273c10.393,2.754,24.588-4.695,48.257-27.523"/>
				<g>
					<path style="fill:#F1C3B5;" d="M435.477,331.596c0,0-2.928,16.871-4.214,33.766l-67.503,8.901c0,0-28.394-8.029-39.458-4.965
						c-11.064,3.064-32.34,21.87-29.617,25.233c2.723,3.363,22.638,6.937,28.426,4.895c5.787-2.043,8.851-4.895,13.787-4.895
						c4.936,0,17.018,3.873,27.828-1.914l81.305,8.424c1.67,0.296,3.399,0.471,5.149,0.534l0.355,0.037l-0.006-0.026
						c9.338,0.258,19.126-2.557,22.899-6.33c7.83-7.83,9.147-63.66,9.147-63.66H435.477z"/>
					<g>
						
							<path style="fill:none;stroke:#241A14;stroke-width:0.5;stroke-linecap:round;stroke-linejoin:round;stroke-miterlimit:10;" d="
							M315.49,399.94c0,0,8.769-11.451,18.088-14.898"/>
						
							<path style="fill:none;stroke:#241A14;stroke-width:0.5;stroke-linecap:round;stroke-linejoin:round;stroke-miterlimit:10;" d="
							M306.92,398.853c0,0,7.042-9.939,13.935-14.534c6.894-4.596,7.737-4.849,7.737-4.849"/>
						
							<path style="fill:none;stroke:#241A14;stroke-width:0.5;stroke-linecap:round;stroke-linejoin:round;stroke-miterlimit:10;" d="
							M300.046,396.556c0,0,9.192-14.407,22.851-21.556"/>
					</g>
					
						<path style="fill:none;stroke:#241A14;stroke-width:0.5;stroke-linecap:round;stroke-linejoin:round;stroke-miterlimit:10;" d="
						M431.263,365.362c0,0,14.699-1.979,27.848,1.851"/>
				</g>
				<g>
					<path style="fill:#739299;" d="M450.685,269.298c0,0-19.734,14.014-20.742,49.807c-0.987,35.066-2.938,42.202-2.938,42.202
						l56.871,0.927c0,0,0.371-61.481-8.878-81.038C465.749,261.638,450.685,269.298,450.685,269.298z"/>
					
						<path style="fill:none;stroke:#241A14;stroke-width:0.5;stroke-linecap:round;stroke-linejoin:round;stroke-miterlimit:10;" d="
						M449.749,259.17c0,0-15.918,8.17-18.342,40.17s-4.402,61.967-4.402,61.967l56.871,0.927"/>
					
						<path style="fill:none;stroke:#241A14;stroke-width:0.5;stroke-linecap:round;stroke-linejoin:round;stroke-miterlimit:10;" d="
						M429.238,292.021c0,0,0.034,36.329-0.461,43.426"/>
					
						<line style="fill:none;stroke:#241A14;stroke-width:0.5;stroke-linecap:round;stroke-linejoin:round;stroke-miterlimit:10;" x1="427.706" y1="355.34" x2="483.876" y2="355.34"/>
				</g>
			</g>
		</g>
	</g>
	<g>
		<g>
			<rect x="24.397" y="211.255" style="fill:#241A14;" width="267.55" height="175.185"/>
			<g>
				<path style="fill:#FAF4E8;" d="M262.159,365.719h-69.6c-0.567,0-1.03-0.464-1.03-1.03l0,0c0-0.566,0.463-1.03,1.03-1.03h69.6
					c0.566,0,1.03,0.464,1.03,1.03l0,0C263.189,365.256,262.725,365.719,262.159,365.719z"/>
				<path style="fill:#FAF4E8;" d="M262.159,369.829h-69.6c-0.567,0-1.03-0.464-1.03-1.03l0,0c0-0.566,0.463-1.03,1.03-1.03h69.6
					c0.566,0,1.03,0.464,1.03,1.03l0,0C263.189,369.365,262.725,369.829,262.159,369.829z"/>
				<path style="fill:#FAF4E8;" d="M262.159,361.61h-69.6c-0.567,0-1.03-0.463-1.03-1.03l0,0c0-0.567,0.463-1.03,1.03-1.03h69.6
					c0.566,0,1.03,0.464,1.03,1.03l0,0C263.189,361.146,262.725,361.61,262.159,361.61z"/>
			</g>
			<g>
				<path style="fill:#241A14;" d="M89.325,418.853c-0.045,0-0.087-0.02-0.115-0.057c-0.027-0.036-0.036-0.083-0.023-0.126
					l37.79-132.632c1.976-6.935,8.392-11.777,15.602-11.777c4.617,0,9.028,1.976,12.102,5.42c3.075,3.445,4.538,8.052,4.015,12.64
					L144.29,418.727c-0.008,0.072-0.07,0.127-0.143,0.127H89.325z"/>
				<path style="fill:#FAF4E8;" d="M142.579,274.406c9.601,0,17.062,8.36,15.975,17.899L144.147,418.71H89.325l37.791-132.631
					C129.084,279.17,135.396,274.406,142.579,274.406 M142.579,274.118c-7.274,0-13.746,4.886-15.74,11.881L89.049,418.631
					c-0.025,0.087-0.007,0.18,0.047,0.252c0.054,0.072,0.139,0.114,0.23,0.114h54.822c0.146,0,0.269-0.11,0.286-0.255
					l14.406-126.405c0.528-4.628-0.949-9.275-4.05-12.751C151.687,276.111,147.237,274.118,142.579,274.118L142.579,274.118z"/>
			</g>
			<path style="fill:#241A14;" d="M215.758,423.208H38.958l0,0c0-3.175,2.574-5.749,5.749-5.749H210.01
				C213.185,417.459,215.758,420.033,215.758,423.208L215.758,423.208z"/>
			<g>
				<path style="fill:#FAF4E8;" d="M46.251,373.737c0,1.784-1.446,3.231-3.23,3.231s-3.231-1.446-3.231-3.231
					s1.446-3.231,3.231-3.231S46.251,371.953,46.251,373.737z"/>
				<path style="fill:#FAF4E8;" d="M59.173,373.737c0,1.784-1.446,3.231-3.231,3.231c-1.784,0-3.231-1.446-3.231-3.231
					s1.446-3.231,3.231-3.231C57.727,370.506,59.173,371.953,59.173,373.737z"/>
				<path style="fill:#FAF4E8;" d="M71.019,373.737c0,1.784-1.446,3.231-3.231,3.231c-1.784,0-3.23-1.446-3.23-3.231
					s1.446-3.231,3.23-3.231C69.573,370.506,71.019,371.953,71.019,373.737z"/>
			</g>
		</g>
		<g>
			<g>
				<ellipse style="opacity:0.63;fill:#FCDFDE;" cx="393.484" cy="454.288" rx="51.115" ry="4.159"/>
				<g>
					<path style="fill:#D88C84;" d="M436.078,454.289h-5.198c-2.344,0-4.263-1.918-4.263-4.263l0,0c0-2.345,1.918-4.263,4.263-4.263
						h5.198c2.344,0,4.263,1.918,4.263,4.263l0,0C440.34,452.371,438.422,454.289,436.078,454.289z"/>
					<rect x="351.735" y="445.764" style="fill:#F5BB60;" width="82.041" height="8.525"/>
					<rect x="430.88" y="445.764" style="fill:#739299;" width="2.896" height="8.525"/>
					<polygon style="fill:#FAF4E8;" points="351.739,445.761 351.739,454.288 345.729,451.735 342.919,450.55 345.277,449.267 					
						"/>
					<path style="fill:#739299;" d="M345.729,451.735l-2.81-1.185l2.358-1.283C345.839,450.257,345.851,451.112,345.729,451.735z"/>
					
						<line style="fill:none;stroke:#739299;stroke-width:0.3054;stroke-miterlimit:10;" x1="351.739" y1="447.323" x2="430.88" y2="447.323"/>
					
						<line style="fill:none;stroke:#739299;stroke-width:0.3054;stroke-miterlimit:10;" x1="351.739" y1="451.735" x2="430.88" y2="451.735"/>
				</g>
			</g>
			<g>
				<ellipse style="opacity:0.63;fill:#FCDFDE;" cx="229.617" cy="462.921" rx="77.78" ry="7.623"/>
				<g>
					<g>
						<g>
							<path style="fill:#D88C84;" d="M306.996,430.84c0,0.422-0.354,0.776-0.776,0.776H194.138c-6.564,0-11.884-5.32-11.884-11.896
								v-8.745c0-6.576,5.331-11.907,11.907-11.907h111.762c0.594,0,1.073,0.479,1.073,1.062c0,0.594-0.479,1.073-1.073,1.073
								h-12.535c-0.582,0-1.062,0.479-1.062,1.062v26.725c0,0.594,0.479,1.073,1.062,1.073h12.831
								C306.642,430.063,306.996,430.417,306.996,430.84z"/>
							<path style="fill:#FFFFFF;" d="M305.443,401.204v28.859h-88.895c-3.105,0-5.879-1.427-7.694-3.664
								c-1.381-1.712-2.215-3.87-2.215-6.244v-9.042c0-2.9,1.256-5.525,3.242-7.34l0.114-0.091c0.261-0.23,0.537-0.442,0.821-0.644
								l0.024-0.018c0,0,0.001,0.002,0.001,0.002c1.614-1.141,3.581-1.817,5.707-1.817H305.443z"/>
							<g>
								<path style="fill:#D88C84;" d="M306.996,430.84c0,0.422-0.354,0.776-0.776,0.776h-95.574
									c-4.372-0.776-8.311-3.448-8.311-17.58c0-14.144,9.909-14.966,9.909-14.966h93.679c0.594,0,1.073,0.479,1.073,1.062
									c0,0.594-0.479,1.073-1.073,1.073h-12.535c-0.582,0-1.062,0.479-1.062,1.062v26.725c0,0.594,0.479,1.073,1.062,1.073h12.831
									C306.642,430.063,306.996,430.417,306.996,430.84z"/>
								<path style="opacity:0.41;fill:#D88C84;" d="M306.996,430.84c0,0.422-0.354,0.776-0.776,0.776h-95.574
									c-4.372-0.776-8.311-3.448-8.311-17.58c0-14.144,9.909-14.966,9.909-14.966h93.679c0.594,0,1.073,0.479,1.073,1.062
									c0,0.594-0.479,1.073-1.073,1.073h-12.535c-0.582,0-1.062,0.479-1.062,1.062v26.725c0,0.594,0.479,1.073,1.062,1.073h12.831
									C306.642,430.063,306.996,430.417,306.996,430.84z"/>
								<path style="fill:#D88C84;" d="M306.996,430.84c0,0.422-0.354,0.776-0.776,0.776h-2.203c-0.423,0-0.776-0.354-0.776-0.776
									c0-0.423,0.354-0.777,0.776-0.777h2.203C306.642,430.063,306.996,430.417,306.996,430.84z"/>
							</g>
							<g style="opacity:0.44;">
								<path style="fill:#D88C84;" d="M306.996,430.84c0,0.422-0.354,0.776-0.776,0.776h-95.574
									c-4.372-0.776-8.311-3.448-8.311-17.58c0-14.144,9.909-14.966,9.909-14.966h93.679c0.594,0,1.073,0.479,1.073,1.062
									c0,0.594-0.479,1.073-1.073,1.073h-12.535c-0.582,0-1.062,0.479-1.062,1.062v26.725c0,0.594,0.479,1.073,1.062,1.073h12.831
									C306.642,430.063,306.996,430.417,306.996,430.84z"/>
								<path style="opacity:0.41;fill:#D88C84;" d="M306.996,430.84c0,0.422-0.354,0.776-0.776,0.776h-95.574
									c-4.372-0.776-8.311-3.448-8.311-17.58c0-14.144,9.909-14.966,9.909-14.966h93.679c0.594,0,1.073,0.479,1.073,1.062
									c0,0.594-0.479,1.073-1.073,1.073h-12.535c-0.582,0-1.062,0.479-1.062,1.062v26.725c0,0.594,0.479,1.073,1.062,1.073h12.831
									C306.642,430.063,306.996,430.417,306.996,430.84z"/>
								<path style="opacity:0.41;fill:#D88C84;" d="M306.996,430.84c0,0.422-0.354,0.776-0.776,0.776h-2.203
									c-0.423,0-0.776-0.354-0.776-0.776c0-0.423,0.354-0.777,0.776-0.777h2.203C306.642,430.063,306.996,430.417,306.996,430.84z
									"/>
							</g>
							<g>
								<path style="fill:#FFFFFF;" d="M305.443,401.204v28.859h-88.895c-2.546,0-4.875-0.959-6.633-2.557
									c-0.114-0.091-0.228-0.194-0.331-0.297c-0.263-0.251-0.502-0.525-0.73-0.81c-0.194-0.251-0.388-0.514-0.559-0.776
									c-0.183-0.263-0.342-0.536-0.491-0.822c-0.057-0.103-0.114-0.194-0.16-0.297c-0.012-0.023-0.023-0.034-0.023-0.057
									c-0.068-0.148-0.137-0.285-0.194-0.434c-0.126-0.274-0.228-0.571-0.32-0.868c-0.114-0.342-0.205-0.697-0.274-1.05
									c-0.023-0.091-0.046-0.194-0.057-0.297c-0.091-0.536-0.137-1.084-0.137-1.644v-9.167c0.011-0.445,0.046-0.879,0.103-1.301
									c0.023-0.148,0.046-0.297,0.08-0.445c0.034-0.228,0.091-0.457,0.148-0.673c0.023-0.091,0.057-0.194,0.08-0.285
									c0.068-0.217,0.137-0.422,0.217-0.628c0.068-0.217,0.16-0.423,0.251-0.616c0.183-0.4,0.388-0.788,0.616-1.165
									c0.057-0.103,0.126-0.194,0.195-0.297c0.114-0.171,0.228-0.331,0.354-0.491c0.103-0.125,0.205-0.262,0.308-0.388
									c0.274-0.331,0.571-0.639,0.891-0.925l0.114-0.091l0.651-0.514l0.194-0.148c0.08-0.057,0.148-0.103,0.228-0.148
									c1.564-1.05,3.459-1.667,5.48-1.667H305.443z"/>
								<g>
									<path style="fill:#FFE9E9;" d="M305.443,402.871v0.297h-94.797c0.057-0.046,0.114-0.091,0.171-0.125l0.023-0.023
										c0.08-0.057,0.148-0.103,0.228-0.148H305.443z"/>
									<path style="fill:#FFE9E9;" d="M305.443,405.576v0.297h-97.309c0.069-0.103,0.126-0.194,0.195-0.297H305.443z"/>
									<path style="fill:#FFE9E9;" d="M305.443,408.282v0.285H206.97c0.023-0.091,0.057-0.194,0.08-0.285H305.443z"/>
									<rect x="206.639" y="410.987" style="fill:#FFE9E9;" width="98.804" height="0.286"/>
									<rect x="206.639" y="413.693" style="fill:#FFE9E9;" width="98.804" height="0.286"/>
									<rect x="206.639" y="416.398" style="fill:#FFE9E9;" width="98.804" height="0.285"/>
									<rect x="206.639" y="419.104" style="fill:#FFE9E9;" width="98.804" height="0.285"/>
									<rect x="206.639" y="421.798" style="fill:#FFE9E9;" width="98.804" height="0.297"/>
									<path style="fill:#FFE9E9;" d="M305.443,424.504v0.297h-97.64c-0.057-0.103-0.114-0.194-0.16-0.297H305.443z"/>
									<path style="fill:#FFE9E9;" d="M305.443,427.209v0.297h-95.528c-0.114-0.091-0.228-0.194-0.331-0.297H305.443z"/>
								</g>
								<path style="fill:#241A14;" d="M212.404,416.398c0,0.103,0,0.194-0.012,0.285c-0.046,0.822-0.126,1.632-0.251,2.42
									c-0.011,0.103-0.023,0.194-0.046,0.285c-0.137,0.834-0.331,1.644-0.582,2.409c-0.023,0.103-0.057,0.206-0.092,0.297
									c-0.285,0.856-0.639,1.667-1.096,2.409c-0.057,0.103-0.114,0.194-0.183,0.297c-0.365,0.582-0.799,1.119-1.29,1.598
									c-0.194-0.251-0.388-0.514-0.559-0.776c-0.183-0.263-0.342-0.536-0.491-0.822c-0.057-0.103-0.114-0.194-0.16-0.297
									c-0.012-0.023-0.023-0.034-0.023-0.057c-0.068-0.148-0.137-0.285-0.194-0.434c-0.126-0.274-0.228-0.571-0.32-0.868
									c-0.114-0.342-0.205-0.697-0.274-1.05c-0.023-0.091-0.046-0.194-0.057-0.297c-0.091-0.536-0.137-1.084-0.137-1.644v-9.167
									c0.011-0.445,0.046-0.879,0.103-1.301c0.023-0.148,0.046-0.297,0.08-0.445c0.034-0.228,0.091-0.457,0.148-0.673
									c0.023-0.091,0.057-0.194,0.08-0.285c0.068-0.217,0.137-0.422,0.217-0.628c0.068-0.217,0.16-0.423,0.251-0.616
									c0.183-0.4,0.388-0.788,0.616-1.165c0.057-0.103,0.126-0.194,0.195-0.297c0.114-0.171,0.228-0.331,0.354-0.491
									c0.103-0.125,0.205-0.262,0.308-0.388c0.274-0.331,0.571-0.639,0.891-0.925l0.114-0.091l0.651-0.514l0.194-0.148
									c0,0,0.011,0.045,0.034,0.148c0.091,0.331,0.308,1.187,0.559,2.409c0.023,0.103,0.045,0.194,0.057,0.297
									c0.148,0.708,0.297,1.518,0.422,2.409c0.023,0.091,0.034,0.183,0.045,0.285c0.114,0.765,0.217,1.575,0.297,2.42
									c0.011,0.103,0.023,0.195,0.023,0.286c0.068,0.788,0.126,1.598,0.148,2.42c0.012,0.091,0.012,0.183,0,0.286
									C212.449,414.777,212.449,415.588,212.404,416.398z"/>
							</g>
						</g>
						<polygon style="fill:#F5BB60;" points="227.913,408.239 237.414,408.239 237.414,422.446 232.664,419.92 227.913,421.767 
													"/>
					</g>
					<g>
						<g>
							<path style="fill:#21386E;" d="M287.867,463.697c0,0.422-0.354,0.776-0.776,0.776H175.009
								c-6.564,0-11.884-5.32-11.884-11.895v-8.745c0-6.576,5.331-11.907,11.906-11.907h111.762c0.594,0,1.073,0.479,1.073,1.062
								c0,0.594-0.479,1.073-1.073,1.073h-12.535c-0.582,0-1.062,0.479-1.062,1.062v26.725c0,0.594,0.479,1.073,1.062,1.073h12.831
								C287.513,462.921,287.867,463.275,287.867,463.697z"/>
							<path style="fill:#FFFFFF;" d="M286.314,434.061v28.859h-88.895c-3.105,0-5.879-1.427-7.695-3.664
								c-1.381-1.712-2.214-3.87-2.214-6.244v-9.042c0-2.9,1.256-5.525,3.242-7.34l0.114-0.091c0.261-0.23,0.537-0.442,0.821-0.644
								l0.023-0.019c0,0,0.001,0.002,0.001,0.002c1.614-1.141,3.581-1.817,5.707-1.817H286.314z"/>
							<g>
								<path style="fill:#06A6A4;" d="M287.867,463.697c0,0.422-0.354,0.776-0.776,0.776h-95.574
									c-4.372-0.776-8.311-3.448-8.311-17.58c0-14.144,9.909-14.966,9.909-14.966h93.679c0.594,0,1.073,0.479,1.073,1.062
									c0,0.594-0.479,1.073-1.073,1.073h-12.535c-0.582,0-1.062,0.479-1.062,1.062v26.725c0,0.594,0.479,1.073,1.062,1.073h12.831
									C287.513,462.921,287.867,463.275,287.867,463.697z"/>
								<path style="fill:#00CCBE;" d="M287.867,463.697c0,0.422-0.354,0.776-0.776,0.776h-2.203c-0.423,0-0.776-0.354-0.776-0.776
									c0-0.423,0.354-0.777,0.776-0.777h2.203C287.513,462.921,287.867,463.275,287.867,463.697z"/>
							</g>
							<g>
								<path style="fill:#0397C7;" d="M287.867,463.697c0,0.422-0.354,0.776-0.776,0.776h-2.203c-0.423,0-0.776-0.354-0.776-0.776
									c0-0.423,0.354-0.777,0.776-0.777h2.203C287.513,462.921,287.867,463.275,287.867,463.697z"/>
							</g>
							<g>
								<path style="fill:#FFFFFF;" d="M286.314,434.061v28.859h-88.895c-2.546,0-4.875-0.959-6.633-2.557
									c-0.114-0.091-0.228-0.194-0.331-0.297c-0.263-0.251-0.502-0.525-0.731-0.81c-0.194-0.251-0.388-0.514-0.559-0.776
									c-0.183-0.263-0.342-0.537-0.491-0.822c-0.057-0.103-0.114-0.194-0.16-0.297c-0.012-0.023-0.023-0.034-0.023-0.057
									c-0.068-0.148-0.137-0.285-0.194-0.434c-0.126-0.274-0.228-0.571-0.32-0.868c-0.114-0.343-0.205-0.697-0.274-1.051
									c-0.023-0.091-0.045-0.194-0.057-0.297c-0.091-0.537-0.137-1.085-0.137-1.644v-9.167c0.012-0.445,0.046-0.879,0.103-1.301
									c0.023-0.148,0.046-0.297,0.08-0.445c0.034-0.228,0.091-0.457,0.148-0.673c0.023-0.091,0.057-0.194,0.08-0.285
									c0.068-0.217,0.137-0.422,0.217-0.628c0.068-0.217,0.16-0.423,0.251-0.617c0.183-0.4,0.388-0.788,0.616-1.165
									c0.057-0.103,0.126-0.194,0.194-0.297c0.114-0.171,0.228-0.331,0.354-0.491c0.103-0.125,0.205-0.262,0.308-0.388
									c0.274-0.331,0.571-0.639,0.891-0.925l0.114-0.091l0.651-0.514l0.194-0.148c0.08-0.057,0.148-0.103,0.228-0.148
									c1.564-1.05,3.459-1.667,5.48-1.667H286.314z"/>
								<g>
									<path style="fill:#FFE9E9;" d="M286.314,435.728v0.297h-94.798c0.057-0.046,0.114-0.091,0.171-0.125l0.023-0.023
										c0.08-0.057,0.148-0.103,0.228-0.148H286.314z"/>
									<path style="fill:#FFE9E9;" d="M286.314,438.434v0.297h-97.309c0.069-0.103,0.126-0.194,0.194-0.297H286.314z"/>
									<path style="fill:#FFE9E9;" d="M286.314,441.139v0.285h-98.474c0.023-0.091,0.057-0.194,0.08-0.285H286.314z"/>
									<rect x="187.51" y="443.845" style="fill:#FFE9E9;" width="98.804" height="0.286"/>
									<rect x="187.51" y="446.55" style="fill:#FFE9E9;" width="98.804" height="0.286"/>
									<rect x="187.51" y="449.256" style="fill:#FFE9E9;" width="98.804" height="0.285"/>
									<rect x="187.51" y="451.962" style="fill:#FFE9E9;" width="98.804" height="0.285"/>
									<rect x="187.51" y="454.656" style="fill:#FFE9E9;" width="98.804" height="0.297"/>
									<path style="fill:#FFE9E9;" d="M286.314,457.361v0.297h-97.64c-0.057-0.103-0.114-0.194-0.16-0.297H286.314z"/>
									<path style="fill:#FFE9E9;" d="M286.314,460.067v0.297h-95.528c-0.114-0.091-0.228-0.194-0.331-0.297H286.314z"/>
								</g>
								<path style="fill:#252420;" d="M193.275,449.256c0,0.103,0,0.194-0.011,0.285c-0.046,0.822-0.126,1.632-0.251,2.42
									c-0.011,0.103-0.023,0.194-0.046,0.285c-0.137,0.834-0.331,1.644-0.582,2.409c-0.023,0.103-0.057,0.205-0.092,0.297
									c-0.285,0.856-0.639,1.667-1.096,2.409c-0.057,0.103-0.114,0.194-0.183,0.297c-0.365,0.582-0.799,1.119-1.29,1.598
									c-0.194-0.251-0.388-0.514-0.559-0.776c-0.183-0.263-0.342-0.537-0.491-0.822c-0.057-0.103-0.114-0.194-0.16-0.297
									c-0.012-0.023-0.023-0.034-0.023-0.057c-0.068-0.148-0.137-0.285-0.194-0.434c-0.126-0.274-0.228-0.571-0.32-0.868
									c-0.114-0.343-0.205-0.697-0.274-1.051c-0.023-0.091-0.045-0.194-0.057-0.297c-0.091-0.537-0.137-1.085-0.137-1.644v-9.167
									c0.012-0.445,0.046-0.879,0.103-1.301c0.023-0.148,0.046-0.297,0.08-0.445c0.034-0.228,0.091-0.457,0.148-0.673
									c0.023-0.091,0.057-0.194,0.08-0.285c0.068-0.217,0.137-0.422,0.217-0.628c0.068-0.217,0.16-0.423,0.251-0.617
									c0.183-0.4,0.388-0.788,0.616-1.165c0.057-0.103,0.126-0.194,0.194-0.297c0.114-0.171,0.228-0.331,0.354-0.491
									c0.103-0.125,0.205-0.262,0.308-0.388c0.274-0.331,0.571-0.639,0.891-0.925l0.114-0.091l0.651-0.514l0.194-0.148
									c0,0,0.011,0.045,0.035,0.148c0.091,0.331,0.308,1.187,0.559,2.409c0.023,0.103,0.045,0.194,0.057,0.297
									c0.148,0.708,0.297,1.518,0.422,2.409c0.023,0.091,0.034,0.183,0.046,0.285c0.114,0.765,0.217,1.575,0.297,2.42
									c0.011,0.103,0.023,0.195,0.023,0.286c0.069,0.787,0.126,1.598,0.148,2.42c0.012,0.092,0.012,0.183,0,0.286
									C193.32,447.635,193.32,448.446,193.275,449.256z"/>
							</g>
						</g>
						<polygon style="fill:#D88C84;" points="208.784,443.858 218.617,443.858 218.617,458.065 213.701,455.539 208.784,457.386 
													"/>
					</g>
				</g>
			</g>
			<g>
				<ellipse style="opacity:0.63;fill:#FCDFDE;" cx="82.869" cy="465.863" rx="25.07" ry="4.085"/>
				<g>
					<g>
						<g>
							<path style="fill:#739299;" d="M80.615,434.078c-2.609-9.475-4.817-19.078-6.813-28.698
								c-3.337-16.075-6.654-32.895-5.975-49.391c0.194-4.703,0.639-9.49,2.95-13.688c2.65-4.817,5.5,5.77,5.949,7.273
								c2.141,7.164,3.224,14.758,3.89,22.192C83.491,403.881,80.615,434.078,80.615,434.078z"/>
							
								<line style="fill:none;stroke:#241A14;stroke-width:0.1767;stroke-linecap:round;stroke-linejoin:round;stroke-miterlimit:10;" x1="71.905" y1="341.054" x2="80.729" y2="432.762"/>
						</g>
						<g>
							<path style="fill:#739299;" d="M84.96,430.181c-0.923-9.784-1.429-19.625-1.724-29.445
								c-0.493-16.41-0.838-33.551,2.697-49.678c1.008-4.598,2.278-9.235,5.283-12.968c3.447-4.283,4.414,6.638,4.595,8.197
								c0.864,7.427,0.611,15.094-0.025,22.531C93.038,400.943,84.96,430.181,84.96,430.181z"/>
							
								<line style="fill:none;stroke:#241A14;stroke-width:0.1767;stroke-linecap:round;stroke-linejoin:round;stroke-miterlimit:10;" x1="92.544" y1="337.058" x2="85.301" y2="428.904"/>
						</g>
						<g>
							<path style="fill:#739299;" d="M86.62,433.546c1.292-9.742,3.005-19.446,4.918-29.083
								c3.196-16.103,6.701-32.885,13.76-47.811c2.012-4.255,4.29-8.489,8.054-11.454c4.319-3.402,2.814,7.459,2.642,9.018
								c-0.822,7.431-2.787,14.847-5.073,21.952C101.045,406.862,86.62,433.546,86.62,433.546z"/>
							
								<line style="fill:none;stroke:#241A14;stroke-width:0.1767;stroke-linecap:round;stroke-linejoin:round;stroke-miterlimit:10;" x1="114.878" y1="344.491" x2="87.239" y2="432.378"/>
						</g>
					</g>
					<g>
						<g>
							<path style="fill:#BB5646;" d="M102.782,450.352c-0.035,0.367-0.099,0.735-0.17,1.102v0.014
								c-1.187,6.126-5.526,11.179-11.313,13.313c-1.901,0.7-3.964,1.081-6.127,1.081h-1.76c-1.166,0-2.304-0.106-3.413-0.325
								h-0.007c-1.526-0.297-2.968-0.784-4.325-1.441c0,0,0,0-0.021,0c-0.382-0.205-0.749-0.403-1.116-0.636h-0.014
								c-3.201-1.844-5.731-4.643-7.264-8.013v-0.014c-0.148-0.297-0.283-0.615-0.396-0.933c-0.177-0.452-0.339-0.912-0.473-1.385
								c-0.664-2.219-0.897-4.6-0.608-7.059l0.049-0.452l0.099-0.848l0.862-7.49l0.466-4.084l0.099-0.848l1.632-14.006l0.106-0.954
								l0.933-7.992h30.046l0.233,3.046l0.064,0.905l0.714,9.589l0.071,0.834l0.353,4.749l0.777,10.359l0.064,0.834l0.339,4.515
								l0.198,2.558C102.966,447.992,102.931,449.186,102.782,450.352z"/>
							<path style="fill:#D88C84;" d="M82.869,409.381c-0.014,0.078-0.028,0.163-0.042,0.24c-0.48,2.466-2.035,4.607-3.879,6.31
								c-0.919,0.855-1.922,1.632-2.615,2.678c-2.459,3.731,0.148,8.798-0.841,13.158c-0.749,3.3-3.971,5.999-7.342,5.71
								c-0.48-0.042-0.94-0.113-1.364-0.212l0.466-4.084l0.099-0.848l1.632-14.006l0.106-0.954l0.933-7.992H82.869z"/>
						</g>
						<path style="fill:#D88C84;" d="M81.58,430.978c-0.007,1.371,0.249,2.735,0.206,4.105c-0.047,1.454-0.429,2.879-0.499,4.332
							c-0.07,1.453,0.238,3.033,1.313,4.011c1.346,1.224,3.542,1.1,5.074,0.118s2.505-2.632,3.215-4.307
							c1.268-2.994,1.867-6.268,1.741-9.517c-0.076-1.959-0.431-3.958-1.447-5.635c-1.374-2.268-4.084-4.07-6.136-1.887
							C82.957,424.421,81.595,427.951,81.58,430.978z"/>
						<path style="fill:#D88C84;" d="M80.855,463.729c-0.092,0.678-0.41,1.293-0.855,1.809h-0.007
							c-1.526-0.297-2.968-0.784-4.325-1.441c0,0,0,0-0.021,0c-0.382-0.205-0.749-0.403-1.116-0.636h-0.014
							c-3.201-1.844-5.731-4.643-7.264-8.013v-0.014c-0.148-0.297-0.283-0.615-0.396-0.933c-0.177-0.452-0.339-0.912-0.473-1.385
							c0.657-1.187,1.823-2.049,3.731-2.36c1.222-0.198,2.572-0.339,3.632,0.318c0.714,0.445,1.187,1.194,1.625,1.915
							c1.392,2.261,2.777,4.522,4.169,6.777C80.283,460.98,81.053,462.322,80.855,463.729z"/>
						<path style="fill:#D88C84;" d="M102.782,450.352c-0.035,0.367-0.099,0.735-0.17,1.102v0.014
							c-1.187,6.126-5.526,11.179-11.313,13.313c-0.855-0.283-1.533-0.848-1.639-1.717c-0.049-0.424,0.057-0.841,0.155-1.258
							c0.325-1.3,0.643-2.607,0.968-3.915c0.572-2.332,1.173-4.706,2.431-6.755c1.809-2.926,4.819-4.918,7.837-6.445
							c0.601-0.311,1.145-0.459,1.632-0.48l0.198,2.558C102.966,447.992,102.931,449.186,102.782,450.352z"/>
						<path style="fill:#D88C84;" d="M101.503,428.503c-0.841-0.403-1.491-1.215-1.964-2.049c-0.961-1.689-1.491-3.576-2.007-5.448
							c-0.41-1.477-0.82-2.947-1.23-4.424c-0.304-1.102-0.615-2.212-0.721-3.357c-0.092-1.01-0.014-2.494,0.367-3.844h4.12
							l0.233,3.046l0.064,0.905l0.714,9.589l0.071,0.834L101.503,428.503z"/>
					</g>
				</g>
			</g>
			<g>
				<ellipse style="opacity:0.63;fill:#FCDFDE;" cx="413.406" cy="431.515" rx="33.211" ry="5.114"/>
				<g>
					<path style="fill:#BB5646;" d="M440.33,373.581c0,2.1-12.047,3.803-26.908,3.803c-14.861,0-26.908-1.703-26.908-3.803
						c0-2.1,12.047-3.803,26.908-3.803C428.283,369.779,440.33,371.481,440.33,373.581z"/>
					<path style="fill:#241A14;" d="M438.813,375.347c0,2.1-11.48,3.803-25.64,3.803c-14.161,0-25.64-1.703-25.64-3.803
						c0-2.1,11.48-3.803,25.64-3.803C427.334,371.544,438.813,373.247,438.813,375.347z"/>
					
						<path style="fill:none;stroke:#FF7171;stroke-width:3.0547;stroke-linecap:round;stroke-linejoin:round;stroke-miterlimit:10;" d="
						M433.744,391.23c0,0,6.138-13.519,15.252-10.572c9.114,2.947,2.399,37.606-14.053,30.502"/>
					<g>
						<path style="fill:#FF7171;" d="M440.3,373.779l-1.487,10.376l-0.295,2.026l-4.969,34.692l-0.092,0.652v0.041l-0.926,6.425
							c-0.397,2.759-2.79,4.796-5.58,4.735l-1.762-0.041l-0.591-0.01l-18.206-0.387l-0.631-0.02l-9.083-0.194
							c-1.904-0.041-3.492-1.487-3.717-3.381l-1.079-9.256l-0.112-0.916l-1.741-14.877l-0.092-0.774l-1.884-16.159l-0.092-0.764
							l-1.446-12.362c0,1.1,3.309,2.087,8.604,2.78c0.194,0.031,0.387,0.051,0.58,0.071c2.566,0.326,5.56,0.57,8.849,0.733
							c0.194,0.01,0.377,0.02,0.57,0.03c2.617,0.122,5.397,0.183,8.299,0.183c3.971,0,7.728-0.122,11.119-0.346
							c0.234-0.01,0.448-0.021,0.672-0.041c0.59-0.041,1.171-0.081,1.741-0.132c0.204-0.01,0.407-0.03,0.601-0.051
							C434.852,376.182,439.842,375.062,440.3,373.779z"/>
						<g>
							<g>
								<path style="fill:#BB5646;" d="M392.87,380.194c-1.619,2.128-3.258,4.287-4.816,6.517l-0.092-0.764
									c1.466-2.067,3.004-4.083,4.511-6.059c0.886-1.161,1.772-2.332,2.647-3.523c0.194,0.031,0.387,0.051,0.58,0.071
									C394.764,377.709,393.817,378.951,392.87,380.194z"/>
								<path style="fill:#BB5646;" d="M405.119,377.2c-1.975,3.34-3.788,6.782-5.57,10.152c-2.902,5.488-5.886,11.14-9.521,16.292
									l-0.092-0.774c3.472-4.99,6.354-10.457,9.154-15.752c1.751-3.309,3.523-6.67,5.458-9.948
									C404.743,377.18,404.926,377.19,405.119,377.2z"/>
								<path style="fill:#BB5646;" d="M414.161,389.612c-6.659,7.128-14.255,15.742-20.029,25.639
									c-0.876,1.487-1.619,2.871-2.25,4.185l-0.112-0.916c0.56-1.12,1.191-2.281,1.914-3.523
									c5.804-9.938,13.421-18.583,20.11-25.731l1.456-1.548c3.207-3.411,6.476-6.883,9.286-10.681
									c0.234-0.01,0.448-0.021,0.672-0.041c-2.882,3.941-6.272,7.545-9.582,11.068L414.161,389.612z"/>
								<path style="fill:#BB5646;" d="M427.552,376.813c-0.244,0.469-0.468,0.927-0.682,1.375
									c-3.931,8.217-6.619,17.096-9.215,25.69c-1.935,6.415-3.941,13.044-6.456,19.367c-1.232,3.106-2.668,6.323-4.806,9.042
									l-0.631-0.02c2.23-2.729,3.696-6.028,4.969-9.205c2.505-6.303,4.501-12.921,6.435-19.326
									c2.607-8.614,5.295-17.524,9.246-25.772c0.173-0.356,0.356-0.723,0.54-1.1C427.154,376.854,427.358,376.833,427.552,376.813
									z"/>
								<path style="fill:#BB5646;" d="M438.813,384.155l-0.295,2.026c-1.466,3.492-3.096,6.934-4.694,10.284
									c-3.767,7.943-7.667,16.15-9.398,24.866c-0.601,3.024-1.191,7.464,0.631,11.109c0.041,0.082,0.081,0.163,0.132,0.244
									l-0.591-0.01c-1.894-3.798-1.293-8.35-0.672-11.435c1.741-8.788,5.651-17.025,9.439-24.988
									C435.229,392.311,437.154,388.258,438.813,384.155z"/>
							</g>
							<g>
								<path style="fill:#FCDFDE;" d="M411.594,428.537c2.746,0.008,5.492,0.038,8.217-0.018c1.362-0.047,2.717-0.115,4.06-0.214
									c1.337-0.101,2.681-0.261,3.869-0.684l0.041-0.015c0.21-0.075,0.442,0.035,0.517,0.245c0.064,0.181-0.008,0.377-0.163,0.477
									c-1.286,0.822-2.721,1.101-4.108,1.33c-1.398,0.198-2.8,0.269-4.194,0.269c-2.789,0.009-5.559-0.171-8.309-0.609
									c-0.214-0.034-0.361-0.236-0.326-0.45c0.031-0.194,0.199-0.332,0.389-0.331L411.594,428.537z"/>
							</g>
						</g>
					</g>
					<path style="fill:#FFF2E9;" d="M395.339,373.62c-0.396,0.176-0.829,0.447-0.873,0.878c-0.032,0.31,0.163,0.608,0.42,0.785
						c0.256,0.177,0.567,0.254,0.87,0.321c1.268,0.282,2.568,0.451,3.867,0.398c0.161-0.007,0.335-0.022,0.456-0.128
						c0.17-0.15,0.166-0.417,0.108-0.636c-0.058-0.219-0.157-0.438-0.129-0.663c0.058-0.461,0.585-0.683,1.031-0.81
						c0.895-0.255,1.795-0.491,2.7-0.709c0.655-0.158,1.743-0.188,2.289-0.558c-0.374-0.346-1.205-0.255-1.679-0.218
						c-1.024,0.079-2.048,0.144-3.074,0.204C399.296,372.603,397.221,372.785,395.339,373.62z"/>
				</g>
			</g>
		</g>
	</g>
	<g>
		<path style="fill:#D88C84;" d="M369.48,90.374c0,1.469-1.191,2.659-2.659,2.659c-1.469,0-2.659-1.19-2.659-2.659
			c0-1.468,1.19-2.659,2.659-2.659C368.289,87.715,369.48,88.905,369.48,90.374z"/>
		<path style="fill:#D88C84;" d="M38.031,181.665c0,1.469-1.19,2.659-2.659,2.659c-1.469,0-2.659-1.19-2.659-2.659
			c0-1.468,1.191-2.659,2.659-2.659C36.84,179.007,38.031,180.197,38.031,181.665z"/>
		<g>
			<path style="fill:#F5BB60;" d="M167.187,51.428l1.875,4.111c0.202,0.443,0.542,0.808,0.969,1.042l3.339,1.826l-3.997,2.186
				l-2.186,4.793l-2.186-4.793l-3.997-2.186l3.997-2.186L167.187,51.428z"/>
			<path style="fill:#F5BB60;" d="M437.973,57.592l1.875,4.111c0.202,0.443,0.542,0.808,0.969,1.042l3.339,1.826l-3.997,2.186
				l-2.186,4.793l-2.186-4.793l-3.997-2.186l3.997-2.186L437.973,57.592z"/>
			<path style="fill:#F5BB60;" d="M472.329,181.665l1.875,4.111c0.202,0.443,0.542,0.808,0.969,1.042l3.339,1.826l-3.997,2.186
				l-2.186,4.793l-2.186-4.793l-3.997-2.186l3.997-2.186L472.329,181.665z"/>
			<path style="fill:#F5BB60;" d="M316.086,248.021l1.875,4.111c0.202,0.443,0.542,0.808,0.969,1.042l3.339,1.826l-3.997,2.186
				l-2.186,4.793l-2.186-4.793L309.903,255l3.997-2.186L316.086,248.021z"/>
			<path style="fill:#F5BB60;" d="M485.059,265.841l1.875,4.111c0.202,0.443,0.542,0.808,0.969,1.042l3.339,1.826l-3.997,2.186
				l-2.186,4.793l-2.186-4.793l-3.997-2.186l3.997-2.186L485.059,265.841z"/>
			<path style="fill:#F5BB60;" d="M11.747,324.617l1.875,4.111c0.202,0.443,0.542,0.808,0.969,1.042l3.339,1.826l-3.997,2.186
				l-2.186,4.793l-2.186-4.793l-3.997-2.186l3.997-2.186L11.747,324.617z"/>
			<path style="fill:#F5BB60;" d="M39.79,112.9l1.875,4.111c0.202,0.443,0.542,0.808,0.969,1.042l3.339,1.826l-3.997,2.186
				l-2.186,4.793l-2.186-4.793l-3.997-2.186l3.997-2.186L39.79,112.9z"/>
			<path style="fill:#F5BB60;" d="M296.329,28.183l1.875,4.111c0.202,0.443,0.542,0.808,0.969,1.042l3.339,1.826l-3.997,2.186
				l-2.186,4.793l-2.186-4.793l-3.997-2.186l3.997-2.186L296.329,28.183z"/>
			<path style="fill:#F1C3B5;" d="M88.992,22.858c0,2.151-1.743,3.894-3.894,3.894c-2.151,0-3.894-1.744-3.894-3.894
				c0-2.151,1.743-3.894,3.894-3.894C87.248,18.963,88.992,20.707,88.992,22.858z"/>
			<path style="fill:#F5BB60;" d="M31.351,51.428c0,1.469-1.191,2.659-2.659,2.659c-1.469,0-2.659-1.191-2.659-2.659
				c0-1.468,1.191-2.659,2.659-2.659C30.161,48.769,31.351,49.959,31.351,51.428z"/>
			<path style="fill:#D88C84;" d="M229.307,29.44c0,1.469-1.191,2.659-2.659,2.659c-1.469,0-2.659-1.19-2.659-2.659
				s1.191-2.659,2.659-2.659C228.116,26.781,229.307,27.971,229.307,29.44z"/>
			<path style="fill:#F1C3B5;" d="M438.701,22.341c0,1.468-1.19,2.659-2.659,2.659c-1.469,0-2.659-1.191-2.659-2.659
				c0-1.469,1.19-2.659,2.659-2.659C437.51,19.682,438.701,20.873,438.701,22.341z"/>
			<circle style="fill:#F1C3B5;" cx="476.73" cy="135.037" r="2.659"/>
		</g>
	</g>
	<g>
		<g>
			<path style="fill:#FFEADC;" d="M340.031,66.715v155.283c1.171,9.06-5.827,16.414-14.476,16.414H74.559
				c-8.65,0-15.647-7.354-15.647-16.414V66.715c0-9.073,6.998-16.414,15.647-16.414h250.996
				C334.204,50.301,341.202,57.642,340.031,66.715z"/>
		</g>
		<g>
			<path style="fill:#FFFFFF;" d="M337.689,64.373v155.283c0,9.06-6.998,16.414-15.647,16.414H71.046
				c-8.65,0-15.647-7.354-15.647-16.414V64.373c0-9.073,6.998-16.414,15.647-16.414h250.996
				C330.691,47.96,337.689,55.3,337.689,64.373z"/>
		</g>
		<g>
			<path style="fill:#739299;" d="M337.689,62.922v12.947H55.398V62.922c0-8.271,6.998-14.962,15.647-14.962h250.996
				C330.691,47.96,337.689,54.651,337.689,62.922z"/>
			<g>
				<path style="fill:#F5BB60;" d="M286.982,61.914c0,3.033-2.459,5.492-5.492,5.492c-3.033,0-5.492-2.459-5.492-5.492
					c0-3.033,2.459-5.492,5.492-5.492C284.524,56.423,286.982,58.881,286.982,61.914z"/>
				<path style="fill:#FF7171;" d="M304.555,61.914c0,3.033-2.459,5.492-5.492,5.492c-3.033,0-5.492-2.459-5.492-5.492
					c0-3.033,2.459-5.492,5.492-5.492C302.097,56.423,304.555,58.881,304.555,61.914z"/>
				<path style="fill:#F1C3B5;" d="M322.129,61.914c0,3.033-2.459,5.492-5.492,5.492c-3.033,0-5.492-2.459-5.492-5.492
					c0-3.033,2.459-5.492,5.492-5.492C319.67,56.423,322.129,58.881,322.129,61.914z"/>
			</g>
			<path style="fill:#FFFFFF;" d="M149.438,67.406H72.705c-2.651,0-4.82-2.169-4.82-4.82l0,0c0-2.651,2.169-4.82,4.82-4.82h76.733
				c2.651,0,4.82,2.169,4.82,4.82l0,0C154.258,65.237,152.089,67.406,149.438,67.406z"/>
		</g>
		<g>
			<g>
				<rect x="102.681" y="89.63" style="fill:#E5D0C3;" width="191.646" height="121.484"/>
				<g>
					<rect x="100.732" y="87.682" style="fill:#FFF2E9;" width="191.646" height="121.484"/>
					<g>
						
							<rect x="105.279" y="92.585" style="fill:none;stroke:#739299;stroke-width:0.6496;stroke-miterlimit:10;" width="182.551" height="113.688"/>
						<g>
							<g>
								<polygon style="fill:#FF7171;" points="255.845,189.126 240.074,211.24 248.183,209.842 251.067,216.907 261.227,192.937 
																	"/>
								<polygon style="fill:#FF7171;" points="268.48,189.126 284.25,211.24 276.142,209.842 273.258,216.907 263.098,192.937 
																	"/>
								<path style="fill:#F5BB60;" d="M265.643,166.598L265.643,166.598c0.389,1.672,2.512,2.196,3.634,0.896l0,0
									c1.452-1.683,4.18-0.251,3.62,1.9l0,0c-0.433,1.661,1.204,3.111,2.801,2.482l0,0c2.068-0.815,3.818,1.721,2.323,3.365l0,0
									c-1.155,1.27-0.38,3.315,1.327,3.499l0,0c2.21,0.239,2.581,3.298,0.493,4.059l0,0c-1.613,0.588-1.877,2.758-0.451,3.715l0,0
									c1.846,1.238,0.753,4.12-1.45,3.823l0,0c-1.702-0.229-2.944,1.57-2.126,3.08v0c1.059,1.954-1.248,3.998-3.061,2.711l0,0
									c-1.4-0.994-3.336,0.022-3.314,1.739l0,0c0.029,2.222-2.963,2.96-3.97,0.979l0,0c-0.778-1.531-2.965-1.531-3.742,0l0,0
									c-1.007,1.981-3.999,1.244-3.97-0.979l0,0c0.022-1.717-1.914-2.733-3.314-1.739l0,0c-1.812,1.286-4.119-0.757-3.06-2.711v0
									c0.818-1.51-0.424-3.309-2.126-3.08l0,0c-2.202,0.297-3.295-2.585-1.45-3.823h0c1.426-0.957,1.162-3.127-0.451-3.715l0,0
									c-2.088-0.761-1.717-3.82,0.493-4.059h0c1.707-0.185,2.482-2.229,1.327-3.499l0,0c-1.495-1.644,0.255-4.18,2.323-3.365l0,0
									c1.597,0.63,3.234-0.82,2.801-2.482l0,0c-0.56-2.151,2.169-3.583,3.62-1.9l0,0c1.122,1.3,3.245,0.777,3.634-0.896l0,0
									C262.058,164.434,265.139,164.434,265.643,166.598z"/>
							</g>
							
								<ellipse transform="matrix(0.2287 -0.9735 0.9735 0.2287 24.7366 398.1095)" style="fill:none;stroke:#FFFFFF;stroke-width:0.8804;stroke-miterlimit:10;" cx="263.598" cy="183.445" rx="11.015" ry="11.015"/>
						</g>
						<g>
							<g>
								
									<text transform="matrix(1 0 0 1 148.806 123.1064)" style="fill:#D88C84; font-family:'BebasNeueBold'; font-size:22.3255px;">CERTIFICATION</text>
							</g>
							<g>
								<path style="fill:#739299;" d="M174.423,192.067h-43.44c-0.202,0-0.368-0.166-0.368-0.368l0,0
									c0-0.202,0.166-0.368,0.368-0.368h43.44c0.202,0,0.368,0.166,0.368,0.368l0,0
									C174.791,191.901,174.626,192.067,174.423,192.067z"/>
							</g>
							<g>
								<path style="fill:#739299;" d="M240.362,192.067h-43.44c-0.202,0-0.368-0.166-0.368-0.368l0,0
									c0-0.202,0.166-0.368,0.368-0.368h43.44c0.202,0,0.368,0.166,0.368,0.368l0,0
									C240.73,191.901,240.565,192.067,240.362,192.067z"/>
							</g>
							
								<line style="fill:none;stroke:#739299;stroke-width:1.1428;stroke-linecap:round;stroke-linejoin:round;stroke-miterlimit:10;" x1="128.333" y1="149.16" x2="269.26" y2="149.16"/>
							
								<line style="fill:none;stroke:#739299;stroke-width:1.1428;stroke-linecap:round;stroke-linejoin:round;stroke-miterlimit:10;" x1="163.565" y1="139.298" x2="234.029" y2="139.298"/>
							
								<line style="fill:none;stroke:#739299;stroke-width:1.1428;stroke-linecap:round;stroke-linejoin:round;stroke-miterlimit:10;" x1="128.333" y1="154.805" x2="269.26" y2="154.805"/>
							
								<line style="fill:none;stroke:#739299;stroke-width:1.1428;stroke-linecap:round;stroke-linejoin:round;stroke-miterlimit:10;" x1="128.333" y1="160.449" x2="269.26" y2="160.449"/>
						</g>
					</g>
				</g>
			</g>
			<g>
				<path style="fill:#739299;" d="M244.88,227.688h-94.703c-2.968,0-5.396-2.428-5.396-5.396l0,0c0-2.968,2.428-5.396,5.396-5.396
					h94.703c2.968,0,5.396,2.428,5.396,5.396l0,0C250.277,225.26,247.848,227.688,244.88,227.688z"/>
				<text transform="matrix(1 0 0 1 169.7054 226.2626)" style="fill:#FFFFFF; font-family:'BebasNeueBook'; font-size:10.9612px;">DOWNLOAD HERE</text>
			</g>
			<g>
				<g>
					<g>
						<g>
							<path style="fill:#21386E;" d="M129.635,73.71l4.499,13.302c0,0-4.781,2.083-7.331,2.827
								c-2.549,0.748-6.238,4.505-8.121,5.315c-0.407,0.174-0.795,0.324-1.193,0.445c-1.722,0.532-3.57,0.608-7.579,0.538
								c-4.928-0.084-9.638,2.56-9.638,2.56l-4.923-14.557c0,0,5.894-3.278,16.504-7.1C122.466,73.218,129.635,73.71,129.635,73.71z
								"/>
							<path style="opacity:0.21;fill:#000061;" d="M130.488,76.233l0.587,1.735c-0.607,0.895-1.406,1.668-2.206,2.41
								c-2.977,2.739-6.183,5.222-9.581,7.418c-1.185,0.766-2.407,1.504-3.746,1.952l-0.029,0.01
								c-1.068,0.357-2.187,0.52-3.307,0.67c-3.154,0.418-6.343,0.719-9.528,0.535c-1.557-0.09-3.119-0.289-4.634-0.673
								c-0.34-0.086-0.572-0.191-0.719-0.301c-0.203-0.155-0.238-0.326-0.171-0.505c0.198-0.497,1.248-1.026,1.911-1.254
								c4.75-1.661,9.478-3.384,14.181-5.171c5.601-2.118,11.171-4.327,16.704-6.618C130.127,76.368,130.307,76.294,130.488,76.233z
								"/>
						</g>
						<path style="opacity:0.09;fill:#000061;" d="M129.862,74.383l4.271,12.63c0,0-4.781,2.083-7.331,2.827
							c-2.549,0.748-6.238,4.505-8.121,5.315c-0.407,0.174-0.795,0.324-1.193,0.445l-5.627-16.637L129.862,74.383z"/>
						<path style="opacity:0.31;fill:#000061;" d="M129.862,74.383l4.271,12.63c0,0-4.781,2.083-7.331,2.827
							c-2.549,0.748-6.238,4.505-8.121,5.315c-0.407,0.174-0.795,0.324-1.193,0.445l-5.627-16.637L129.862,74.383z"/>
					</g>
					<path style="fill:#21386E;" d="M80.919,89.321l27.675-21.915l32.261,1.854c0.552,0.032,0.756,0.74,0.306,1.061l-26.326,18.783
						l-33.603,1.072C80.77,90.19,80.557,89.607,80.919,89.321z"/>
					<path style="opacity:0.31;fill:#000061;" d="M113.419,76.9c0.156,0.463-0.365,1.057-1.165,1.328s-1.576,0.115-1.732-0.348
						c-0.156-0.463,0.365-1.057,1.165-1.328C112.487,76.281,113.263,76.437,113.419,76.9z"/>
				</g>
				<g>
					
						<path style="fill:none;stroke:#F5BB60;stroke-width:0.5477;stroke-linecap:round;stroke-linejoin:round;stroke-miterlimit:10;" d="
						M111.993,77.027c-1.139-2.198-3.648-3.51-6.124-3.528c-2.476-0.017-4.87,1.138-6.666,2.842
						c-1.796,1.704-3.038,3.922-3.921,6.235c-1.997,5.231-2.242,10.943-2.435,16.538c-0.297,8.623-0.521,17.296,0.655,25.844"/>
					<path style="fill:#F5BB60;" d="M93.045,120.908c-0.079-0.048-2.503,3.073-1.96,7.781l4.988-0.513
						C96.073,128.176,96.916,123.242,93.045,120.908z"/>
				</g>
			</g>
		</g>
	</g>
</g>
</svg>
