<?xml version="1.0" encoding="utf-8"?>
<!-- Generator: Adobe Illustrator 27.5.0, SVG Export Plug-In . SVG Version: 6.00 Build 0)  -->
<svg version="1.1" xmlns="http://www.w3.org/2000/svg" xmlns:xlink="http://www.w3.org/1999/xlink" x="0px" y="0px"
	 viewBox="0 0 500 500" style="enable-background:new 0 0 500 500;" xml:space="preserve">
<g id="BACKGROUND">
	<rect style="fill:#FFE6F0;" width="500" height="500"/>
	<path style="fill:#FFD2E2;" d="M117.512,398.026c-24.396-26.751-44.189-58.411-53.061-93.512
		c-2.997-11.856-4.075-26.159,4.757-34.617c7.671-7.345,20.358-7.065,29.735-2.078c9.377,4.987,16.139,13.686,22.315,22.327
		c6.176,8.641,12.248,17.674,20.887,23.851c7.811,5.585,19.448,8.12,26.557,1.665c6.029-5.475,6.151-14.828,5.059-22.899
		c-2.839-20.984-10.733-40.886-17.344-61.003c-6.611-20.117-12.035-41.231-9.684-62.275c2.352-21.044,13.895-42.157,33.24-50.768
		c7.432-3.309,16.28-4.575,23.622-1.07c12.086,5.77,15.237,21.076,18.493,34.067c4.78,19.067,12.868,37.3,23.795,53.641
		c7.178,10.734,17.927,21.671,30.743,20.09c11.047-1.362,18.773-11.663,23.103-21.917c4.331-10.253,6.796-21.571,13.722-30.284
		c6.926-8.713,20.67-13.587,29.231-6.475c6.824,5.669,7.204,15.875,6.54,24.722c-0.886,11.814-2.635,23.564-5.23,35.124
		c-2.004,8.931-3.577,20.381,4.12,25.334c6.193,3.985,14.634,0.651,20.013-4.379c5.379-5.03,9.258-11.645,15.269-15.9
		c12.421-8.793,30.839-4.369,41.346,6.64c10.507,11.009,14.45,26.783,15.451,41.968c2.669,40.457-13.033,80.841-38.338,112.52
		c-25.305,31.678-59.633,55.228-96.212,72.715c-16.853,8.056-34.602,15.001-53.222,16.491c-27.524,2.203-47.898-11.06-69.128-26.62
		C159.807,438.172,137.17,419.581,117.512,398.026z"/>
	<rect x="-0.469" y="422.318" style="fill:#EFA3C2;" width="500.938" height="77.682"/>
</g>
<g id="OBJECTS">
	<g>
		<g>
			<path style="fill:#FFFFFF;" d="M200.633,422.37H45.261c-3.054-2.021-5.983-4.213-8.786-6.576
				c-4.842-4.088-9.613-9.415-9.424-15.757c0.297-10.089,12.73-15.335,22.783-14.482c15.524,1.321,29.017,10.727,41.666,19.809
				c-2.138-10.259-4.258-20.995-1.455-31.101c2.812-10.098,12.254-19.189,22.648-17.833c9.55,1.249,15.973,10.25,20.393,18.803
				c4.429,8.561,8.678,18.129,17.204,22.603c-1.77-8.508-3.531-17.401-1.159-25.756c2.363-8.355,10.304-15.82,18.893-14.518
				c8.984,1.366,14.032,10.852,17.401,19.297C191.352,391.718,196.437,406.927,200.633,422.37z"/>
			<path style="fill:#FFFFFF;" d="M456.555,422.37H314.304c-1.501-1.772-2.935-3.596-4.304-5.467
				c-2.889-3.94-5.606-8.905-3.9-13.486c1.858-5.004,7.973-6.816,13.294-7.239c14.471-1.137,29.273,3.246,40.894,11.9
				c-4.079-4.013-7.338-8.799-8.667-14.319c-1.891-7.867,1.197-17.287,8.508-20.751c6.809-3.219,14.907-0.661,21.598,2.783
				c16.514,8.508,30.178,22.437,38.363,39.116c-0.416-5.553-0.82-11.258,0.813-16.587c1.626-5.322,5.771-10.26,11.265-11.146
				c7.986-1.289,14.729,6.049,18.259,13.327C453.56,406.96,455.9,414.715,456.555,422.37z"/>
		</g>
		<g>
			<path style="fill:none;stroke:#FFFFFF;stroke-miterlimit:10;" d="M210.633,421.37H55.26c-3.054-2.021-5.983-4.213-8.786-6.576
				c-4.842-4.088-9.613-9.415-9.424-15.757c0.296-10.089,12.73-15.335,22.783-14.482c15.524,1.321,29.017,10.727,41.666,19.809
				c-2.138-10.259-4.258-20.995-1.455-31.101c2.812-10.098,12.254-19.189,22.648-17.833c9.55,1.249,15.973,10.25,20.393,18.803
				c4.429,8.561,8.678,18.129,17.204,22.603c-1.77-8.508-3.531-17.401-1.159-25.756c2.363-8.355,10.304-15.82,18.893-14.518
				c8.984,1.366,14.032,10.852,17.401,19.297C201.352,390.718,206.437,405.927,210.633,421.37z"/>
			<path style="fill:none;stroke:#FFFFFF;stroke-miterlimit:10;" d="M466.555,421.37H324.304c-1.501-1.772-2.935-3.596-4.304-5.467
				c-2.889-3.94-5.606-8.905-3.9-13.486c1.858-5.004,7.973-6.816,13.294-7.239c14.471-1.137,29.273,3.246,40.894,11.9
				c-4.079-4.013-7.338-8.799-8.667-14.319c-1.891-7.867,1.197-17.287,8.508-20.751c6.809-3.219,14.907-0.661,21.598,2.783
				c16.514,8.508,30.178,22.437,38.363,39.116c-0.416-5.553-0.82-11.258,0.813-16.587c1.626-5.322,5.771-10.26,11.265-11.146
				c7.986-1.289,14.729,6.049,18.259,13.327C463.56,405.96,465.9,413.715,466.555,421.37z"/>
		</g>
		<g>
			<path style="fill:#FFFFFF;" d="M159.046,83.483c0,1.85-0.25,3.63-0.73,5.33H41.836c-0.48-1.7-0.73-3.48-0.73-5.33
				c0-11.02,8.93-19.94,19.94-19.94c3.62,0,7.01,0.96,9.94,2.66c5.74-9.15,15.93-15.23,27.54-15.23c12.22,0,22.87,6.75,28.41,16.72
				c3.37-2.6,7.59-4.15,12.17-4.15C150.117,63.543,159.046,72.463,159.046,83.483z"/>
			<path style="fill:#FFFFFF;" d="M432.458,145.673c0,1.162-0.157,2.279-0.458,3.347h-73.141c-0.301-1.067-0.458-2.185-0.458-3.347
				c0-6.92,5.607-12.521,12.521-12.521c2.273,0,4.402,0.603,6.242,1.67c3.604-5.746,10.003-9.563,17.293-9.563
				c7.673,0,14.361,4.238,17.84,10.499c2.116-1.633,4.766-2.606,7.642-2.606C426.85,133.152,432.458,138.753,432.458,145.673z"/>
			<path style="fill:#FFFFFF;" d="M231.489,61.25c0,1.399,0.189,2.745,0.552,4.031h88.084c0.363-1.286,0.552-2.632,0.552-4.031
				c0-8.333-6.753-15.079-15.079-15.079c-2.737,0-5.301,0.726-7.517,2.012c-4.341-6.919-12.047-11.517-20.826-11.517
				c-9.241,0-17.295,5.104-21.484,12.644c-2.548-1.966-5.74-3.138-9.203-3.138C238.242,46.171,231.489,52.916,231.489,61.25z"/>
		</g>
		<g>
			<path style="fill:none;stroke:#FFFFFF;stroke-miterlimit:10;" d="M169.046,88.483c0,1.85-0.25,3.63-0.73,5.33H51.836
				c-0.48-1.7-0.73-3.48-0.73-5.33c0-11.02,8.93-19.94,19.94-19.94c3.62,0,7.01,0.96,9.94,2.66c5.74-9.15,15.93-15.23,27.54-15.23
				c12.22,0,22.87,6.75,28.41,16.72c3.37-2.6,7.59-4.15,12.17-4.15C160.117,68.543,169.046,77.463,169.046,88.483z"/>
			<path style="fill:none;stroke:#FFFFFF;stroke-miterlimit:10;" d="M442.458,150.673c0,1.162-0.157,2.279-0.458,3.347h-73.141
				c-0.301-1.067-0.458-2.185-0.458-3.347c0-6.92,5.607-12.521,12.521-12.521c2.273,0,4.402,0.603,6.242,1.67
				c3.604-5.746,10.003-9.563,17.293-9.563c7.673,0,14.361,4.238,17.84,10.499c2.116-1.633,4.766-2.606,7.642-2.606
				C436.85,138.152,442.458,143.753,442.458,150.673z"/>
			<path style="fill:none;stroke:#FFFFFF;stroke-miterlimit:10;" d="M241.489,66.25c0,1.399,0.189,2.745,0.552,4.031h88.084
				c0.363-1.286,0.552-2.632,0.552-4.031c0-8.333-6.753-15.079-15.079-15.079c-2.737,0-5.301,0.726-7.517,2.012
				c-4.341-6.919-12.047-11.517-20.826-11.517c-9.241,0-17.295,5.104-21.484,12.644c-2.548-1.966-5.74-3.138-9.203-3.138
				C248.242,51.171,241.489,57.916,241.489,66.25z"/>
		</g>
	</g>
	<g>
		<circle style="fill:#FFFFFF;" cx="423.107" cy="75.602" r="34.71"/>
		
			<ellipse transform="matrix(0.92 -0.3919 0.3919 0.92 4.2212 171.8824)" style="fill:none;stroke:#FFFFFF;stroke-miterlimit:10;" cx="423.107" cy="75.602" rx="38.975" ry="38.975"/>
	</g>
	<g>
		<g>
			<g>
				<g>
					<g>
						
							<rect x="152.672" y="417.417" transform="matrix(-1 -1.224647e-16 1.224647e-16 -1 317.2826 852.4881)" style="fill:#FBBF9D;" width="11.939" height="17.654"/>
						<polygon style="fill:#0A0F19;" points="143.233,450.863 194.753,450.863 194.753,448.413 169.716,432.926 143.233,432.926 
													"/>
						
							<rect x="147.822" y="426.244" transform="matrix(-1 -1.224647e-16 1.224647e-16 -1 315.5573 859.1697)" style="fill:#F9F9F9;" width="19.912" height="6.681"/>
					</g>
				</g>
				<g>
					<polygon style="fill:#F8427B;" points="179.643,265.171 170.419,421.581 147.341,421.581 146.464,385.878 144.839,319.322 
						143.518,265.171 					"/>
				</g>
				<polygon points="168.992,265.171 146.464,385.878 144.839,319.322 155.419,265.171 				"/>
			</g>
			<g>
				<g>
					<g>
						
							<rect x="120.048" y="417.417" transform="matrix(-1 -1.224647e-16 1.224647e-16 -1 252.0354 852.4881)" style="fill:#FBBF9D;" width="11.939" height="17.654"/>
						<polygon style="fill:#0A0F19;" points="110.609,450.863 162.13,450.863 162.13,448.413 137.092,432.926 110.609,432.926 
													"/>
						
							<rect x="115.199" y="426.244" transform="matrix(-1 -1.224647e-16 1.224647e-16 -1 250.3102 859.1697)" style="fill:#F9F9F9;" width="19.912" height="6.681"/>
					</g>
				</g>
				<polygon style="fill:#F8427B;" points="111.578,421.579 134.663,421.579 161.16,265.174 125.037,265.174 				"/>
			</g>
			<g>
				<polygon style="fill:#191933;" points="141.317,109.429 187.48,112.162 162.39,144.523 128.293,142.085 				"/>
				<path style="fill:#0A0F19;" d="M163.802,182.07L163.802,182.07c-10.094,0-18.277-8.183-18.277-18.278v-18.737
					c0-4.95,4.013-8.963,8.963-8.963h20.144c4.113,0,7.448,3.335,7.448,7.448v20.252C182.08,173.887,173.897,182.07,163.802,182.07z
					"/>
				<g>
					<path style="fill:#FBBF9D;" d="M160.511,199.236L160.511,199.236c6.64,0,12.023-5.383,12.023-12.023v-24.722h-24.046v24.722
						C148.488,193.853,153.87,199.236,160.511,199.236z"/>
					<path style="fill:#CC6A48;" d="M148.491,165.08v3.494c0,9.694,6.32,17.55,14.119,17.55h4.553c1.898,0,3.707-0.46,5.367-1.308
						v-9.459c-2.268,1.481-4.857,2.319-7.602,2.319c-6.846,0-12.714-5.199-15.18-12.595H148.491z"/>
				</g>
				<path style="fill:#FBBF9D;" d="M164.925,135.716c9.078,0,16.437,7.359,16.437,16.437v14.841c0,7.841-6.356,14.198-14.198,14.198
					c-10.314,0-18.676-8.362-18.676-18.676v-10.363C148.488,143.075,155.847,135.716,164.925,135.716z"/>
				<path style="fill:#0A0F19;" d="M145.525,159.081L145.525,159.081v-11.733h5.932v5.802
					C151.457,156.426,148.801,159.081,145.525,159.081z"/>
				<g>
					<g>
						<path style="fill:#FBBF9D;" d="M185.698,160.322c0,1.998-1.62,3.618-3.618,3.618c-1.998,0-3.618-1.62-3.618-3.618
							c0-1.998,1.62-3.618,3.618-3.618C184.078,156.704,185.698,158.324,185.698,160.322z"/>
					</g>
					<g>
						<path style="fill:#FBBF9D;" d="M151.181,159.693c0,1.998-1.62,3.618-3.618,3.618c-1.998,0-3.618-1.62-3.618-3.618
							c0-1.998,1.62-3.618,3.618-3.618C149.561,156.076,151.181,157.695,151.181,159.693z"/>
					</g>
				</g>
				<g>
					<g>
						<path style="fill:#0A1227;" d="M172.8,151.423c0.643,0.591,1.285,0.898,1.928,1.12c0.643,0.21,1.285,0.307,1.928,0.309
							c0.643,0.002,1.285-0.095,1.928-0.305c0.643-0.221,1.286-0.529,1.928-1.124c-0.643-0.595-1.285-0.903-1.928-1.124
							c-0.643-0.21-1.285-0.307-1.928-0.305c-0.643,0.002-1.285,0.099-1.928,0.309C174.086,150.524,173.443,150.831,172.8,151.423z"
							/>
						<path style="fill:#0A1227;" d="M158.806,151.423c0.698,0.591,1.396,0.898,2.094,1.12c0.698,0.21,1.396,0.307,2.094,0.309
							c0.698,0.002,1.396-0.095,2.094-0.305c0.698-0.221,1.396-0.529,2.094-1.124c-0.698-0.595-1.396-0.903-2.094-1.124
							c-0.698-0.21-1.396-0.307-2.094-0.305c-0.698,0.002-1.396,0.099-2.094,0.309C160.203,150.524,159.505,150.831,158.806,151.423
							z"/>
					</g>
					
						<path style="fill:none;stroke:#0A1227;stroke-width:0.5;stroke-linecap:round;stroke-linejoin:round;stroke-miterlimit:10;" d="
						M169.75,156.958c0,0,3.622,6.332,3.622,7.174l0,0c0,0.842-0.683,1.525-1.525,1.525h-2.123"/>
					<g>
						<g>
							<path style="fill:#FEFEFE;" d="M159.22,158.411c0,0,1.694-1.91,3.784-1.91c2.09,0,3.784,1.91,3.784,1.91
								s-1.694,1.91-3.784,1.91C160.914,160.322,159.22,158.411,159.22,158.411z"/>
							<path style="fill:#0A1227;" d="M161.731,158.03c0-0.792,0.642-1.434,1.434-1.434c0.792,0,1.434,0.642,1.434,1.434
								c0,0.792-0.642,1.434-1.434,1.434C162.374,159.465,161.731,158.823,161.731,158.03z"/>
							
								<path style="fill:none;stroke:#0A1227;stroke-width:0.5;stroke-linecap:round;stroke-linejoin:round;stroke-miterlimit:10;" d="
								M166.788,158.411c0,0-1.694-1.91-3.784-1.91c-2.09,0-3.784,1.91-3.784,1.91l-1.222-0.937"/>
						</g>
						<g>
							<path style="fill:#FEFEFE;" d="M172.987,158.411c0,0,1.694-1.91,3.784-1.91c2.09,0,3.784,1.91,3.784,1.91
								s-1.694,1.91-3.784,1.91C174.681,160.322,172.987,158.411,172.987,158.411z"/>
							<path style="fill:#0A1227;" d="M175.498,158.03c0-0.792,0.642-1.434,1.434-1.434c0.792,0,1.434,0.642,1.434,1.434
								c0,0.792-0.642,1.434-1.434,1.434C176.141,159.465,175.498,158.823,175.498,158.03z"/>
							
								<path style="fill:none;stroke:#0A1227;stroke-width:0.5;stroke-linecap:round;stroke-linejoin:round;stroke-miterlimit:10;" d="
								M172.987,158.411c0,0,1.694-1.91,3.784-1.91c2.09,0,3.784,1.91,3.784,1.91l0.748-1.161"/>
						</g>
					</g>
					
						<path style="fill:none;stroke:#0A1227;stroke-width:0.5;stroke-linecap:round;stroke-linejoin:round;stroke-miterlimit:10;" d="
						M170.489,170.946l-4.147-1.166c-1.054-0.296-1.943-1.007-2.464-1.97l0,0"/>
					<line style="fill:#FBBF9D;" x1="167.339" y1="176.169" x2="167.339" y2="178.755"/>
				</g>
				<path style="fill:#0A0F19;" d="M152.81,134.906c3.544-3.615,8.369-5.658,13.169-7.267c2.697-0.904,5.69-1.692,8.321-0.611
					c2.631,1.081,4.195,4.883,2.158,6.868c1.753-2.713,6.166-3.119,8.385-0.771c2.218,2.348,1.562,6.731-1.247,8.327
					c2.571,0.191,3.639,3.87,2.195,6.007c-1.443,2.136-4.274,2.852-6.852,2.863c-3.634,0.016-7.266-1.054-10.31-3.038
					c-2.174-1.417-4.362-3.381-6.944-3.122c-2.107,0.212-3.747,1.87-5.121,3.481c-2.134,2.502-7.496,6.872-8.711,1.39
					C146.852,144.522,149.775,138.001,152.81,134.906z"/>
				<path style="fill:#23233F;" d="M140.487,132.381l4.635,10.92l1.616-1.32c7.801-6.372,17.015-10.784,26.87-12.866l0,0
					l-3.881-9.145L140.487,132.381z"/>
				<path style="fill:#FDFDFE;" d="M181.338,167.729c-0.129,2.654-0.994,5.109-2.397,7.178c-2.537,3.799-6.862,6.29-11.772,6.29
					c-5.518,0-10.475-2.397-13.889-6.196c-0.807-0.889-1.531-1.871-2.151-2.911c6.056-4.887,13.97-7.447,21.733-6.898
					c2.934,0.21,5.904,0.865,8.371,2.467C181.268,167.682,181.303,167.705,181.338,167.729z"/>
			</g>
			<g>
				<path style="fill:#FBBF9D;" d="M250.881,124.504l-5.337-1.289l5.139-21.285c0.267-1.107,1.382-1.788,2.489-1.521l1.327,0.321
					c1.107,0.267,1.788,1.382,1.521,2.489L250.881,124.504z"/>
				<path style="fill:#FBBF9D;" d="M252.406,127.269l-5.126-1.967l7.845-20.443c0.408-1.063,1.601-1.595,2.665-1.187l1.275,0.489
					c1.064,0.408,1.595,1.601,1.187,2.664L252.406,127.269z"/>
				<path style="fill:#FBBF9D;" d="M253.884,126.454l-3.516-2.927l8.374-10.06c0.607-0.73,1.691-0.829,2.421-0.221l0.875,0.728
					c0.729,0.607,0.829,1.691,0.221,2.42L253.884,126.454z"/>
				<path style="fill:#FBBF9D;" d="M258.258,119.835c0.017,0.419-1.636,16.803-1.636,16.803l-3.606,9.398l-14.835-5.692
					l5.931-15.456L258.258,119.835z"/>
				<path style="fill:#FBBF9D;" d="M249.991,126.517c-0.507-0.355-1.058-0.588-1.621-0.752l0.696-4.706
					c0.49-3.318-1.802-6.405-5.12-6.896l-2.187,14.797c-0.939,2.317-0.205,5.055,1.93,6.551c2.483,1.74,5.907,1.138,7.647-1.346
					C253.077,131.681,252.474,128.257,249.991,126.517z"/>
				<path style="fill:none;stroke:#D68C6B;stroke-width:0.5;stroke-miterlimit:10;" d="M251.336,134.165
					c1.74-2.483,1.138-5.907-1.346-7.647c-0.507-0.355-1.058-0.588-1.621-0.752l0.696-4.706c0.294-1.99-0.413-3.897-1.741-5.21"/>
			</g>
			<g>
				<path style="fill:#F8427B;" d="M259.195,144.324c-1.485,3.414-3.157,7.096-4.934,10.907l-25.112-13.07
					c2.069-5.261,3.449-8.803,3.449-8.803L259.195,144.324z"/>
				<path style="fill:#333148;" d="M254.261,155.231c-9.224,19.816-21.078,42.776-22.341,45.886
					c-0.012,0.023-0.035,0.059-0.035,0.094c-2.724,7.459-9.621,8.359-18.331,9.505c-0.292,0.047-27.929,3.215-32.161,3.729
					c-6.722,0.807-12.813-4.022-13.573-10.744c-0.023-0.175-0.035-0.327-0.059-0.503c-0.093-1.391,0.035-2.736,0.374-4.022
					c1.041-3.87,3.94-7.038,7.798-8.371c0.807-0.292,1.672-0.479,2.56-0.585c1.368-0.164,2.736-0.327,4.103-0.503
					c8.897-1.099,27.649-3.168,29.087-3.367c2.151-5.039,12.123-30.466,17.466-44.191L254.261,155.231z"/>
			</g>
			<g>
				<path style="fill:#FDFDFE;" d="M179.212,268.522h-53.841l-5.963-64.38c-0.665-7.176,4.983-13.371,12.19-13.371h41.691
					c6.949,0,12.583,5.634,12.583,12.583L179.212,268.522z"/>
				<g>
					<polygon style="fill:#F8427B;" points="163.166,199.948 160.422,195.196 157.679,190.444 163.166,190.444 168.653,190.444 
						165.909,195.196 					"/>
					<polygon style="fill:#F8427B;" points="163.472,193.643 158.167,217.826 163.066,246.516 164.218,239.757 167.918,218.045 
											"/>
				</g>
				<polygon points="155.416,307.714 155.416,326.769 117,322.724 117.655,302.64 				"/>
				<path style="fill:#333148;" d="M155.416,209.511v98.202l-37.761-5.074l3.18-98.494c-0.666-7.178,4.98-13.374,12.182-13.374
					h11.62L155.416,209.511z"/>
				<polygon points="187.156,311.969 187.133,330.113 170.298,328.336 170.298,309.713 				"/>
				<path style="fill:#333148;" d="M187.297,203.35l-0.14,108.618l-16.858-2.256V207.91l6.816-16.905
					c0.737,0.14,1.45,0.351,2.139,0.608c0.912,0.351,1.765,0.807,2.56,1.356C185.122,195.225,187.297,199.036,187.297,203.35z"/>
				<path style="fill:none;stroke:#3F3F4C;stroke-width:0.5;stroke-miterlimit:10;" d="M184.07,194.936
					c2.007,2.226,3.23,5.179,3.23,8.414l-0.023,18.02"/>
				<g>
					<polygon style="fill:#F8427B;" points="155.419,213.135 155.419,217.788 139.707,190.771 142.408,190.771 					"/>
				</g>
				<g>
					<path style="fill:#F8427B;" d="M181.817,192.969l-11.515,26.515v-7.26l8.955-20.611
						C180.169,191.964,181.022,192.419,181.817,192.969z"/>
				</g>
			</g>
			<g>
				<polygon style="fill:#F8427B;" points="108.232,146.545 105.625,158.119 70.647,158.867 68.94,147.118 				"/>
				<path style="fill:#333148;" d="M141.118,202.637c-0.549,6.032-5.892,10.475-11.948,9.925l-43.186-4.478
					c-2.595-0.234-5.015-1.391-6.816-3.215c-0.245-0.245-0.456-0.491-0.678-0.748c-1.859-2.268-2.736-5.191-2.432-8.113
					l-5.413-37.142l34.979-0.748l-6.559,29.11l32.126,3.46C137.237,191.239,141.679,196.581,141.118,202.637z"/>
				<path style="fill:none;stroke:#3F3F4C;stroke-width:0.5;stroke-miterlimit:10;" d="M120.595,211.673l8.58,0.89
					c6.047,0.554,11.394-3.898,11.948-9.929c0.193-2.106-0.219-4.127-1.093-5.89"/>
				<path style="fill:#FBBF9D;" d="M80.404,122.282c-1.382,0.23-2.309,1.538-2.07,2.929l1.343,7.904
					c0.033,2.348,0.828,4.602,2.229,6.455l-0.762,7.369l17.503-0.251l-0.065-6.192c0.974-1.027,1.785-2.253,2.315-3.663
					c1.76-4.659,0.142-9.762-3.633-12.624c0.16-0.404,0.221-0.858,0.141-1.322l-1.43-8.459c-0.247-1.382-1.555-2.309-2.937-2.079
					c-1.374,0.239-2.309,1.555-2.07,2.929l1.152,6.812c-0.099-0.017-0.206-0.026-0.306-0.043l-0.89-5.247
					c-0.247-1.382-1.555-2.309-2.937-2.079c-1.374,0.239-2.309,1.555-2.07,2.929l0.214,1.283c-0.535-0.376-1.195-0.546-1.882-0.426
					c-1.382,0.23-2.317,1.547-2.078,2.92l0.239,1.374C81.859,122.374,81.149,122.155,80.404,122.282z"/>
				<g>
					<path style="fill:#FDFDFE;" d="M113.321,105.694L61.167,141.12c1.247-0.848,2.73-1.12,4.101-0.849
						c1.38,0.264,2.645,1.044,3.499,2.301c1.695,2.495,1.047,5.889-1.458,7.59l52.154-35.427c2.495-1.695,3.153-5.095,1.458-7.59
						c-0.854-1.257-2.119-2.037-3.499-2.301C116.042,104.581,114.569,104.846,113.321,105.694z"/>
					<path style="fill:#FDFDFE;" d="M66.16,150.198c2.215-1.505,2.791-4.521,1.287-6.736c-1.505-2.215-4.521-2.792-6.736-1.286
						c-2.215,1.505-2.792,4.521-1.287,6.736C60.929,151.127,63.945,151.703,66.16,150.198z"/>
					<path style="fill:none;stroke:#0E283D;stroke-width:0.5;stroke-miterlimit:10;" d="M65.206,148.793
						c1.439-0.978,1.814-2.937,0.836-4.376c-0.978-1.439-2.937-1.814-4.376-0.836c-1.439,0.978-1.814,2.937-0.836,4.376
						C61.807,149.396,63.767,149.771,65.206,148.793z"/>
				</g>
				<g>
					<g>
						<path style="fill:#FBBF9D;" d="M94.336,120.01l-2.873-3.537c-0.884-1.088-0.718-2.687,0.37-3.57l0,0
							c1.088-0.884,2.687-0.718,3.57,0.37l2.873,3.538c0.884,1.088,0.718,2.687-0.37,3.57l0,0
							C96.818,121.264,95.219,121.098,94.336,120.01z"/>
						<path style="fill:#FBBF9D;" d="M90.591,123.958l-4.24-5.221c-0.884-1.088-0.718-2.687,0.37-3.57l0,0
							c1.088-0.884,2.687-0.718,3.57,0.37l4.24,5.221c0.884,1.088,0.718,2.687-0.37,3.571l0,0
							C93.073,125.212,91.475,125.046,90.591,123.958z"/>
						<path style="fill:#FBBF9D;" d="M85.88,126.5l-3.239-3.988c-0.883-1.088-0.718-2.687,0.37-3.57l0,0
							c1.088-0.884,2.687-0.718,3.57,0.37l3.238,3.988c0.884,1.088,0.718,2.687-0.37,3.57l0,0
							C88.362,127.754,86.764,127.588,85.88,126.5z"/>
						<path style="fill:#FBBF9D;" d="M80.863,128.577l-1.968-2.423c-0.884-1.088-0.718-2.687,0.37-3.571l0,0
							c1.088-0.884,2.687-0.718,3.57,0.37l1.968,2.423c0.884,1.088,0.718,2.687-0.37,3.571l0,0
							C83.345,129.831,81.747,129.665,80.863,128.577z"/>
						<path style="fill:#FBBF9D;" d="M94.336,120.01l-2.873-3.537c-0.884-1.088-0.718-2.687,0.37-3.57l0,0
							c1.088-0.884,2.687-0.718,3.57,0.37l2.873,3.538c0.884,1.088,0.718,2.687-0.37,3.57l0,0
							C96.818,121.264,95.219,121.098,94.336,120.01z"/>
						<path style="fill:#FBBF9D;" d="M90.591,123.958l-4.24-5.221c-0.884-1.088-0.718-2.687,0.37-3.57l0,0
							c1.088-0.884,2.687-0.718,3.57,0.37l4.24,5.221c0.884,1.088,0.718,2.687-0.37,3.571l0,0
							C93.073,125.212,91.475,125.046,90.591,123.958z"/>
						<path style="fill:#FBBF9D;" d="M85.88,126.5l-3.239-3.988c-0.883-1.088-0.718-2.687,0.37-3.57l0,0
							c1.088-0.884,2.687-0.718,3.57,0.37l3.238,3.988c0.884,1.088,0.718,2.687-0.37,3.57l0,0
							C88.362,127.754,86.764,127.588,85.88,126.5z"/>
						<path style="fill:#FBBF9D;" d="M80.863,128.577l-1.968-2.423c-0.884-1.088-0.718-2.687,0.37-3.571l0,0
							c1.088-0.884,2.687-0.718,3.57,0.37l1.968,2.423c0.884,1.088,0.718,2.687-0.37,3.571l0,0
							C83.345,129.831,81.747,129.665,80.863,128.577z"/>
					</g>
					<g>
						<path style="fill:none;stroke:#E2A07F;stroke-width:0.5;stroke-miterlimit:10;" d="M94.336,120.01l-2.873-3.537
							c-0.884-1.088-0.718-2.687,0.37-3.57l0,0c1.088-0.884,2.687-0.718,3.57,0.37l2.873,3.538c0.884,1.088,0.718,2.687-0.37,3.57
							l0,0C96.818,121.264,95.219,121.098,94.336,120.01z"/>
						<path style="fill:none;stroke:#E2A07F;stroke-width:0.5;stroke-miterlimit:10;" d="M90.591,123.958l-4.24-5.221
							c-0.884-1.088-0.718-2.687,0.37-3.57l0,0c1.088-0.884,2.687-0.718,3.57,0.37l4.24,5.221c0.884,1.088,0.718,2.687-0.37,3.571
							l0,0C93.073,125.212,91.475,125.046,90.591,123.958z"/>
						<path style="fill:none;stroke:#E2A07F;stroke-width:0.5;stroke-miterlimit:10;" d="M85.88,126.5l-3.239-3.988
							c-0.883-1.088-0.718-2.687,0.37-3.57l0,0c1.088-0.884,2.687-0.718,3.57,0.37l3.238,3.988c0.884,1.088,0.718,2.687-0.37,3.57
							l0,0C88.362,127.754,86.764,127.588,85.88,126.5z"/>
						<path style="fill:none;stroke:#E2A07F;stroke-width:0.5;stroke-miterlimit:10;" d="M80.863,128.577l-1.968-2.423
							c-0.884-1.088-0.718-2.687,0.37-3.571l0,0c1.088-0.884,2.687-0.718,3.57,0.37l1.968,2.423c0.884,1.088,0.718,2.687-0.37,3.571
							l0,0C83.345,129.831,81.747,129.665,80.863,128.577z"/>
						<path style="fill:none;stroke:#E2A07F;stroke-width:0.5;stroke-miterlimit:10;" d="M94.336,120.01l-2.873-3.537
							c-0.884-1.088-0.718-2.687,0.37-3.57l0,0c1.088-0.884,2.687-0.718,3.57,0.37l2.873,3.538c0.884,1.088,0.718,2.687-0.37,3.57
							l0,0C96.818,121.264,95.219,121.098,94.336,120.01z"/>
						<path style="fill:none;stroke:#E2A07F;stroke-width:0.5;stroke-miterlimit:10;" d="M90.591,123.958l-4.24-5.221
							c-0.884-1.088-0.718-2.687,0.37-3.57l0,0c1.088-0.884,2.687-0.718,3.57,0.37l4.24,5.221c0.884,1.088,0.718,2.687-0.37,3.571
							l0,0C93.073,125.212,91.475,125.046,90.591,123.958z"/>
						<path style="fill:none;stroke:#E2A07F;stroke-width:0.5;stroke-miterlimit:10;" d="M85.88,126.5l-3.239-3.988
							c-0.883-1.088-0.718-2.687,0.37-3.57l0,0c1.088-0.884,2.687-0.718,3.57,0.37l3.238,3.988c0.884,1.088,0.718,2.687-0.37,3.57
							l0,0C88.362,127.754,86.764,127.588,85.88,126.5z"/>
						<path style="fill:none;stroke:#E2A07F;stroke-width:0.5;stroke-miterlimit:10;" d="M80.863,128.577l-1.968-2.423
							c-0.884-1.088-0.718-2.687,0.37-3.571l0,0c1.088-0.884,2.687-0.718,3.57,0.37l1.968,2.423c0.884,1.088,0.718,2.687-0.37,3.571
							l0,0C83.345,129.831,81.747,129.665,80.863,128.577z"/>
					</g>
				</g>
				<g>
					<g>
						<path style="fill:#FBBF9D;" d="M104.524,132.368c0.678-2.327-0.658-4.762-2.985-5.44c-2.327-0.678-4.762,0.658-5.44,2.985
							c-0.678,2.326,0.658,4.762,2.985,5.44C101.41,136.031,103.846,134.694,104.524,132.368z"/>
						<path style="fill:#FBBF9D;" d="M99.083,135.352c-2.327-0.678-3.663-3.114-2.985-5.44c0.62-2.129,2.713-3.409,4.846-3.095
							l1.173-4.037c0.391-1.346,1.799-2.12,3.146-1.729c1.346,0.391,2.12,1.799,1.729,3.146l-2.392,8.233"/>
					</g>
					<path style="fill:none;stroke:#E2A07F;stroke-width:0.5;stroke-miterlimit:10;" d="M96.098,129.912
						c0.002-0.007,0.006-0.014,0.008-0.021c0.08-0.27,0.185-0.526,0.31-0.767c0.05-0.098,0.116-0.183,0.173-0.275
						c0.087-0.14,0.171-0.282,0.271-0.41c0.088-0.112,0.189-0.21,0.287-0.312c0.085-0.088,0.166-0.18,0.257-0.26
						c0.127-0.113,0.264-0.21,0.403-0.307c0.072-0.05,0.142-0.102,0.217-0.148c0.167-0.102,0.34-0.188,0.519-0.267
						c0.053-0.023,0.104-0.047,0.157-0.068c0.204-0.081,0.412-0.144,0.626-0.194c0.031-0.007,0.062-0.014,0.093-0.02
						c0.234-0.049,0.47-0.078,0.712-0.088c0.013-0.001,0.026,0,0.039-0.001c0.255-0.008,0.511,0.005,0.771,0.043
						c0.001,0,0.001,0,0.001,0l1.173-4.037c0.391-1.346,1.799-2.12,3.146-1.729c1.346,0.391,2.12,1.799,1.729,3.146l-2.392,8.233"/>
				</g>
			</g>
		</g>
		<g>
			<path style="fill:none;stroke:#FFFFFF;stroke-miterlimit:10;" d="M55.047,451.435c5.005,0,10.219,0,15.588,0"/>
			<path style="fill:none;stroke:#FFFFFF;stroke-miterlimit:10;" d="M83.884,451.435c68.779,0,154.297,0,154.297,0"/>
		</g>
		<g>
			
				<line style="fill:none;stroke:#F8427B;stroke-miterlimit:10;stroke-dasharray:6;" x1="272.56" y1="82.803" x2="272.56" y2="99.755"/>
			
				<line style="fill:none;stroke:#F8427B;stroke-miterlimit:10;stroke-dasharray:6;" x1="290.244" y1="88.793" x2="278.258" y2="100.78"/>
			
				<line style="fill:none;stroke:#F8427B;stroke-miterlimit:10;stroke-dasharray:6;" x1="253.559" y1="88.793" x2="265.546" y2="100.78"/>
		</g>
	</g>
	<g>
		<g>
			<g>
				<path style="fill:#A24C4F;" d="M372.829,172.977c5.867,8.309,14.68,14.271,19.279,23.401c6.053,12.013,2.929,27.807-6.33,37.061
					c-9.259,9.254-23.624,11.971-36.011,8.017c-12.387-3.954-22.658-14.011-28.526-26.121c-5.867-12.111-7.561-26.096-6.18-39.495
					c1.668-16.194,10.708-34.34,28.484-34.88C359.403,140.479,365.284,162.291,372.829,172.977z"/>
				<path style="fill:none;stroke:#342D3A;stroke-width:0.5;stroke-linecap:round;stroke-linejoin:round;stroke-miterlimit:10;" d="
					M320.042,174.886c0-2.842,2.304-5.147,5.147-5.147c2.842,0,5.147,2.304,5.147,5.147c0,2.842-2.304,5.147-5.147,5.147
					C322.346,180.033,320.042,177.729,320.042,174.886z"/>
				<g>
					<path style="fill:#FBBF9D;" d="M343.863,206.224L343.863,206.224c-5.38,0-9.741-4.361-9.741-9.741v-25.936h19.482v25.936
						C353.605,201.863,349.243,206.224,343.863,206.224z"/>
					<path style="fill:#CC6A48;" d="M353.602,171.277v3.104c0,8.613-5.121,15.591-11.44,15.591h-3.689
						c-1.538,0-3.003-0.408-4.348-1.162v-8.404c1.838,1.316,3.935,2.06,6.159,2.06c5.547,0,10.301-4.619,12.299-11.19H353.602z"/>
				</g>
				<g>
					<g>
						<path style="fill:#FBBF9D;" d="M323.777,162.421c-1.514,1.389-1.069,4.338,0.994,6.586c2.063,2.248,4.962,2.944,6.477,1.555
							c1.514-1.389,1.069-4.338-0.994-6.586C328.191,161.728,325.291,161.032,323.777,162.421z"/>
					</g>
					<path style="fill:#FBBF9D;" d="M355.486,159.791v9.212c0,3.542-1.111,6.827-3.016,9.528c-3.004,4.267-7.961,7.061-13.573,7.061
						c-6.009,0-11.048-4.209-12.299-9.832c-0.21-0.9-0.316-1.824-0.316-2.782v-13.187c0-8.067,6.535-14.602,14.602-14.602
						C348.951,145.189,355.486,151.724,355.486,159.791z"/>
					<g>
						<path style="fill:#FBBF9D;" d="M360.031,162.421c1.514,1.389,1.069,4.338-0.994,6.586c-2.063,2.248-4.962,2.944-6.477,1.555
							c-1.514-1.389-1.069-4.338,0.994-6.586C355.617,161.728,358.517,161.032,360.031,162.421z"/>
					</g>
				</g>
				<g>
					<path style="fill:#A24C4F;" d="M359.095,158.919c0,1.594-0.214,3.133-0.628,4.597c-8.116-1.194-14.334-8.178-14.334-16.619
						c0-1.691,0.249-3.326,0.718-4.866C352.939,143.397,359.095,150.444,359.095,158.919z"/>
					<path style="fill:#A24C4F;" d="M345.175,142.093c-0.842,8.544-8.054,15.218-16.819,15.218c-1.173,0-2.312-0.117-3.416-0.345
						c0.966-8.544,8.219-15.183,17.019-15.183c0.987,0,1.953,0.083,2.892,0.248C344.961,142.051,345.072,142.065,345.175,142.093z"
						/>
				</g>
				<g>
					<g>
						<path style="fill:#F78781;" d="M334.023,177.513h5.125c-0.35-1.079-1.363-1.859-2.561-1.859S334.373,176.434,334.023,177.513z
							"/>
						<path style="fill:#F78781;" d="M339.148,177.281h-5.125c0.35,1.079,1.363,1.859,2.561,1.859
							C337.783,179.139,338.798,178.36,339.148,177.281z"/>
						
							<path style="fill:none;stroke:#342D3A;stroke-width:0.5;stroke-linecap:round;stroke-linejoin:round;stroke-miterlimit:10;" d="
							M333.533,177.513h4.275c1.087,0,2.127-0.44,2.883-1.22l0,0"/>
					</g>
					
						<path style="fill:none;stroke:#342D3A;stroke-width:0.5;stroke-linecap:round;stroke-linejoin:round;stroke-miterlimit:10;" d="
						M337.956,180.657c-0.834-0.51-1.95-0.52-2.793-0.024"/>
					<g>
						<path style="fill:#A35A29;" d="M332.966,159.267c-0.532,0.487-1.065,0.73-1.597,0.916c-0.532,0.171-1.065,0.251-1.597,0.253
							c-0.532,0.002-1.065-0.078-1.597-0.249c-0.533-0.185-1.065-0.429-1.597-0.919c0.532-0.49,1.065-0.734,1.597-0.919
							c0.532-0.171,1.065-0.251,1.597-0.25c0.533,0.001,1.065,0.081,1.597,0.253C331.901,158.538,332.433,158.78,332.966,159.267z"
							/>
						<path style="fill:#A35A29;" d="M346.656,159.267c-0.518,0.487-1.036,0.73-1.554,0.916c-0.518,0.171-1.036,0.251-1.554,0.253
							c-0.518,0.002-1.036-0.078-1.554-0.249c-0.518-0.185-1.036-0.429-1.554-0.919c0.518-0.49,1.036-0.734,1.554-0.919
							c0.518-0.171,1.036-0.251,1.554-0.25c0.518,0.001,1.036,0.081,1.554,0.253C345.621,158.538,346.138,158.78,346.656,159.267z"
							/>
					</g>
					
						<path style="fill:none;stroke:#342D3A;stroke-width:0.5;stroke-linecap:round;stroke-linejoin:round;stroke-miterlimit:10;" d="
						M336.56,163.387v5.606h-2.081c-0.836,0-1.513,0.677-1.513,1.513l0,0c0,0.836,0.677,1.513,1.513,1.513h2.107"/>
					<g>
						<g>
							<path style="fill:#FEFEFE;" d="M346.656,164.266c0,0-1.639-1.848-3.66-1.848c-2.022,0-3.66,1.848-3.66,1.848
								s1.639,1.848,3.66,1.848C345.018,166.114,346.656,164.266,346.656,164.266z"/>
							<path style="fill:#0A1227;" d="M343.353,163.898c0-0.766-0.621-1.387-1.387-1.387c-0.766,0-1.388,0.621-1.388,1.387
								c0,0.766,0.621,1.387,1.388,1.387C342.732,165.285,343.353,164.664,343.353,163.898z"/>
							<path style="fill:none;stroke:#0A1227;stroke-width:0.5;stroke-miterlimit:10;" d="M339.336,164.266
								c0,0,1.639-1.848,3.66-1.848c2.022,0,3.66,1.848,3.66,1.848l1.383-1.321"/>
						</g>
						<g>
							<path style="fill:#FEFEFE;" d="M333.474,164.266c0,0-1.639-1.848-3.66-1.848c-2.022,0-3.661,1.848-3.661,1.848
								s1.639,1.848,3.661,1.848C331.835,166.114,333.474,164.266,333.474,164.266z"/>
							<circle style="fill:#0A1227;" cx="328.806" cy="163.898" r="1.387"/>
							<path style="fill:none;stroke:#0A1227;stroke-width:0.5;stroke-miterlimit:10;" d="M333.474,164.266
								c0,0-1.639-1.848-3.66-1.848c-2.022,0-3.661,1.848-3.661,1.848"/>
						</g>
					</g>
					<g>
						<path style="fill:#FBA581;" d="M348.3,171.282c0-1.91-1.548-3.457-3.457-3.457c-1.909,0-3.457,1.548-3.457,3.457
							s1.548,3.457,3.457,3.457C346.752,174.739,348.3,173.191,348.3,171.282z"/>
						<path style="fill:#FBA581;" d="M325.867,167.823v4.733c0,0.739,0.052,1.467,0.153,2.178c1.84-0.08,3.304-1.596,3.304-3.454
							C329.324,169.371,327.776,167.823,325.867,167.823z"/>
					</g>
					<g>
						
							<path style="fill:none;stroke:#342D3A;stroke-width:0.5;stroke-linecap:round;stroke-linejoin:round;stroke-miterlimit:10;" d="
							M337.654,164.266c0-3.263,2.645-5.908,5.908-5.908c3.263,0,5.908,2.645,5.908,5.908s-2.645,5.908-5.908,5.908
							C340.299,170.174,337.654,167.529,337.654,164.266z"/>
						
							<circle style="fill:none;stroke:#342D3A;stroke-width:0.5;stroke-linecap:round;stroke-linejoin:round;stroke-miterlimit:10;" cx="329.368" cy="164.266" r="5.908"/>
						
							<line style="fill:none;stroke:#342D3A;stroke-width:0.5;stroke-linecap:round;stroke-linejoin:round;stroke-miterlimit:10;" x1="338.244" y1="161.706" x2="334.686" y2="161.706"/>
						
							<line style="fill:none;stroke:#342D3A;stroke-width:0.5;stroke-linecap:round;stroke-linejoin:round;stroke-miterlimit:10;" x1="348.963" y1="161.77" x2="358.467" y2="163.515"/>
					</g>
				</g>
				<path style="fill:none;stroke:#342D3A;stroke-width:0.5;stroke-linecap:round;stroke-linejoin:round;stroke-miterlimit:10;" d="
					M352.195,173.498c0-2.842,2.304-5.147,5.147-5.147c2.842,0,5.147,2.304,5.147,5.147c0,2.842-2.304,5.147-5.147,5.147
					C354.499,178.645,352.195,176.34,352.195,173.498z"/>
			</g>
			<g>
				<path style="fill:#FBBF9D;" d="M267.191,144.501l5.456-0.616l-2.458-21.758c-0.128-1.132-1.149-1.946-2.281-1.818l-1.357,0.153
					c-1.132,0.128-1.946,1.149-1.818,2.281L267.191,144.501z"/>
				<path style="fill:#FBBF9D;" d="M265.335,147.055l5.331-1.316l-5.247-21.258c-0.273-1.106-1.39-1.781-2.496-1.508l-1.326,0.327
					c-1.106,0.273-1.781,1.391-1.508,2.497L265.335,147.055z"/>
				<path style="fill:#FBBF9D;" d="M263.969,146.063l3.853-2.468l-7.061-11.021c-0.512-0.799-1.575-1.032-2.374-0.52l-0.958,0.614
					c-0.799,0.512-1.032,1.575-0.52,2.374L263.969,146.063z"/>
				<path style="fill:#FBBF9D;" d="M260.451,138.953c-0.069,0.413-0.462,16.876-0.462,16.876l2.412,9.773l15.426-3.807
					l-3.967-16.072L260.451,138.953z"/>
				<path style="fill:#FBBF9D;" d="M267.824,146.609c0.547-0.29,1.122-0.452,1.701-0.545l-0.106-4.756
					c-0.075-3.353,2.583-6.132,5.936-6.207l0.334,14.954c0.644,2.416-0.424,5.041-2.728,6.26c-2.68,1.419-6.003,0.396-7.421-2.284
					C264.121,151.35,265.144,148.028,267.824,146.609z"/>
				<path style="fill:none;stroke:#D68C6B;stroke-width:0.5;stroke-miterlimit:10;" d="M265.54,154.031
					c-1.419-2.68-0.396-6.003,2.284-7.421c0.547-0.29,1.122-0.452,1.701-0.545l-0.106-4.756c-0.045-2.011,0.893-3.815,2.374-4.954"
					/>
			</g>
			<g>
				<polygon style="fill:#F8427B;" points="287.669,173.06 257.554,171.774 252.538,158.47 286.465,160.48 				"/>
				<path style="fill:#333148;" d="M339.938,205.536c0,5.214-3.975,9.668-9.271,10.159l-46.962,4.337
					c-4.828,0.444-9.306-2.572-10.709-7.225l-15.443-41.035l30.115,1.286l2.467,25.883l38.661-3.566
					c5.6-0.514,10.568,3.612,11.094,9.212C339.915,204.905,339.938,205.221,339.938,205.536z"/>
			</g>
			<g>
				<g>
					<g>
						
							<rect x="377.56" y="404.78" transform="matrix(0.7402 -0.6724 0.6724 0.7402 -178.4656 365.3698)" style="fill:#FBBF9D;" width="11.939" height="17.654"/>
						<polygon points="411.489,421.468 373.356,456.112 371.708,454.298 379.825,425.999 399.427,408.191 						"/>
						
							<rect x="376.458" y="412.159" transform="matrix(0.7402 -0.6724 0.6724 0.7402 -178.988 367.7933)" style="fill:#F9F9F9;" width="19.912" height="6.681"/>
					</g>
				</g>
				<g>
					<polygon style="fill:#F8427B;" points="372.681,417.417 309.884,341.114 345.559,306.222 396.699,402.701 					"/>
				</g>
				<polygon points="360.555,336.007 337.902,375.249 334.842,371.514 331.884,367.912 355.848,326.411 357.433,329.643 				"/>
			</g>
			<g>
				<g>
					<g>
						<rect x="286.511" y="417.417" style="fill:#FBBF9D;" width="11.939" height="17.654"/>
						<polygon points="307.889,450.863 256.368,450.863 256.368,448.413 281.405,432.926 307.889,432.926 						"/>
						<rect x="283.387" y="426.244" style="fill:#F9F9F9;" width="19.912" height="6.681"/>
					</g>
				</g>
				<g>
					<g>
						<path style="fill:#F8427B;" d="M307.713,419.239h-30.495l45.656-150.472h49.285l0.196,7.959
							c-1.172,28.697-1.207,28.81-16.634,53.036L307.713,419.239z"/>
					</g>
				</g>
			</g>
			<g>
				<path style="fill:#FDFDFE;" d="M372.158,222.574v46.195h-48.719l-0.637-27.687c-6.733-12.664-3.446-22.108,1.591-30.481
					l9.635-16.008h22.164c9.364,0,13.278,5.049,14.87,12.683C371.999,211.672,372.158,216.929,372.158,222.574z"/>
				<polygon points="374.297,350.829 295.583,350.829 300.049,332.416 373.993,332.416 				"/>
				<path style="fill:#333148;" d="M300.049,332.416l22.177-91.328c-6.804-12.673-3.484-22.119,1.613-30.489l5.962-9.785
					l1.742-2.853l1.45-2.385c2.256,10.545,5.799,25.486,5.799,25.486l18.249-26.444c0.83,0.035,1.613,0.117,2.362,0.222
					c0.865,0.14,1.672,0.327,2.432,0.585c5.378,1.707,7.985,6.021,9.212,11.854c0.947,4.396,1.111,9.645,1.111,15.291l1.835,109.846
					H300.049z"/>
				<g>
					<polygon style="fill:#F8427B;" points="359.403,194.839 338.009,226.217 331.544,197.961 329.802,200.814 336.922,231.958 
						361.835,195.424 					"/>
				</g>
				<path style="fill:none;stroke:#3F3F4C;stroke-width:0.5;stroke-miterlimit:10;" d="M320.807,246.951l1.423-5.863
					c-6.804-12.673-3.484-22.119,1.613-30.489l5.48-8.993"/>
				<line style="fill:none;stroke:#F8427B;stroke-miterlimit:10;" x1="337.126" y1="232.899" x2="313.899" y2="350.829"/>
			</g>
			<g>
				<polygon style="fill:#F8427B;" points="439.999,203.257 429.536,210.949 404.845,187.311 412.818,174.883 				"/>
				<path style="fill:#333148;" d="M429.536,210.949l-29.344,21.569c-1.87,2.268-4.559,3.694-7.482,3.963
					c-0.339,0.023-0.666,0.047-1.005,0.047c-2.572,0-5.085-0.912-7.073-2.595l-23.382-19.699
					c-4.641-3.916-5.226-10.849-1.321-15.479c3.916-4.641,10.837-5.237,15.478-1.321l14.882,12.544l14.555-22.668L429.536,210.949z"
					/>
				<path style="fill:#FBBF9D;" d="M449.628,177.654c0.807,1.146,0.526,2.724-0.631,3.531l-6.57,4.595
					c-1.695,1.625-3.858,2.642-6.161,2.946l-4.711,5.717l-12.112-12.638l4.454-4.302c0.047-1.415,0.351-2.853,0.982-4.22
					c2.081-4.524,6.851-6.956,11.539-6.278c0.175-0.398,0.456-0.76,0.842-1.029l7.026-4.922c1.157-0.795,2.736-0.514,3.542,0.631
					c0.795,1.146,0.514,2.736-0.631,3.531l-5.658,3.963c0.082,0.058,0.164,0.129,0.246,0.187l4.361-3.051
					c1.157-0.795,2.736-0.514,3.542,0.631c0.795,1.146,0.514,2.736-0.631,3.531l-1.064,0.748c0.643,0.117,1.228,0.468,1.625,1.04
					c0.807,1.146,0.526,2.736-0.62,3.531l-1.146,0.795C448.541,176.684,449.196,177.035,449.628,177.654z"/>
				<g>
					<path style="fill:#FDFDFE;" d="M438.323,142.57l11.401,62.009c-0.273-1.483-1.12-2.73-2.275-3.516
						c-1.157-0.798-2.601-1.15-4.095-0.876c-2.966,0.546-4.928,3.39-4.38,6.368l-11.401-62.009c-0.546-2.967,1.414-5.823,4.38-6.368
						c1.495-0.275,2.939,0.078,4.095,0.876C437.206,139.852,438.051,141.087,438.323,142.57z"/>
					<path style="fill:#FDFDFE;" d="M439.755,207.399c-0.484-2.634,1.258-5.162,3.892-5.646c2.634-0.484,5.162,1.258,5.646,3.892
						c0.484,2.634-1.258,5.162-3.893,5.646C442.767,211.775,440.239,210.033,439.755,207.399z"/>
					<path style="fill:none;stroke:#0E283D;stroke-width:0.5;stroke-miterlimit:10;" d="M441.426,207.091
						c-0.315-1.711,0.818-3.354,2.529-3.668c1.711-0.315,3.354,0.818,3.668,2.529c0.315,1.711-0.818,3.354-2.529,3.668
						C443.383,209.935,441.74,208.803,441.426,207.091z"/>
				</g>
				<g>
					<g>
						<path style="fill:#FBBF9D;" d="M441.463,166.14l4.536-0.439c1.395-0.135,2.417-1.376,2.282-2.771l0,0
							c-0.135-1.395-1.375-2.417-2.771-2.282l-4.536,0.439c-1.395,0.135-2.417,1.376-2.282,2.771l0,0
							C438.827,165.254,440.068,166.275,441.463,166.14z"/>
						<path style="fill:#FBBF9D;" d="M441.282,171.579l6.695-0.648c1.395-0.135,2.417-1.376,2.282-2.771l0,0
							c-0.135-1.395-1.375-2.417-2.771-2.282l-6.695,0.647c-1.395,0.135-2.417,1.376-2.282,2.771l0,0
							C438.646,170.692,439.887,171.714,441.282,171.579z"/>
						<path style="fill:#FBBF9D;" d="M442.78,176.718l5.113-0.495c1.395-0.135,2.417-1.376,2.282-2.771v0
							c-0.135-1.395-1.376-2.417-2.771-2.282l-5.113,0.495c-1.395,0.135-2.417,1.375-2.282,2.771l0,0
							C440.144,175.831,441.384,176.853,442.78,176.718z"/>
						<path style="fill:#FBBF9D;" d="M444.824,181.748l3.107-0.3c1.395-0.135,2.417-1.376,2.282-2.771l0,0
							c-0.135-1.395-1.375-2.417-2.771-2.282l-3.107,0.301c-1.395,0.135-2.417,1.375-2.282,2.771l0,0
							C442.189,180.861,443.429,181.883,444.824,181.748z"/>
						<path style="fill:#FBBF9D;" d="M441.463,166.14l4.536-0.439c1.395-0.135,2.417-1.376,2.282-2.771l0,0
							c-0.135-1.395-1.375-2.417-2.771-2.282l-4.536,0.439c-1.395,0.135-2.417,1.376-2.282,2.771l0,0
							C438.827,165.254,440.068,166.275,441.463,166.14z"/>
						<path style="fill:#FBBF9D;" d="M441.282,171.579l6.695-0.648c1.395-0.135,2.417-1.376,2.282-2.771l0,0
							c-0.135-1.395-1.375-2.417-2.771-2.282l-6.695,0.647c-1.395,0.135-2.417,1.376-2.282,2.771l0,0
							C438.646,170.692,439.887,171.714,441.282,171.579z"/>
						<path style="fill:#FBBF9D;" d="M442.78,176.718l5.113-0.495c1.395-0.135,2.417-1.376,2.282-2.771v0
							c-0.135-1.395-1.376-2.417-2.771-2.282l-5.113,0.495c-1.395,0.135-2.417,1.375-2.282,2.771l0,0
							C440.144,175.831,441.384,176.853,442.78,176.718z"/>
						<path style="fill:#FBBF9D;" d="M444.824,181.748l3.107-0.3c1.395-0.135,2.417-1.376,2.282-2.771l0,0
							c-0.135-1.395-1.375-2.417-2.771-2.282l-3.107,0.301c-1.395,0.135-2.417,1.375-2.282,2.771l0,0
							C442.189,180.861,443.429,181.883,444.824,181.748z"/>
					</g>
					<g>
						<path style="fill:none;stroke:#E2A07F;stroke-width:0.5;stroke-miterlimit:10;" d="M441.463,166.14l4.536-0.439
							c1.395-0.135,2.417-1.376,2.282-2.771l0,0c-0.135-1.395-1.375-2.417-2.771-2.282l-4.536,0.439
							c-1.395,0.135-2.417,1.376-2.282,2.771l0,0C438.827,165.254,440.068,166.275,441.463,166.14z"/>
						<path style="fill:none;stroke:#E2A07F;stroke-width:0.5;stroke-miterlimit:10;" d="M441.282,171.579l6.695-0.648
							c1.395-0.135,2.417-1.376,2.282-2.771l0,0c-0.135-1.395-1.375-2.417-2.771-2.282l-6.695,0.647
							c-1.395,0.135-2.417,1.376-2.282,2.771l0,0C438.646,170.692,439.887,171.714,441.282,171.579z"/>
						<path style="fill:none;stroke:#E2A07F;stroke-width:0.5;stroke-miterlimit:10;" d="M442.78,176.718l5.113-0.495
							c1.395-0.135,2.417-1.376,2.282-2.771v0c-0.135-1.395-1.376-2.417-2.771-2.282l-5.113,0.495
							c-1.395,0.135-2.417,1.375-2.282,2.771l0,0C440.144,175.831,441.384,176.853,442.78,176.718z"/>
						<path style="fill:none;stroke:#E2A07F;stroke-width:0.5;stroke-miterlimit:10;" d="M444.824,181.748l3.107-0.3
							c1.395-0.135,2.417-1.376,2.282-2.771l0,0c-0.135-1.395-1.375-2.417-2.771-2.282l-3.107,0.301
							c-1.395,0.135-2.417,1.375-2.282,2.771l0,0C442.189,180.861,443.429,181.883,444.824,181.748z"/>
						<path style="fill:none;stroke:#E2A07F;stroke-width:0.5;stroke-miterlimit:10;" d="M441.463,166.14l4.536-0.439
							c1.395-0.135,2.417-1.376,2.282-2.771l0,0c-0.135-1.395-1.375-2.417-2.771-2.282l-4.536,0.439
							c-1.395,0.135-2.417,1.376-2.282,2.771l0,0C438.827,165.254,440.068,166.275,441.463,166.14z"/>
						<path style="fill:none;stroke:#E2A07F;stroke-width:0.5;stroke-miterlimit:10;" d="M441.282,171.579l6.695-0.648
							c1.395-0.135,2.417-1.376,2.282-2.771l0,0c-0.135-1.395-1.375-2.417-2.771-2.282l-6.695,0.647
							c-1.395,0.135-2.417,1.376-2.282,2.771l0,0C438.646,170.692,439.887,171.714,441.282,171.579z"/>
						<path style="fill:none;stroke:#E2A07F;stroke-width:0.5;stroke-miterlimit:10;" d="M442.78,176.718l5.113-0.495
							c1.395-0.135,2.417-1.376,2.282-2.771v0c-0.135-1.395-1.376-2.417-2.771-2.282l-5.113,0.495
							c-1.395,0.135-2.417,1.375-2.282,2.771l0,0C440.144,175.831,441.384,176.853,442.78,176.718z"/>
						<path style="fill:none;stroke:#E2A07F;stroke-width:0.5;stroke-miterlimit:10;" d="M444.824,181.748l3.107-0.3
							c1.395-0.135,2.417-1.376,2.282-2.771l0,0c-0.135-1.395-1.375-2.417-2.771-2.282l-3.107,0.301
							c-1.395,0.135-2.417,1.375-2.282,2.771l0,0C442.189,180.861,443.429,181.883,444.824,181.748z"/>
					</g>
				</g>
				<g>
					<g>
						<path style="fill:#FBBF9D;" d="M429.139,165.347c2.165-1.088,4.803-0.215,5.891,1.95c1.088,2.165,0.215,4.803-1.95,5.891
							c-2.165,1.088-4.803,0.215-5.891-1.95C426.1,169.073,426.973,166.436,429.139,165.347z"/>
						<path style="fill:#FBBF9D;" d="M427.189,171.238c1.088,2.165,3.726,3.038,5.891,1.95c1.981-0.996,2.861-3.286,2.166-5.327
							l3.758-1.885c1.253-0.628,1.759-2.154,1.131-3.407c-0.629-1.253-2.154-1.759-3.407-1.131l-7.663,3.844"/>
					</g>
					<path style="fill:none;stroke:#E2A07F;stroke-width:0.5;stroke-miterlimit:10;" d="M433.08,173.188
						c0.007-0.003,0.012-0.008,0.019-0.012c0.251-0.128,0.484-0.277,0.698-0.444c0.087-0.067,0.159-0.147,0.24-0.22
						c0.122-0.111,0.247-0.219,0.354-0.341c0.094-0.107,0.172-0.224,0.255-0.338c0.071-0.099,0.146-0.196,0.209-0.3
						c0.088-0.146,0.159-0.298,0.229-0.452c0.036-0.08,0.075-0.158,0.106-0.241c0.07-0.182,0.123-0.369,0.169-0.559
						c0.013-0.056,0.027-0.111,0.038-0.167c0.042-0.215,0.067-0.431,0.077-0.651c0.001-0.032,0.002-0.063,0.003-0.095
						c0.006-0.239-0.008-0.477-0.042-0.716c-0.002-0.013-0.005-0.026-0.007-0.039c-0.038-0.253-0.098-0.502-0.182-0.75
						c0,0,0-0.001,0-0.001l3.758-1.885c1.253-0.628,1.759-2.154,1.131-3.407c-0.629-1.253-2.154-1.759-3.407-1.131l-7.663,3.844"/>
				</g>
				<path style="fill:none;stroke:#3F3F4C;stroke-width:0.5;stroke-miterlimit:10;" d="M376.835,227.272l-15.475-13.038
					c-2.901-2.448-4.217-6.074-3.843-9.579"/>
			</g>
			<path style="fill:#FDFDFE;" d="M352.47,178.531c-3.004,4.267-7.961,7.061-13.573,7.061c-6.009,0-11.048-4.209-12.299-9.832
				c1.906-1.824,6.114-2.549,8.148-2.619c3.729-0.117,7.4,1.005,10.861,2.42C347.911,176.497,350.167,177.572,352.47,178.531z"/>
		</g>
		<g>
			<path style="fill:none;stroke:#FFFFFF;stroke-miterlimit:10;" d="M254.876,450.863c0,0,43.089,0,69.97,0"/>
			<path style="fill:none;stroke:#FFFFFF;stroke-miterlimit:10;" d="M334.786,450.863c6.771,0,11.101,0,11.101,0"/>
		</g>
		<g>
			<path style="fill:none;stroke:#FFFFFF;stroke-miterlimit:10;" d="M367.145,456.112c0,0,28.382,0,45.966,0"/>
			<path style="fill:none;stroke:#FFFFFF;stroke-miterlimit:10;" d="M420.133,456.112c4.041,0,6.588,0,6.588,0"/>
		</g>
	</g>
</g>
</svg>
